SplineFontDB: 3.0
FontName: PrestigeEliteStd-Bd
FullName: Prestige Elite Std Bold
FamilyName: Prestige Elite Std
Weight: Bold
Copyright: Copyright 1987, 1995, 1999 , 2002Adobe Systems Incorporated. All Rights Reserved. 
Version: 001.004
ItalicAngle: 0
UnderlinePosition: -100
UnderlineWidth: 50
Ascent: 656
Descent: 344
InvalidEm: 0
sfntRevision: 0x000105a1
LayerCount: 2
Layer: 0 0 "Back" 1
Layer: 1 0 "Fore" 0
XUID: [1021 173 -302333775 11010207]
BaseHoriz: 2 'ideo' 'romn'
BaseScript: 'latn' 1  -200 0
StyleMap: 0x0020
FSType: 4
OS2Version: 3
OS2_WeightWidthSlopeOnly: 0
OS2_UseTypoMetrics: 0
CreationTime: 1017676943
ModificationTime: 1017676943
PfmFamily: 17
TTFWeight: 700
TTFWidth: 5
LineGap: 200
VLineGap: 0
Panose: 2 6 5 9 2 2 6 2 3 4
OS2TypoAscent: 656
OS2TypoAOffset: 0
OS2TypoDescent: -344
OS2TypoDOffset: 0
OS2TypoLinegap: 200
OS2WinAscent: 846
OS2WinAOffset: 0
OS2WinDescent: 288
OS2WinDOffset: 0
HheadAscent: 656
HheadAOffset: 0
HheadDescent: -344
HheadDOffset: 0
OS2SubXSize: 650
OS2SubYSize: 600
OS2SubXOff: 0
OS2SubYOff: 75
OS2SupXSize: 650
OS2SupYSize: 600
OS2SupXOff: 0
OS2SupYOff: 350
OS2StrikeYSize: 50
OS2StrikeYPos: 252
OS2CapHeight: 612
OS2XHeight: 420
OS2Vendor: 'ADBE'
OS2CodePages: 40000001.00000000
OS2UnicodeRanges: 800000af.500078fb.00000000.00000000
Lookup: 1 0 0 "'aalt' Access All Alternates in Latin lookup 0" { "'aalt' Access All Alternates in Latin lookup 0 subtable"  } ['aalt' ('latn' <'dflt' > ) ]
Lookup: 3 0 0 "'aalt' Access All Alternates in Latin lookup 1" { "'aalt' Access All Alternates in Latin lookup 1 subtable"  } ['aalt' ('latn' <'dflt' > ) ]
Lookup: 6 0 0 "'frac' Diagonal Fractions in Latin lookup 2" { "'frac' Diagonal Fractions in Latin lookup 2 contextual 0"  "'frac' Diagonal Fractions in Latin lookup 2 contextual 1"  "'frac' Diagonal Fractions in Latin lookup 2 contextual 2"  "'frac' Diagonal Fractions in Latin lookup 2 contextual 3"  "'frac' Diagonal Fractions in Latin lookup 2 contextual 4"  } ['frac' ('latn' <'dflt' > ) ]

StartChar: .notdef
Encoding: 65536 -1 0
Width: 600
Flags: MW
HStem: 0 50<130 470 130 550> 650 50<130 470 130 130>
VStem: 50 50<95 605 95 700> 500 50<95 605 605 605>
LayerCount: 2
Fore
SplineSet
50 0 m 1
 50 700 l 1
 550 700 l 1
 550 0 l 1
 50 0 l 1
300 395 m 1
 470 650 l 1
 130 650 l 1
 300 395 l 1
330 350 m 1
 500 95 l 1
 500 605 l 1
 330 350 l 1
130 50 m 1
 470 50 l 1
 300 305 l 1
 130 50 l 1
100 605 m 1
 100 95 l 1
 270 350 l 1
 100 605 l 1
EndSplineSet
EndChar

StartChar: exclam
Encoding: 33 33 2
Width: 600
GlyphClass: 2
Flags: MW
HStem: -12 114<284.5 315.5 284.5 316> 592 20G<284.5 315.5>
VStem: 241 118<29 61>
LayerCount: 2
Fore
SplineSet
325 154 m 1
 275 154 l 1
 240 558 l 2
 237 590 269 612 300 612 c 0
 331 612 363 590 360 558 c 2
 325 154 l 1
241 45 m 0
 241 77 269 102 300 102 c 0
 331 102 359 77 359 45 c 0
 359 13 332 -12 300 -12 c 0
 268 -12 241 13 241 45 c 0
EndSplineSet
EndChar

StartChar: quotedbl
Encoding: 34 34 3
Width: 600
GlyphClass: 2
Flags: MW
HStem: 592 20G<173.5 210.5 389.5 426.5>
VStem: 130 124<565 581.5> 130 340<565 581.5> 346 124<565 581.5>
LayerCount: 2
Fore
SplineSet
218 315 m 1xd0
 166 315 l 1
 138 498 l 2
 135 520 130 556 130 574 c 0
 130 589 155 612 192 612 c 0
 229 612 254 589 254 574 c 0
 254 556 249 520 246 498 c 2
 218 315 l 1xd0
434 315 m 1
 382 315 l 1
 354 498 l 2
 351 520 346 556 346 574 c 0
 346 589 371 612 408 612 c 0
 445 612 470 589 470 574 c 0
 470 556 465 520 462 498 c 2
 434 315 l 1
EndSplineSet
EndChar

StartChar: numbersign
Encoding: 35 35 4
Width: 600
GlyphClass: 2
Flags: MW
HStem: 230 66<31 149 16 161 413 535> 428 66<66 185 54 198 450 570>
VStem: 16 567<230 494>
LayerCount: 2
Fore
SplineSet
255 805 m 1
 330 805 l 1
 164 -96 l 1
 89 -96 l 1
 149 230 l 1
 16 230 l 1
 31 296 l 1
 161 296 l 1
 185 428 l 1
 54 428 l 1
 66 494 l 1
 198 494 l 1
 255 805 l 1
341 -96 m 1
 266 -96 l 1
 432 805 l 1
 507 805 l 1
 450 494 l 1
 583 494 l 1
 570 428 l 1
 437 428 l 1
 413 296 l 1
 547 296 l 1
 535 230 l 1
 401 230 l 1
 341 -96 l 1
EndSplineSet
EndChar

StartChar: dollar
Encoding: 36 36 5
Width: 600
GlyphClass: 2
Flags: MW
HStem: 15 56<252.5 337 336 336> 544 56<336 344.5>
VStem: 115 53 127 65<380 476 380 480> 274 62<-116 15 -116 15 600 706> 413 62 433 65<140 246.5>
LayerCount: 2
Fore
SplineSet
336 15 m 1xdc
 336 -116 l 1
 274 -116 l 1
 274 15 l 1
 231 15 152 40 110 51 c 1
 115 110 l 2
 117 138 110 166 101 193 c 1
 168 193 l 1
 169 168 171 131 185 111 c 0xec
 207 80 271 71 305 71 c 0
 369 71 433 105 433 175 c 0xda
 433 318 127 265 127 439 c 0
 127 521 196 588 274 600 c 1
 274 706 l 1
 336 706 l 1
 336 600 l 1
 398 600 444 584 478 546 c 1
 473 531 471 516 472 500 c 2
 478 427 l 1
 413 427 l 1
 413 455 l 2xdc
 413 519 377 544 312 544 c 0
 250 544 192 509 192 443 c 0
 192 317 498 363 498 177 c 0xda
 498 89 419 23 336 15 c 1xdc
EndSplineSet
EndChar

StartChar: percent
Encoding: 37 37 6
Width: 600
GlyphClass: 3
Flags: MW
HStem: -12 28<410.5 459.5 410.5 471> -4 20 218 28<410.5 459.5> 354 28<140.5 189.5 140.5 201> 584 28<140.5 189.5>
VStem: 71 36<465 501 465 513> 223 36<465 501> 341 36<99 135 99 147> 493 36<99 135>
LayerCount: 2
Fore
SplineSet
435 16 m 0xbf80
 484 16 493 81 493 117 c 0
 493 153 484 218 435 218 c 0
 386 218 377 153 377 117 c 0
 377 81 386 16 435 16 c 0xbf80
419 633 m 1x7f80
 453 613 l 1
 175 -25 l 1
 141 -4 l 1
 419 633 l 1x7f80
435 -12 m 0xbf80
 363 -12 341 57 341 117 c 0
 341 177 363 246 435 246 c 0
 507 246 529 177 529 117 c 0
 529 57 507 -12 435 -12 c 0xbf80
165 354 m 0
 93 354 71 423 71 483 c 0
 71 543 93 612 165 612 c 0
 237 612 259 543 259 483 c 0
 259 423 237 354 165 354 c 0
165 382 m 0
 214 382 223 447 223 483 c 0
 223 519 214 584 165 584 c 0
 116 584 107 519 107 483 c 0
 107 447 116 382 165 382 c 0
EndSplineSet
Ligature2: "Ligature Substitution lookup 8 subtable" zero fraction zero
Ligature2: "Ligature Substitution lookup 8 subtable" zero slash zero
EndChar

StartChar: ampersand
Encoding: 38 38 7
Width: 600
GlyphClass: 2
Flags: MW
HStem: -12 56<232.5 288> -3 58<465 478.5 465 494> 247 56<489 539 489 489> 556 56<265.5 300>
VStem: 93 65<146 210 146 218.5> 157 65<471.5 511.5 471.5 531> 433 106<247 303>
LayerCount: 2
Fore
SplineSet
373 95 m 1xba
 362 121 l 2
 345 160 333 196 307 230 c 2
 243 315 l 1
 185 295 158 240 158 180 c 0
 158 112 195 44 270 44 c 0
 311 44 346 64 373 95 c 1xba
539 247 m 1
 489 247 l 1
 484 191 470 137 442 88 c 1
 447 77 459 55 471 55 c 0
 486 55 489 89 492 98 c 1
 540 70 l 1
 535 31 516 -3 472 -3 c 0x7a
 436 -3 423 14 400 40 c 1
 365 5 313 -12 263 -12 c 0
 158 -12 93 82 93 180 c 0xba
 93 257 137 330 208 359 c 1
 180 398 157 447 157 496 c 0
 157 566 221 612 286 612 c 0
 335 612 375 585 404 547 c 1
 359 502 l 1
 339 526 317 556 283 556 c 0
 248 556 222 529 222 494 c 0
 222 449 254 401 281 366 c 2
 315 323 l 2xb6
 355 273 389 221 412 160 c 1
 426 207 432 255 433 303 c 1
 539 303 l 1
 539 247 l 1
EndSplineSet
EndChar

StartChar: quotesingle
Encoding: 39 39 8
Width: 600
GlyphClass: 2
Flags: MW
HStem: 592 20G<281.5 318.5>
VStem: 238 124<565 581.5>
LayerCount: 2
Fore
SplineSet
326 315 m 1
 274 315 l 1
 246 498 l 2
 243 520 238 556 238 574 c 0
 238 589 263 612 300 612 c 0
 337 612 362 589 362 574 c 0
 362 556 357 520 354 498 c 2
 326 315 l 1
EndSplineSet
EndChar

StartChar: parenleft
Encoding: 40 40 9
Width: 600
GlyphClass: 2
Flags: MW
HStem: 636 20G<473 473>
VStem: 238 65<220.5 365 220.5 377.5>
LayerCount: 2
Fore
SplineSet
473 -70 m 1
 434 -117 l 1
 295 -15 238 124 238 293 c 0
 238 462 295 601 434 703 c 1
 473 656 l 1
 345 575 303 437 303 293 c 0
 303 148 345 10 473 -70 c 1
EndSplineSet
EndChar

StartChar: parenright
Encoding: 41 41 10
Width: 600
GlyphClass: 2
Flags: MW
HStem: 636 20G<127 127>
VStem: 297 65<221 365.5>
LayerCount: 2
Fore
SplineSet
127 656 m 1
 166 703 l 1
 305 601 362 462 362 293 c 0
 362 124 305 -15 166 -117 c 1
 127 -70 l 1
 255 11 297 149 297 293 c 0
 297 438 255 576 127 656 c 1
EndSplineSet
EndChar

StartChar: asterisk
Encoding: 42 42 11
Width: 600
GlyphClass: 2
Flags: MW
HStem: 446 91<175 256> 592 20G<290.5 316>
VStem: 258 86<557.5 579 556 580.5> 304 106<351.5 414>
LayerCount: 2
Fore
SplineSet
323 494 m 1xe0
 330 487 l 1
 350 501 384 533 410 533 c 0xe0
 433 533 456 516 456 491 c 0
 456 436 374 447 340 442 c 1
 336 436 l 1
 359 422 l 2
 380 409 410 392 410 363 c 0
 410 340 391 320 368 320 c 0
 324 320 310 380 304 414 c 1
 296 414 l 1
 275 360 l 2
 266 337 252 318 224 318 c 0xd0
 200 318 184 340 184 362 c 0
 184 380 198 393 211 403 c 2
 258 437 l 1
 256 446 l 1
 248 446 235 447 221 449 c 0
 195 452 144 452 144 498 c 0
 144 519 165 537 185 537 c 0
 216 537 243 509 267 489 c 1
 276 495 l 1
 271 515 258 547 258 568 c 0
 258 593 278 612 303 612 c 0
 329 612 344 591 344 567 c 0
 344 545 330 514 323 494 c 1xe0
EndSplineSet
EndChar

StartChar: plus
Encoding: 43 43 12
Width: 600
GlyphClass: 2
Flags: MW
HStem: 327 66<25 265 25 265 335 575>
VStem: 265 70<90 327 90 327 393 630>
LayerCount: 2
Fore
SplineSet
575 393 m 1
 575 327 l 1
 335 327 l 1
 335 90 l 1
 265 90 l 1
 265 327 l 1
 25 327 l 1
 25 393 l 1
 265 393 l 1
 265 630 l 1
 335 630 l 1
 335 393 l 1
 575 393 l 1
EndSplineSet
EndChar

StartChar: comma
Encoding: 44 44 13
Width: 600
GlyphClass: 2
Flags: MW
HStem: -10 21G -10 130
VStem: 239 142<34 60 2.5 71>
LayerCount: 2
Fore
SplineSet
240 -98 m 1xa0
 240 -40 l 1
 262 -35 282 -26 298 -10 c 1
 265 -8 239 17 239 51 c 0
 239 91 268 120 308 120 c 0
 352 120 381 81 381 39 c 0x60
 381 -34 305 -84 240 -98 c 1xa0
EndSplineSet
EndChar

StartChar: hyphen
Encoding: 45 45 14
Width: 600
GlyphClass: 2
Flags: MW
HStem: 272 56<170 428 170 428>
VStem: 170 258<272 328 272 328>
LayerCount: 2
Fore
SplineSet
428 272 m 1
 170 272 l 1
 170 328 l 1
 428 328 l 1
 428 272 l 1
EndSplineSet
AlternateSubs2: "'aalt' Access All Alternates in Latin lookup 1 subtable" endash emdash minus
EndChar

StartChar: period
Encoding: 46 46 15
Width: 600
GlyphClass: 2
Flags: MW
HStem: -12 138<281 319>
VStem: 230 140<37.5 76>
LayerCount: 2
Fore
SplineSet
230 57 m 0
 230 95 262 126 300 126 c 0
 338 126 370 95 370 57 c 0
 370 18 338 -12 300 -12 c 0
 262 -12 230 18 230 57 c 0
EndSplineSet
Substitution2: "'aalt' Access All Alternates in Latin lookup 0 subtable" ellipsis
EndChar

StartChar: slash
Encoding: 47 47 16
Width: 600
GlyphClass: 2
Flags: MW
HStem: -27 774<112 488 112 488>
VStem: 112 376
LayerCount: 2
Fore
SplineSet
187 -27 m 1
 112 -27 l 1
 413 747 l 1
 488 747 l 1
 187 -27 l 1
EndSplineSet
Substitution2: "'aalt' Access All Alternates in Latin lookup 0 subtable" fraction
EndChar

StartChar: zero
Encoding: 48 48 17
Width: 600
GlyphClass: 2
Flags: MW
HStem: -12 56<248 352> 556 56<248 352 248 362>
VStem: 93 65<254 346 254 414.5> 442 65<254 346>
LayerCount: 2
Fore
SplineSet
300 -12 m 0
 196 -12 93 71 93 300 c 0
 93 529 196 612 300 612 c 0
 404 612 507 529 507 300 c 0
 507 71 404 -12 300 -12 c 0
300 556 m 0
 176 556 158 392 158 300 c 0
 158 208 176 44 300 44 c 0
 424 44 442 208 442 300 c 0
 442 392 424 556 300 556 c 0
EndSplineSet
EndChar

StartChar: one
Encoding: 49 49 18
Width: 600
GlyphClass: 2
Flags: MW
HStem: 0 56<136 279 341 475 136 279> 515 54<176 176> 592 20G<304.5 326.5>
VStem: 279 62<56 525 525 525>
LayerCount: 2
Fore
SplineSet
341 560 m 2
 341 56 l 1
 475 56 l 1
 475 0 l 1
 136 0 l 1
 136 56 l 1
 279 56 l 1
 279 525 l 1
 245 519 211 513 176 515 c 2
 148 517 l 1
 138 572 l 1
 172 569 l 2
 188 569 210 569 231 573 c 0
 253 577 273 584 284 597 c 0
 292 606 298 612 311 612 c 0
 342 612 341 582 341 560 c 2
EndSplineSet
Substitution2: "'sups' Superscript in Latin lookup 6 subtable" onesuperior
Substitution2: "'aalt' Access All Alternates in Latin lookup 0 subtable" onesuperior
EndChar

StartChar: two
Encoding: 50 50 19
Width: 600
GlyphClass: 2
Flags: MW
HStem: 0 56<187 409 187 449> 556 56<271 316.5>
VStem: 397 65<419 484>
LayerCount: 2
Fore
SplineSet
444 122 m 1
 500 108 l 1
 449 0 l 1
 106 0 l 1
 106 55 l 1
 296 258 l 2
 341 306 397 384 397 454 c 0
 397 514 345 556 288 556 c 0
 254 556 220 544 198 517 c 1
 199 476 182 438 146 438 c 0
 126 438 119 454 119 471 c 0
 119 557 212 612 290 612 c 0
 379 612 462 550 462 456 c 0
 462 378 419 308 369 253 c 2
 206 75 l 1
 187 56 l 1
 409 56 l 1
 444 122 l 1
EndSplineSet
Substitution2: "'sups' Superscript in Latin lookup 6 subtable" twosuperior
Substitution2: "'aalt' Access All Alternates in Latin lookup 0 subtable" twosuperior
EndChar

StartChar: three
Encoding: 51 51 20
Width: 600
GlyphClass: 2
Flags: MW
HStem: -12 56<237 303.5 237 324.5> 299 52<281 296 260 321> 556 56<261.5 308>
VStem: 379 65<420.5 476> 409 65<127.5 211.5>
LayerCount: 2
Fore
SplineSet
281 299 m 1xe8
 230 294 l 1
 230 355 l 1
 242 353 254 351 266 351 c 0
 326 351 379 374 379 443 c 0
 379 509 342 556 274 556 c 0
 249 556 224 548 205 532 c 1
 203 501 181 460 146 460 c 0
 127 460 117 475 117 493 c 0
 117 525 141 554 165 573 c 0
 198 599 240 612 283 612 c 0
 375 612 444 541 444 450 c 0xf0
 444 391 424 367 383 329 c 1
 383 328 l 1
 443 283 474 255 474 174 c 0
 474 57 380 -12 269 -12 c 0
 205 -12 136 2 80 36 c 1
 105 86 l 1
 152 58 210 44 264 44 c 0
 343 44 409 84 409 171 c 0
 409 252 361 299 281 299 c 1xe8
EndSplineSet
Substitution2: "'sups' Superscript in Latin lookup 6 subtable" threesuperior
Substitution2: "'aalt' Access All Alternates in Latin lookup 0 subtable" threesuperior
EndChar

StartChar: four
Encoding: 52 52 21
Width: 600
GlyphClass: 2
Flags: MW
HStem: 0 56<275 375 437 523 275 375> 156 56<145 375 145 375 437 523> 401 20G<375 437 437 437> 626 20G<281 281>
VStem: 375 62<56 156 56 156 212 421>
LayerCount: 2
Fore
SplineSet
375 421 m 1
 437 421 l 1
 437 212 l 1
 523 212 l 1
 523 156 l 1
 437 156 l 1
 437 56 l 1
 523 56 l 1
 523 0 l 1
 275 0 l 1
 275 56 l 1
 375 56 l 1
 375 156 l 1
 82 156 l 1
 82 210 l 1
 164 347 242 490 281 646 c 1
 343 629 l 1
 304 479 226 343 145 212 c 1
 375 212 l 1
 375 421 l 1
EndSplineSet
EndChar

StartChar: five
Encoding: 53 53 22
Width: 600
GlyphClass: 2
Flags: MW
HStem: -12 56<196 269.5 195 288.5> 356 56<255 299.5> 544 56<210 440 210 210>
VStem: 402 65<158.5 256>
LayerCount: 2
Fore
SplineSet
440 600 m 1
 440 544 l 1
 210 544 l 1
 198 407 l 1
 255 412 l 1
 376 412 467 341 467 214 c 0
 467 75 355 -12 222 -12 c 0
 170 -12 124 -1 76 17 c 1
 92 71 l 1
 135 54 171 44 219 44 c 0
 320 44 402 105 402 212 c 0
 402 300 343 356 256 356 c 0
 214 356 173 348 133 336 c 1
 154 600 l 1
 440 600 l 1
EndSplineSet
EndChar

StartChar: six
Encoding: 54 54 23
Width: 600
GlyphClass: 2
Flags: MW
HStem: -12 56<271 348.5 267.5 369> 335 56<287.5 355> 556 56<433 433>
VStem: 110 65<162.5 239 162.5 347.5> 440 65<152.5 226.5>
LayerCount: 2
Fore
SplineSet
433 612 m 1
 433 556 l 1
 284 557 212 473 180 335 c 1
 222 370 259 391 316 391 c 0
 428 391 505 301 505 192 c 0
 505 83 426 -12 312 -12 c 0
 230 -12 110 41 110 246 c 0
 110 449 214 616 433 612 c 1
440 190 m 0
 440 263 395 335 315 335 c 0
 239 335 175 278 175 200 c 0
 175 125 226 44 309 44 c 0
 388 44 440 115 440 190 c 0
EndSplineSet
EndChar

StartChar: seven
Encoding: 55 55 24
Width: 600
GlyphClass: 2
Flags: MW
HStem: -12 21G<164 231 164 164> 544 56<106 397 106 483>
VStem: 106 377<544 600 600 600>
LayerCount: 2
Fore
SplineSet
106 600 m 1
 483 600 l 1
 231 -12 l 1
 164 -12 l 1
 397 544 l 1
 106 544 l 1
 106 600 l 1
EndSplineSet
EndChar

StartChar: eight
Encoding: 56 56 25
Width: 600
GlyphClass: 2
Flags: MW
HStem: -12 56<266.5 333.5 266.5 352> 556 56<272.5 327.5>
VStem: 96 65<130.5 203> 118 65<435.5 498.5> 417 65<435.5 498.5 435.5 500> 439 65<130.5 203 112.5 204.5>
LayerCount: 2
Fore
SplineSet
439 166 m 0xe4
 439 243 366 276 300 284 c 1
 234 276 161 243 161 166 c 0
 161 95 233 44 300 44 c 0
 367 44 439 95 439 166 c 0xe4
300 -12 m 0
 196 -12 96 59 96 166 c 0xe4
 96 240 149 295 220 318 c 1
 162 347 118 402 118 469 c 0
 118 528 165 612 300 612 c 0
 435 612 482 528 482 469 c 0xd8
 482 402 438 347 380 318 c 1
 451 295 504 240 504 166 c 0
 504 59 404 -12 300 -12 c 0
300 556 m 0xd8
 245 556 183 532 183 468 c 0
 183 396 239 368 300 341 c 1
 361 368 417 396 417 468 c 0
 417 532 355 556 300 556 c 0xd8
EndSplineSet
EndChar

StartChar: nine
Encoding: 57 57 26
Width: 600
GlyphClass: 2
Flags: MW
HStem: -12 56 -9 21G<147 147> 210 56<257 322> 556 56<261 337 239 339>
VStem: 105 65<375.5 449 375.5 460.5> 430 65<375.5 449>
LayerCount: 2
Fore
SplineSet
147 -9 m 1x7c
 147 47 l 1
 198 42 l 2
 328 29 409 149 430 269 c 1
 389 233 350 210 294 210 c 0
 184 210 105 297 105 405 c 0
 105 516 181 612 297 612 c 0
 377 612 495 556 495 356 c 0
 495 171 403 -12 196 -12 c 0xbc
 180 -12 163 -10 147 -9 c 1x7c
300 556 m 0
 222 556 170 486 170 412 c 0
 170 339 214 266 300 266 c 0
 386 266 430 339 430 412 c 0
 430 486 378 556 300 556 c 0
EndSplineSet
EndChar

StartChar: colon
Encoding: 58 58 27
Width: 600
GlyphClass: 2
Flags: MW
HStem: -12 138<281 319> 288 138<281 319>
VStem: 230 140<37.5 76 337.5 376>
LayerCount: 2
Fore
SplineSet
230 57 m 0
 230 95 262 126 300 126 c 0
 338 126 370 95 370 57 c 0
 370 18 338 -12 300 -12 c 0
 262 -12 230 18 230 57 c 0
230 357 m 0
 230 395 262 426 300 426 c 0
 338 426 370 395 370 357 c 0
 370 318 338 288 300 288 c 0
 262 288 230 318 230 357 c 0
EndSplineSet
EndChar

StartChar: semicolon
Encoding: 59 59 28
Width: 600
GlyphClass: 2
Flags: MW
HStem: -10 21G -10 130 288 138<290 328>
VStem: 239 140<337.5 376>
LayerCount: 2
Fore
SplineSet
240 -98 m 1xb0
 240 -40 l 1
 262 -35 282 -26 298 -10 c 1
 265 -8 239 17 239 51 c 0
 239 91 268 120 308 120 c 0
 352 120 381 81 381 39 c 0x70
 381 -34 305 -84 240 -98 c 1xb0
239 357 m 0
 239 395 271 426 309 426 c 0
 347 426 379 395 379 357 c 0
 379 318 347 288 309 288 c 0
 271 288 239 318 239 357 c 0
EndSplineSet
EndChar

StartChar: less
Encoding: 60 60 29
Width: 600
GlyphClass: 2
Flags: MW
HStem: 0 21G<475 475>
VStem: 82 435<52 360>
LayerCount: 2
Fore
SplineSet
475 720 m 1
 517 668 l 1
 184 360 l 1
 517 52 l 1
 475 0 l 1
 82 360 l 1
 475 720 l 1
EndSplineSet
EndChar

StartChar: equal
Encoding: 61 61 30
Width: 600
GlyphClass: 2
Flags: MW
HStem: 268 66<25 575 25 575> 386 66<25 575 25 575>
VStem: 25 550<268 334 268 334 386 452 268 452>
LayerCount: 2
Fore
SplineSet
575 452 m 1
 575 386 l 1
 25 386 l 1
 25 452 l 1
 575 452 l 1
575 334 m 1
 575 268 l 1
 25 268 l 1
 25 334 l 1
 575 334 l 1
EndSplineSet
EndChar

StartChar: greater
Encoding: 62 62 31
Width: 600
GlyphClass: 2
Flags: MW
HStem: 0 21G<124 124>
VStem: 82 435<52 360 360 668>
LayerCount: 2
Fore
SplineSet
82 668 m 1
 124 720 l 1
 517 360 l 1
 124 0 l 1
 82 52 l 1
 415 360 l 1
 82 668 l 1
EndSplineSet
EndChar

StartChar: question
Encoding: 63 63 32
Width: 600
GlyphClass: 2
Flags: MW
HStem: -12 114<254.5 285.5 254.5 286> 556 56<260 309.5>
VStem: 118 67 211 118<29 61> 240 60<154 181 154 189 154 259.5> 369 64<416 488.5>
LayerCount: 2
Fore
SplineSet
300 154 m 1xec
 240 154 l 1
 240 189 l 2
 240 330 369 368 369 464 c 0
 369 513 335 556 284 556 c 0
 236 556 192 528 185 479 c 1
 189 469 191 458 191 447 c 0
 191 428 180 406 158 406 c 0
 125 406 118 434 118 461 c 0
 118 542 189 612 284 612 c 0
 360 612 433 554 433 471 c 0
 433 330 300 321 300 181 c 2
 300 154 l 1xec
211 45 m 0xf4
 211 77 239 102 270 102 c 0
 301 102 329 77 329 45 c 0
 329 13 302 -12 270 -12 c 0
 238 -12 211 13 211 45 c 0xf4
EndSplineSet
EndChar

StartChar: at
Encoding: 64 64 33
Width: 600
GlyphClass: 2
Flags: MW
HStem: -12 56<224.5 322> 149 56<252 276 410 451.5> 374 59<348 348> 556 56<281.5 366>
VStem: 36 65<188.5 332.5> 171 65<231 255.5 231 299> 498 65<331.5 416.5>
LayerCount: 2
Fore
SplineSet
489 115 m 1
 512 59 l 1
 444 16 363 -12 281 -12 c 0
 150 -12 36 80 36 250 c 0
 36 415 131 612 319 612 c 0
 463 612 563 502 563 360 c 0
 563 275 525 149 420 149 c 0
 382 149 369 163 343 190 c 1
 315 165 295 149 257 149 c 0
 207 149 171 184 171 239 c 0
 171 359 261 433 345 433 c 2
 419 433 l 1
 397 296 l 2
 395 284 389 258 389 246 c 0
 389 225 399 205 421 205 c 0
 482 205 498 309 498 354 c 0
 498 479 414 556 318 556 c 0
 245 556 101 484 101 250 c 0
 101 127 163 44 286 44 c 0
 362 44 426 76 489 115 c 1
334 308 m 2
 348 374 l 1
 323 369 295 368 278 348 c 0
 257 323 236 272 236 239 c 0
 236 223 243 205 261 205 c 0
 295 205 321 247 334 308 c 2
EndSplineSet
EndChar

StartChar: A
Encoding: 65 65 34
Width: 600
GlyphClass: 2
Flags: MW
HStem: 0 56<19 69 132 219 19 69 379 465 531 581> 185 56<198 397 198 417 179 397> 636 20G<296 296>
VStem: 19 200<0 56 0 56> 379 202<0 56 0 56>
LayerCount: 2
Fore
SplineSet
296 656 m 1
 531 56 l 1
 581 56 l 1
 581 0 l 1
 379 0 l 1
 379 56 l 1
 465 56 l 1
 417 185 l 1
 179 185 l 1
 132 56 l 1
 219 56 l 1
 219 0 l 1
 19 0 l 1
 19 56 l 1
 69 56 l 1
 296 656 l 1
397 241 m 1
 296 516 l 1
 198 241 l 1
 397 241 l 1
EndSplineSet
Substitution2: "'sups' Superscript in Latin lookup 6 subtable" ordfeminine
Substitution2: "'aalt' Access All Alternates in Latin lookup 0 subtable" ordfeminine
EndChar

StartChar: B
Encoding: 66 66 35
Width: 600
GlyphClass: 2
Flags: MW
HStem: -11 21G<71 71> 0 52 12 40 295 56<224 268 224 268 268 303> 536 64 544 56<314 358.5>
VStem: 162 62<58 295 58 351 351 532 532 532> 427 65<440 491> 477 65<129.5 199.5>
LayerCount: 2
Fore
SplineSet
224 295 m 1x5680
 224 58 l 1
 343 46 l 2
 424 38 477 92 477 167 c 0
 477 232 439 295 303 295 c 2
 224 295 l 1x5680
71 -11 m 1x9680
 57 36 l 1
 162 56 l 1
 162 532 l 1
 58 539 l 1x9a80
 58 600 l 1
 95 596 133 588 170 588 c 0
 226 588 281 600 337 600 c 0
 416 600 492 552 492 466 c 0x57
 492 414 458 361 412 335 c 1
 493 309 542 253 542 166 c 0
 542 54 467 0 370 0 c 0x5680
 315 0 259 12 204 12 c 0x3680
 157 12 109 -1 71 -11 c 1x9680
224 533 m 1x57
 224 351 l 1
 268 351 l 2
 391 351 427 409 427 463 c 0
 427 519 385 544 332 544 c 0
 296 544 259 539 224 533 c 1x57
EndSplineSet
EndChar

StartChar: C
Encoding: 67 67 36
Width: 600
GlyphClass: 2
Flags: MW
HStem: -12 56<271 364.5> 556 56<272 350.5 272 382> 592 20G<272 350.5 477 477>
VStem: 79 65<244.5 359 244.5 420.5> 461 56 468 62<159 206>
LayerCount: 2
Fore
SplineSet
464 578 m 1xd4
 477 612 l 1xd8
 533 594 l 1xb8
 519 561 513 525 515 489 c 2
 520 413 l 1
 461 403 l 1xd8
 457 495 434 556 330 556 c 0
 191 556 144 417 144 301 c 0
 144 188 194 44 328 44 c 0
 430 44 468 112 468 206 c 1
 530 206 l 1
 530 78 l 1
 474 24 404 -12 325 -12 c 0
 217 -12 79 71 79 306 c 0
 79 535 217 612 327 612 c 0
 374 612 423 599 464 578 c 1xd4
EndSplineSet
EndChar

StartChar: D
Encoding: 68 68 37
Width: 600
GlyphClass: 2
Flags: MW
HStem: -8 21G<51 51> 0 56<265.5 286 286 340> 540 60 553 47<45 47>
VStem: 124 62<56 536 56 536> 467 65<200 384>
LayerCount: 2
Fore
SplineSet
186 536 m 1x6c
 186 56 l 1
 286 56 l 2
 394 56 467 116 467 284 c 0
 467 484 346 554 258 544 c 2
 186 536 l 1x6c
154 4 m 2xac
 51 -8 l 1
 42 48 l 1xac
 124 56 l 1
 124 536 l 1x6c
 45 553 l 1x5c
 47 600 l 1
 79 596 110 588 142 588 c 0
 181 588 219 600 265 600 c 0
 410 600 532 506 532 296 c 0
 532 76 422 0 288 0 c 0x6c
 243 0 198 9 154 4 c 2xac
EndSplineSet
EndChar

StartChar: E
Encoding: 69 69 38
Width: 600
GlyphClass: 2
Flags: MW
HStem: 0 56<41 141 203 390 390 428 41 141> 299 56<203 340 203 340> 426 13 544 56<41 141 41 516 203 372 203 203>
VStem: 141 62<56 299 355 544> 340 62<205 299 299 299 355 439 205 439> 454 62<426 452 452 493.5> 473 62<176 195 0 195>
LayerCount: 2
Fore
SplineSet
372 544 m 2xfe
 203 544 l 1
 203 355 l 1
 340 355 l 1
 340 439 l 1
 402 439 l 1
 402 205 l 1
 340 205 l 1
 340 299 l 1
 203 299 l 1
 203 56 l 1
 390 56 l 2
 466 56 473 65 473 176 c 2
 473 195 l 1
 535 195 l 1
 535 0 l 1xfd
 41 0 l 1
 41 56 l 1
 141 56 l 1
 141 544 l 1
 41 544 l 1
 41 600 l 1
 516 600 l 1
 516 426 l 1
 454 426 l 1
 454 452 l 2
 454 535 451 544 372 544 c 2xfe
EndSplineSet
EndChar

StartChar: F
Encoding: 70 70 39
Width: 600
GlyphClass: 2
Flags: MW
HStem: 0 56<55 153 215 391 55 153> 283 56<215 352 215 352> 283 141<215 414 215 414> 544 56<55 153 55 528 215 383 215 215>
VStem: 153 62<56 283 339 544> 352 62<189 283 283 283 339 424 189 424> 466 62<426 452 452 492>
LayerCount: 2
Fore
SplineSet
55 600 m 1xbe
 528 600 l 1
 528 426 l 1
 466 426 l 1
 466 452 l 2
 466 532 462 544 383 544 c 2
 215 544 l 1
 215 339 l 1
 352 339 l 1xde
 352 424 l 1
 414 424 l 1
 414 189 l 1
 352 189 l 1
 352 283 l 1
 215 283 l 1
 215 56 l 1
 391 56 l 1
 391 0 l 1
 55 0 l 1
 55 56 l 1
 153 56 l 1
 153 544 l 1
 55 544 l 1
 55 600 l 1xbe
EndSplineSet
EndChar

StartChar: G
Encoding: 71 71 40
Width: 600
GlyphClass: 2
Flags: MW
HStem: -12 56<261 324.5 261 348.5> 205 56<321 454 321 577 516 516 516 577> 556 56<279 342.5 255 368.5>
VStem: 60 65<224.5 410.5 217.5 414> 449 54 454 62<184 205 79 205>
LayerCount: 2
Fore
SplineSet
453 574 m 1xf4
 467 613 l 1
 519 597 l 1
 509 564 503 530 503 496 c 0
 503 467 507 439 512 411 c 1
 449 402 l 1xf8
 442 493 422 556 315 556 c 0
 243 556 125 510 125 311 c 0
 125 124 220 44 302 44 c 0
 347 44 414 61 441 99 c 0
 457 121 454 157 454 184 c 2
 454 205 l 1
 321 205 l 1
 321 261 l 1
 577 261 l 1
 577 205 l 1
 516 205 l 1
 516 79 l 1
 463 27 386 -12 311 -12 c 0
 140 -12 60 149 60 300 c 0
 60 528 195 612 315 612 c 0
 370 612 405 598 453 574 c 1xf4
EndSplineSet
EndChar

StartChar: H
Encoding: 72 72 41
Width: 600
GlyphClass: 2
Flags: MW
HStem: 0 56<33 116 178 261 33 116 339 422 484 567> 280 56<178 422 178 422> 544 56<33 116 33 261 178 261 178 178 339 422 484 484 484 567>
VStem: 116 62<56 280 336 544> 422 62<56 280 280 280 336 544 56 544>
LayerCount: 2
Fore
SplineSet
33 600 m 1
 261 600 l 1
 261 544 l 1
 178 544 l 1
 178 336 l 1
 422 336 l 1
 422 544 l 1
 339 544 l 1
 339 600 l 1
 567 600 l 1
 567 544 l 1
 484 544 l 1
 484 56 l 1
 567 56 l 1
 567 0 l 1
 339 0 l 1
 339 56 l 1
 422 56 l 1
 422 280 l 1
 178 280 l 1
 178 56 l 1
 261 56 l 1
 261 0 l 1
 33 0 l 1
 33 56 l 1
 116 56 l 1
 116 544 l 1
 33 544 l 1
 33 600 l 1
EndSplineSet
EndChar

StartChar: I
Encoding: 73 73 42
Width: 600
GlyphClass: 2
Flags: MW
HStem: 0 56<109 269 331 491 109 269> 544 56<109 269 109 491 331 491 331 331>
VStem: 269 62<56 544 56 544>
LayerCount: 2
Fore
SplineSet
109 600 m 1
 491 600 l 1
 491 544 l 1
 331 544 l 1
 331 56 l 1
 491 56 l 1
 491 0 l 1
 109 0 l 1
 109 56 l 1
 269 56 l 1
 269 544 l 1
 109 544 l 1
 109 600 l 1
EndSplineSet
EndChar

StartChar: J
Encoding: 74 74 43
Width: 600
GlyphClass: 2
Flags: MW
HStem: -12 56<231 322.5 203.5 328.5> 544 56<252 377 252 541 439 541 439 439>
VStem: 70 62<140.5 176 176 201 140.5 201> 377 62<163 544>
LayerCount: 2
Fore
SplineSet
252 600 m 1
 541 600 l 1
 541 544 l 1
 439 544 l 1
 439 139 l 2
 439 28 395 -12 262 -12 c 0
 200 -12 134 5 70 43 c 1
 70 201 l 1
 132 201 l 1
 132 176 l 2
 132 105 134 44 273 44 c 0
 372 44 377 80 377 163 c 2
 377 544 l 1
 252 544 l 1
 252 600 l 1
EndSplineSet
EndChar

StartChar: K
Encoding: 75 75 44
Width: 600
GlyphClass: 2
Flags: MW
HStem: 0 56<33 114 176 257 33 114 361 421 501 590> 544 56<33 114 33 257 176 257 176 176 339 412 482 482 482 562>
VStem: 114 62<56 268 324 544> 339 223<544 600 544 600> 361 229<0 56 0 56>
LayerCount: 2
Fore
SplineSet
33 600 m 1xe8
 257 600 l 1
 257 544 l 1
 176 544 l 1
 176 324 l 1
 239 335 335 423 412 544 c 1
 339 544 l 1
 339 600 l 1
 562 600 l 1
 562 544 l 1
 482 544 l 1xf0
 431 460 370 377 290 318 c 1
 501 56 l 1
 590 56 l 1
 590 0 l 1
 361 0 l 1
 361 56 l 1
 421 56 l 1
 235 287 l 1
 217 277 197 271 176 268 c 1
 176 56 l 1
 257 56 l 1
 257 0 l 1
 33 0 l 1
 33 56 l 1
 114 56 l 1
 114 544 l 1
 33 544 l 1
 33 600 l 1xe8
EndSplineSet
EndChar

StartChar: L
Encoding: 76 76 45
Width: 600
GlyphClass: 2
Flags: MW
HStem: 0 56<44 152 214 372 372 427 44 152> 544 56<44 152 44 327 214 327 214 214>
VStem: 152 62<56 544 56 544> 479 62<182 210 0 210>
LayerCount: 2
Fore
SplineSet
44 600 m 1
 327 600 l 1
 327 544 l 1
 214 544 l 1
 214 56 l 1
 372 56 l 2
 482 56 479 75 479 182 c 2
 479 210 l 1
 541 210 l 1
 541 0 l 1
 44 0 l 1
 44 56 l 1
 152 56 l 1
 152 544 l 1
 44 544 l 1
 44 600 l 1
EndSplineSet
EndChar

StartChar: M
Encoding: 77 77 46
Width: 600
GlyphClass: 2
Flags: MW
HStem: 0 56<20 90 152 235 20 90 366 448 510 580> 544 56<20 90 20 163 510 580 510 510>
VStem: 90 62<56 482 56 544> 448 62<56 482 482 482>
LayerCount: 2
Fore
SplineSet
20 600 m 1
 163 600 l 1
 300 301 l 1
 437 600 l 1
 580 600 l 1
 580 544 l 1
 510 544 l 1
 510 56 l 1
 580 56 l 1
 580 0 l 1
 366 0 l 1
 366 56 l 1
 448 56 l 1
 448 482 l 1
 446 482 l 1
 300 161 l 1
 154 482 l 1
 152 482 l 1
 152 56 l 1
 235 56 l 1
 235 0 l 1
 20 0 l 1
 20 56 l 1
 90 56 l 1
 90 544 l 1
 20 544 l 1
 20 600 l 1
EndSplineSet
EndChar

StartChar: N
Encoding: 78 78 47
Width: 600
GlyphClass: 2
Flags: MW
HStem: 0 56<26 100 162 254 26 100> 544 56<26 100 26 169 354 448 510 510 510 573>
VStem: 100 62<56 491 56 544 56 544> 448 62<115 544 0 544>
LayerCount: 2
Fore
SplineSet
26 600 m 1
 169 600 l 1
 446 115 l 1
 448 115 l 1
 448 544 l 1
 354 544 l 1
 354 600 l 1
 573 600 l 1
 573 544 l 1
 510 544 l 1
 510 0 l 1
 446 0 l 1
 162 491 l 1
 162 56 l 1
 254 56 l 1
 254 0 l 1
 26 0 l 1
 26 56 l 1
 100 56 l 1
 100 544 l 1
 26 544 l 1
 26 600 l 1
EndSplineSet
EndChar

StartChar: O
Encoding: 79 79 48
Width: 600
GlyphClass: 2
Flags: MW
HStem: -12 56<235.5 364.5 235.5 383> 556 56<235.5 364.5>
VStem: 60 65<243 357 243 376> 475 65<243 357>
LayerCount: 2
Fore
SplineSet
300 612 m 0
 466 612 540 452 540 300 c 0
 540 148 466 -12 300 -12 c 0
 134 -12 60 148 60 300 c 0
 60 452 134 612 300 612 c 0
300 44 m 0
 429 44 475 186 475 300 c 0
 475 414 429 556 300 556 c 0
 171 556 125 414 125 300 c 0
 125 186 171 44 300 44 c 0
EndSplineSet
Substitution2: "'sups' Superscript in Latin lookup 6 subtable" ordmasculine
Substitution2: "'aalt' Access All Alternates in Latin lookup 0 subtable" ordmasculine
EndChar

StartChar: P
Encoding: 80 80 49
Width: 600
GlyphClass: 2
Flags: MW
HStem: 0 56<72 155 217 367 72 155> 256 56 547 53 554 46<318.5 370>
VStem: 155 62<56 257 313 542> 458 65<400 479.5>
LayerCount: 2
Fore
SplineSet
72 552 m 1xec
 72 600 l 1
 107 596 141 588 176 588 c 0
 233 588 290 600 347 600 c 0xdc
 442 600 523 555 523 443 c 0
 523 330 448 252 302 255 c 2
 217 257 l 1
 217 56 l 1
 367 56 l 1
 367 0 l 1
 72 0 l 1
 72 56 l 1
 155 56 l 1
 155 542 l 1
 72 552 l 1xec
217 313 m 1
 300 311 l 2
 407 308 458 358 458 442 c 0
 458 517 405 554 335 554 c 0
 295 554 256 546 217 542 c 1
 217 313 l 1
EndSplineSet
EndChar

StartChar: Q
Encoding: 81 81 50
Width: 600
GlyphClass: 2
Flags: MW
HStem: -87 56<465 575 503 575 503 575> -12 56<235.5 312 235.5 314.5> 556 56<235.5 364.5>
VStem: 60 65<243 357 243 376> 475 65<261.5 357>
LayerCount: 2
Fore
SplineSet
367 60 m 1
 286 181 l 1
 333 219 l 1
 415 97 l 1
 460 161 475 223 475 300 c 0
 475 414 429 556 300 556 c 0
 171 556 125 414 125 300 c 0
 125 186 171 44 300 44 c 0
 324 44 344 49 367 60 c 1
465 -87 m 1
 399 12 l 1
 366 -4 329 -12 300 -12 c 0
 134 -12 60 148 60 300 c 0
 60 452 134 612 300 612 c 0
 466 612 540 452 540 300 c 0
 540 205 519 130 450 47 c 1
 503 -31 l 1
 575 -31 l 1
 575 -87 l 1
 465 -87 l 1
EndSplineSet
EndChar

StartChar: R
Encoding: 82 82 51
Width: 600
GlyphClass: 2
Flags: MW
HStem: 0 56<44 126 188 283 44 126 505 577> 273 53<240 240 240 285 188 240> 544 56<274.5 326>
VStem: 126 62<56 273 327 537> 416 65<405.5 476>
LayerCount: 2
Fore
SplineSet
188 537 m 1
 188 327 l 1
 240 326 l 2
 367 324 416 373 416 438 c 0
 416 514 361 544 291 544 c 0
 258 544 224 541 188 537 c 1
351 283 m 1
 505 56 l 1
 577 56 l 1
 577 0 l 1
 467 0 l 1
 285 273 l 1
 188 273 l 1
 188 56 l 1
 283 56 l 1
 283 0 l 1
 44 0 l 1
 44 56 l 1
 126 56 l 1
 126 537 l 1
 44 547 l 1
 44 600 l 1
 75 593 102 588 136 588 c 0
 187 588 239 600 290 600 c 0
 389 600 481 555 481 445 c 0
 481 360 430 306 351 283 c 1
EndSplineSet
EndChar

StartChar: S
Encoding: 83 83 52
Width: 600
GlyphClass: 2
Flags: MW
HStem: -12 56<274.5 336.5 260.5 358.5> -5 21G<99 99> 556 56<283.5 331 264.5 333.5>
VStem: 99 63<-5 24> 104 56 114 65<373.5 492 373.5 504> 429 58 431 61<417 426> 437 65<113 240>
LayerCount: 2
Fore
SplineSet
114 450 m 0xa480
 114 558 216 612 313 612 c 0
 349 612 394 603 426 586 c 1
 432 625 l 1xa6
 492 614 l 1
 483 514 l 2
 480 484 486 455 492 426 c 1
 431 417 l 1
 429 445 430 485 417 510 c 0xa5
 398 545 356 556 311 556 c 0
 256 556 179 530 179 454 c 0xa480
 179 293 502 381 502 157 c 0
 502 56 415 -12 302 -12 c 0
 247 -12 210 -1 162 24 c 1
 159 -13 l 1xa880
 99 -5 l 1x7080
 109 101 l 2
 112 131 105 161 99 190 c 1
 159 199 l 1
 165 151 l 2xb080
 174 80 214 44 307 44 c 0
 366 44 437 75 437 151 c 0
 437 329 114 231 114 450 c 0xa480
EndSplineSet
EndChar

StartChar: T
Encoding: 84 84 53
Width: 600
GlyphClass: 2
Flags: MW
HStem: 0 56<138 269 331 462 138 269> 544 56<153.5 188 188 269 331 412 331 331>
VStem: 51 62<389 465 389 600> 269 62<56 544 56 544> 487 62<389 465 465 500>
CounterMasks: 1 38
LayerCount: 2
Fore
SplineSet
51 600 m 1
 549 600 l 1
 549 389 l 1
 487 389 l 1
 487 465 l 2
 487 535 481 544 412 544 c 2
 331 544 l 1
 331 56 l 1
 462 56 l 1
 462 0 l 1
 138 0 l 1
 138 56 l 1
 269 56 l 1
 269 544 l 1
 188 544 l 2
 119 544 113 535 113 465 c 2
 113 389 l 1
 51 389 l 1
 51 600 l 1
EndSplineSet
EndChar

StartChar: U
Encoding: 85 85 54
Width: 600
GlyphClass: 2
Flags: MW
HStem: -12 56<259 341 259 362.5> 544 56<44 111 44 247 173 173 173 247 353 427 489 556 489 489>
VStem: 111 62<175 184 184 544> 427 62<184 544>
LayerCount: 2
Fore
SplineSet
353 600 m 1
 556 600 l 1
 556 544 l 1
 489 544 l 1
 489 175 l 2
 489 45 425 -12 300 -12 c 0
 175 -12 111 45 111 175 c 2
 111 544 l 1
 44 544 l 1
 44 600 l 1
 247 600 l 1
 247 544 l 1
 173 544 l 1
 173 184 l 2
 173 76 218 44 300 44 c 0
 382 44 427 76 427 184 c 2
 427 544 l 1
 353 544 l 1
 353 600 l 1
EndSplineSet
EndChar

StartChar: V
Encoding: 86 86 55
Width: 600
GlyphClass: 2
Flags: MW
HStem: -12 21G<262 337 262 262> -12 88<300 300 300 337 262 300> 544 56<28 92 28 237 154 237 154 154 363 445 508 508 508 572>
VStem: 28 209<544 600 544 600> 363 209<544 600 544 600>
LayerCount: 2
Fore
SplineSet
28 600 m 1xb8
 237 600 l 1
 237 544 l 1
 154 544 l 1
 300 76 l 1x78
 445 544 l 1
 363 544 l 1
 363 600 l 1
 572 600 l 1
 572 544 l 1
 508 544 l 1
 337 -12 l 1
 262 -12 l 1
 92 544 l 1
 28 544 l 1
 28 600 l 1xb8
EndSplineSet
EndChar

StartChar: W
Encoding: 87 87 56
Width: 600
GlyphClass: 2
Flags: MW
HStem: -12 21G<145 205 145 145 395 455 395 395> -12 122<187 189 187 205 145 189 411 413> 401 20G<300 300> 544 56<21 64 21 202 124 202 124 124 398 476 536 536 536 579>
VStem: 21 181<544 600 544 600> 398 181<544 600 544 600>
LayerCount: 2
Fore
SplineSet
21 600 m 1xbc
 202 600 l 1
 202 544 l 1
 124 544 l 1
 187 110 l 1
 189 110 l 1
 300 421 l 1
 411 110 l 1
 413 110 l 1x7c
 476 544 l 1
 398 544 l 1
 398 600 l 1
 579 600 l 1
 579 544 l 1
 536 544 l 1
 455 -12 l 1
 395 -12 l 1
 300 249 l 1
 205 -12 l 1
 145 -12 l 1
 64 544 l 1
 21 544 l 1
 21 600 l 1xbc
EndSplineSet
EndChar

StartChar: X
Encoding: 88 88 57
Width: 600
GlyphClass: 2
Flags: MW
HStem: 0 56<29 94 164 253 29 94 347 436 506 571> 544 56<53 113 53 253 181 181 181 253 348 420 487 487 487 547>
VStem: 29 224<0 56 0 56> 53 200<544 600> 347 224<0 56 0 56> 348 199<544 600 544 600>
LayerCount: 2
Fore
SplineSet
300 359 m 1xd4
 420 544 l 1
 348 544 l 1
 348 600 l 1
 547 600 l 1
 547 544 l 1
 487 544 l 1xd4
 336 310 l 1
 506 56 l 1
 571 56 l 1
 571 0 l 1
 347 0 l 1
 347 56 l 1
 436 56 l 1
 300 258 l 1
 164 56 l 1
 253 56 l 1
 253 0 l 1
 29 0 l 1
 29 56 l 1
 94 56 l 1xe8
 264 310 l 1
 113 544 l 1
 53 544 l 1
 53 600 l 1
 253 600 l 1
 253 544 l 1
 181 544 l 1
 300 359 l 1xd4
EndSplineSet
EndChar

StartChar: Y
Encoding: 89 89 58
Width: 600
GlyphClass: 2
Flags: MW
HStem: 0 56<138 269 331 462 138 269> 544 56<31 93 31 243 161 243 161 161 357 439 507 507 507 569>
VStem: 31 212<544 600 544 600> 269 62<56 260 56 260> 357 212<544 600 544 600>
LayerCount: 2
Fore
SplineSet
31 600 m 1
 243 600 l 1
 243 544 l 1
 161 544 l 1
 300 318 l 1
 439 544 l 1
 357 544 l 1
 357 600 l 1
 569 600 l 1
 569 544 l 1
 507 544 l 1
 331 260 l 1
 331 56 l 1
 462 56 l 1
 462 0 l 1
 138 0 l 1
 138 56 l 1
 269 56 l 1
 269 260 l 1
 93 544 l 1
 31 544 l 1
 31 600 l 1
EndSplineSet
EndChar

StartChar: Z
Encoding: 90 90 59
Width: 600
GlyphClass: 2
Flags: MW
HStem: 0 56<152 381 381 418 152 525> 544 56<196 233 233 416>
VStem: 89 62<405 432 405 600> 463 62<168 195 0 195>
LayerCount: 2
Fore
SplineSet
491 600 m 1
 491 552 l 1
 152 56 l 1
 381 56 l 2
 455 56 463 65 463 168 c 2
 463 195 l 1
 525 195 l 1
 525 0 l 1
 76 0 l 1
 76 48 l 1
 416 544 l 1
 233 544 l 2
 159 544 151 533 151 432 c 2
 151 405 l 1
 89 405 l 1
 89 600 l 1
 491 600 l 1
EndSplineSet
EndChar

StartChar: bracketleft
Encoding: 91 91 60
Width: 600
GlyphClass: 2
Flags: MW
HStem: -109 56<344 489 344 489> 647 56<344 489 344 344>
VStem: 282 62<-53 647 -53 703 -53 703>
LayerCount: 2
Fore
SplineSet
489 703 m 1
 489 647 l 1
 344 647 l 1
 344 -53 l 1
 489 -53 l 1
 489 -109 l 1
 282 -109 l 1
 282 703 l 1
 489 703 l 1
EndSplineSet
EndChar

StartChar: backslash
Encoding: 92 92 61
Width: 600
GlyphClass: 2
Flags: MW
HStem: -27 774<112 413 112 488>
VStem: 112 376
LayerCount: 2
Fore
SplineSet
413 -27 m 1
 112 747 l 1
 187 747 l 1
 488 -27 l 1
 413 -27 l 1
EndSplineSet
EndChar

StartChar: bracketright
Encoding: 93 93 62
Width: 600
GlyphClass: 2
Flags: MW
HStem: -109 56<111 256 111 318 111 256> 647 56<111 318 111 256>
VStem: 256 62<-53 647 647 647>
LayerCount: 2
Fore
SplineSet
111 647 m 1
 111 703 l 1
 318 703 l 1
 318 -109 l 1
 111 -109 l 1
 111 -53 l 1
 256 -53 l 1
 256 647 l 1
 111 647 l 1
EndSplineSet
EndChar

StartChar: asciicircum
Encoding: 94 94 63
Width: 600
GlyphClass: 2
Flags: MW
HStem: 357 323<103 333 103 333 267 423 267 497>
VStem: 103 394<357 357>
LayerCount: 2
Fore
SplineSet
177 357 m 1
 103 357 l 1
 267 680 l 1
 333 680 l 1
 497 357 l 1
 423 357 l 1
 300 599 l 1
 177 357 l 1
EndSplineSet
EndChar

StartChar: underscore
Encoding: 95 95 64
Width: 600
GlyphClass: 2
Flags: MW
HStem: -108 36<0 600 0 600>
VStem: 0 600<-108 -72 -108 -72>
LayerCount: 2
Fore
SplineSet
600 -108 m 1
 0 -108 l 1
 0 -72 l 1
 600 -72 l 1
 600 -108 l 1
EndSplineSet
EndChar

StartChar: grave
Encoding: 96 96 65
Width: 600
GlyphClass: 2
Flags: MW
HStem: 579 20G<143 143>
VStem: 143 239<509 599>
LayerCount: 2
Fore
SplineSet
194 660 m 1
 382 509 l 1
 346 465 l 1
 143 599 l 1
 194 660 l 1
EndSplineSet
EndChar

StartChar: a
Encoding: 97 97 66
Width: 600
GlyphClass: 2
Flags: MW
HStem: -12 56<196 245> 0 56<457 540 457 540> 197 53<395 395> 370 56<303 366>
VStem: 73 65<79.5 128 79.5 144> 124 62<272 331 272 368 272 368> 395 62<0 301 30 301 93 197 197 197 250 276 276 301 56 304.5>
LayerCount: 2
Fore
SplineSet
395 0 m 1x76
 395 30 l 1
 335 5 277 -12 213 -12 c 0
 140 -12 73 22 73 103 c 0xba
 73 185 136 214 205 230 c 0
 267 245 328 248 395 250 c 1
 395 276 l 2
 395 333 404 370 328 370 c 0
 278 370 228 359 186 331 c 1
 186 272 l 1
 124 272 l 1
 124 368 l 1
 182 403 254 426 319 426 c 0
 421 426 457 399 457 301 c 2
 457 56 l 1
 540 56 l 1
 540 0 l 1
 395 0 l 1x76
395 93 m 1
 395 197 l 1
 338 195 276 190 222 177 c 0
 181 167 138 153 138 103 c 0
 138 56 176 44 216 44 c 0
 278 44 339 67 395 93 c 1
EndSplineSet
Substitution2: "Single Substitution lookup 9 subtable" ordfeminine
Substitution2: "'sups' Superscript in Latin lookup 6 subtable" ordfeminine
Substitution2: "'aalt' Access All Alternates in Latin lookup 0 subtable" ordfeminine
EndChar

StartChar: b
Encoding: 98 98 67
Width: 600
GlyphClass: 2
Flags: MW
HStem: -12 56<276 343.5 276 363> 0 21G<96 96> 370 56<287 355.5> 559 51<27 36> 590 20G<27 27> 636 20G<152.5 173.5>
VStem: 126 62<86 327 395 571 571 571> 447 65<160 248>
LayerCount: 2
Fore
SplineSet
188 327 m 1xaf
 188 86 l 1
 214 57 257 44 295 44 c 0
 392 44 447 113 447 207 c 0
 447 289 401 370 310 370 c 0
 264 370 224 356 188 327 c 1xaf
188 606 m 2
 188 395 l 1
 231 414 263 426 310 426 c 0
 434 426 512 331 512 212 c 0
 512 85 428 -12 298 -12 c 0
 254 -12 216 1 180 24 c 1
 172 6 160 -10 148 -26 c 1xaf
 96 0 l 1
 121 35 126 36 126 78 c 2
 126 571 l 1
 36 559 l 1x77
 27 610 l 1
 59 616 109 612 132 639 c 0
 140 648 146 656 159 656 c 0
 188 656 188 628 188 606 c 2
EndSplineSet
EndChar

StartChar: c
Encoding: 99 99 68
Width: 600
GlyphClass: 2
Flags: MW
HStem: -12 56<267.5 345.5 267.5 347> 370 56<263.5 341.5>
VStem: 86 65<160.5 256.5 160.5 269> 406 62
LayerCount: 2
Fore
SplineSet
487 88 m 1
 509 37 l 1
 452 6 379 -12 315 -12 c 0
 188 -12 86 72 86 203 c 0
 86 335 185 426 315 426 c 0
 370 426 440 409 468 356 c 1
 466 306 l 1
 469 255 l 1
 405 255 l 1
 406 283 l 2
 408 348 373 370 310 370 c 0
 217 370 151 303 151 210 c 0
 151 111 218 44 317 44 c 0
 374 44 436 62 487 88 c 1
EndSplineSet
EndChar

StartChar: d
Encoding: 100 100 69
Width: 600
GlyphClass: 2
Flags: MW
HStem: -12 56<244 304> 0 56<455 533 455 533> 370 56<249 300.5 223 314> 559 51<294 303> 590 20G<294 294> 636 20G<419.5 440.5>
VStem: 80 65<162.5 248.5 162.5 261> 393 62<0 606 16 606 80 342 342 342 405 571 571 571>
LayerCount: 2
Fore
SplineSet
393 80 m 1xaf
 393 342 l 1
 364 359 331 370 297 370 c 0
 201 370 145 294 145 203 c 0
 145 122 201 44 287 44 c 0
 325 44 363 58 393 80 c 1xaf
393 0 m 1x6f
 393 16 l 1
 355 0 325 -12 283 -12 c 0
 165 -12 80 90 80 204 c 0
 80 318 163 426 283 426 c 0
 318 426 359 415 393 405 c 1
 393 571 l 1
 303 559 l 1xb7
 294 610 l 1
 326 616 376 612 399 639 c 0
 407 648 413 656 426 656 c 0
 455 656 455 628 455 606 c 2
 455 56 l 1
 533 56 l 1
 533 0 l 1
 393 0 l 1x6f
EndSplineSet
EndChar

StartChar: e
Encoding: 101 101 70
Width: 600
GlyphClass: 2
Flags: MW
HStem: -12 56<279.5 360> 183 56<152 451 152 510 152 451> 370 56<273 348.5>
VStem: 87 65<183 183 183 239 183 262> 451 63<239 278>
LayerCount: 2
Fore
SplineSet
510 183 m 1
 152 183 l 1
 158 96 226 44 333 44 c 0
 396 44 456 64 518 91 c 1
 536 40 l 1
 473 9 395 -12 325 -12 c 0
 144 -12 87 108 87 198 c 0
 87 326 181 426 310 426 c 0
 433 426 514 349 514 225 c 0
 514 211 513 197 510 183 c 1
152 239 m 1
 451 239 l 1
 451 317 386 370 311 370 c 0
 235 370 167 314 152 239 c 1
EndSplineSet
EndChar

StartChar: f
Encoding: 102 102 71
Width: 600
GlyphClass: 2
Flags: MW
HStem: 0 56<109 226 288 465 109 226> 358 56<79 226 79 226 288 487> 567 56<324 387.5>
VStem: 226 62<56 358 56 358 414 469>
LayerCount: 2
Fore
SplineSet
487 414 m 1
 487 358 l 1
 288 358 l 1
 288 56 l 1
 465 56 l 1
 465 0 l 1
 109 0 l 1
 109 56 l 1
 226 56 l 1
 226 358 l 1
 79 358 l 1
 79 414 l 1
 226 414 l 1
 226 473 l 2
 226 585 267 623 359 623 c 0
 429 623 511 600 569 562 c 1
 530 513 l 1
 480 549 417 567 358 567 c 0
 290 567 288 521 288 469 c 2
 288 414 l 1
 487 414 l 1
EndSplineSet
EndChar

StartChar: g
Encoding: 103 103 72
Width: 600
GlyphClass: 2
Flags: MW
HStem: -208 56<269 324 269 347> 0 56<249 392 223 402> 110 56<283 318.5 252 331> 358 56<418 491 418 418> 370 44<252.5 491> 370 56<252.5 280.5 224 313>
VStem: 88 64<-119.5 -70> 108 65<236 300.5 236 308> 134 65<59.5 69 59.5 72> 383 65<236.5 285 216.5 295.5> 479 65<-99.5 -31.5>
LayerCount: 2
Fore
SplineSet
347 414 m 1xf160
 491 414 l 1
 491 358 l 1
 418 358 l 1
 438 327 448 304 448 266 c 0
 448 167 379 110 283 110 c 1
 249 113 l 1
 237 107 199 75 199 63 c 0
 199 56 234 56 249 56 c 2xf0e0
 402 56 l 2
 491 56 544 21 544 -52 c 0
 544 -179 397 -208 297 -208 c 0
 219 -208 88 -197 88 -92 c 0xf260
 88 -48 118 -7 155 16 c 1
 145 23 134 36 134 58 c 0xf0e0
 134 86 164 111 188 133 c 1
 136 164 108 203 108 265 c 0
 108 351 181 426 267 426 c 0xe560
 294 426 321 421 347 414 c 1xf160
383 265 m 0xe960
 383 326 344 370 282 370 c 0
 223 370 173 331 173 270 c 0
 173 202 219 166 285 166 c 0
 352 166 383 208 383 265 c 0xe960
392 0 m 2
 223 0 l 1
 191 -22 152 -46 152 -89 c 0xf260
 152 -150 247 -152 291 -152 c 0
 357 -152 479 -140 479 -59 c 0
 479 -4 436 0 392 0 c 2
EndSplineSet
EndChar

StartChar: h
Encoding: 104 104 73
Width: 600
GlyphClass: 2
Flags: MW
HStem: 0 56<52 120 182 250 52 120 351 419 481 549> 370 56<312.5 365 312 382> 559 51<21 30> 590 20G<21 21> 636 20G<146.5 167.5>
VStem: 120 62<56 314 378 571 571 571> 419 62<56 241 241 243 56 271.5>
LayerCount: 2
Fore
SplineSet
182 606 m 2xde
 182 378 l 1
 233 402 283 426 341 426 c 0
 389 426 441 408 464 363 c 0
 482 328 481 282 481 243 c 2
 481 56 l 1
 549 56 l 1
 549 0 l 1
 351 0 l 1
 351 56 l 1
 419 56 l 1
 419 241 l 2
 419 302 423 370 341 370 c 0
 284 370 229 343 182 314 c 1
 182 56 l 1
 250 56 l 1
 250 0 l 1
 52 0 l 1
 52 56 l 1
 120 56 l 1
 120 571 l 1
 30 559 l 1xee
 21 610 l 1
 53 616 103 612 126 639 c 0
 134 648 140 656 153 656 c 0
 182 656 182 628 182 606 c 2xde
EndSplineSet
EndChar

StartChar: i
Encoding: 105 105 74
Width: 600
GlyphClass: 2
Flags: MW
HStem: 0 56<102 301 102 301 363 539> 346 54<194 198> 517 125<304.5 339>
VStem: 257 129<561.5 597> 301 62<56 356 356 356>
LayerCount: 2
Fore
SplineSet
102 0 m 1xc8
 102 56 l 1
 301 56 l 1
 301 356 l 1
 267 350 233 344 198 346 c 2
 113 351 l 1
 103 406 l 1
 194 400 l 2
 225 398 284 402 306 428 c 0
 314 437 320 443 333 443 c 0
 364 443 363 413 363 391 c 2
 363 56 l 1
 539 56 l 1
 539 0 l 1
 102 0 l 1xc8
386 579 m 0xf0
 386 544 356 517 322 517 c 0
 287 517 257 544 257 579 c 0
 257 615 287 642 322 642 c 0
 356 642 386 615 386 579 c 0xf0
EndSplineSet
EndChar

StartChar: j
Encoding: 106 106 75
Width: 600
GlyphClass: 2
Flags: MW
HStem: -208 56<236.5 297.5> 346 54<235 239> 517 125<357.5 392>
VStem: 310 129<561.5 597> 342 62<-18.5 3 3 356 356 356>
LayerCount: 2
Fore
SplineSet
404 391 m 2xc8
 404 3 l 2
 404 -40 406 -90 393 -131 c 0
 376 -186 325 -208 270 -208 c 0
 199 -208 120 -188 60 -148 c 1
 100 -98 l 1
 149 -131 207 -152 266 -152 c 0
 350 -152 342 -80 342 -19 c 2
 342 356 l 1
 308 350 274 344 239 346 c 2
 154 351 l 1
 144 406 l 1
 235 400 l 2
 266 398 325 402 347 428 c 0
 355 437 361 443 374 443 c 0
 405 443 404 413 404 391 c 2xc8
439 579 m 0xf0
 439 544 409 517 375 517 c 0
 340 517 310 544 310 579 c 0
 310 615 340 642 375 642 c 0
 409 642 439 615 439 579 c 0xf0
EndSplineSet
EndChar

StartChar: k
Encoding: 107 107 76
Width: 600
GlyphClass: 2
Flags: MW
HStem: 0 56<34 129 191 266 34 129 364 409 483 560> 358 56<318 360 318 512 441 441 441 512> 559 51<30 39> 590 20G<30 30> 636 20G<155.5 176.5>
VStem: 129 62<56 133 203 571 571 571> 318 194<358 414 358 414> 364 196<0 56 0 56>
LayerCount: 2
Fore
SplineSet
191 606 m 2xdc
 191 203 l 1
 360 358 l 1
 318 358 l 1
 318 414 l 1
 512 414 l 1
 512 358 l 1
 441 358 l 1xde
 327 250 l 1
 483 56 l 1
 560 56 l 1
 560 0 l 1
 364 0 l 1
 364 56 l 1
 409 56 l 1
 284 212 l 1
 191 133 l 1
 191 56 l 1
 266 56 l 1
 266 0 l 1
 34 0 l 1
 34 56 l 1
 129 56 l 1
 129 571 l 1
 39 559 l 1xed
 30 610 l 1
 62 616 112 612 135 639 c 0
 143 648 149 656 162 656 c 0
 191 656 191 628 191 606 c 2xdc
EndSplineSet
EndChar

StartChar: l
Encoding: 108 108 77
Width: 600
GlyphClass: 2
Flags: MW
HStem: 0 56<90 277 339 506 90 277> 559 54<174 174> 636 20G<302.5 324.5>
VStem: 277 62<56 569 569 569>
LayerCount: 2
Fore
SplineSet
339 604 m 2
 339 56 l 1
 506 56 l 1
 506 0 l 1
 90 0 l 1
 90 56 l 1
 277 56 l 1
 277 569 l 1
 243 563 209 560 174 559 c 2
 116 557 l 1
 106 612 l 1
 170 613 l 2
 201 613 260 615 282 641 c 0
 290 650 296 656 309 656 c 0
 340 656 339 626 339 604 c 2
EndSplineSet
EndChar

StartChar: m
Encoding: 109 109 78
Width: 600
GlyphClass: 2
Flags: MW
HStem: 0 56<31 91 153 194 31 91 237 278 340 381 424 465 527 587> 353 46 370 56<228 260.5 228 262 414 449.5>
VStem: 91 62<56 328 56 358 56 358> 278 62<56 288 288 301> 465 62<56 288 56 303>
CounterMasks: 1 1c
LayerCount: 2
Fore
SplineSet
153 328 m 1xbc
 153 56 l 1
 194 56 l 1
 194 0 l 1
 31 0 l 1
 31 56 l 1
 91 56 l 1
 91 358 l 1
 18 348 l 1
 9 399 l 1
 41 401 74 405 97 426 c 0
 105 435 111 443 124 443 c 0xdc
 153 443 153 415 153 393 c 1
 181 411 211 426 245 426 c 0
 276 426 305 412 320 385 c 1
 353 410 393 426 435 426 c 0
 474 426 510 405 520 366 c 0
 527 341 527 314 527 288 c 2
 527 56 l 1
 587 56 l 1
 587 0 l 1
 424 0 l 1
 424 56 l 1
 465 56 l 1
 465 288 l 2
 465 318 471 370 428 370 c 0
 397 370 363 348 340 328 c 1
 340 56 l 1
 381 56 l 1
 381 0 l 1
 237 0 l 1
 237 56 l 1
 278 56 l 1
 278 288 l 2
 278 314 281 370 243 370 c 0
 210 370 178 347 153 328 c 1xbc
EndSplineSet
EndChar

StartChar: n
Encoding: 110 110 79
Width: 600
GlyphClass: 2
Flags: MW
HStem: 0 56<52 120 182 250 52 120 351 419 481 549> 353 46 370 56<312.5 365 312 382>
VStem: 120 62<56 314 56 358 56 358> 419 62<56 241 241 243 56 271.5>
LayerCount: 2
Fore
SplineSet
182 314 m 1xb8
 182 56 l 1
 250 56 l 1
 250 0 l 1
 52 0 l 1
 52 56 l 1
 120 56 l 1
 120 358 l 1
 47 348 l 1
 38 399 l 1
 70 401 103 405 126 426 c 0
 134 435 140 443 153 443 c 0
 182 443 182 415 182 393 c 2xd8
 182 378 l 1
 233 402 283 426 341 426 c 0
 389 426 441 408 464 363 c 0
 482 328 481 282 481 243 c 2
 481 56 l 1
 549 56 l 1
 549 0 l 1
 351 0 l 1
 351 56 l 1
 419 56 l 1
 419 241 l 2
 419 302 423 370 341 370 c 0
 284 370 229 343 182 314 c 1xb8
EndSplineSet
EndChar

StartChar: o
Encoding: 111 111 80
Width: 600
GlyphClass: 2
Flags: MW
HStem: -12 56<254 346 254 362> 370 56<254 346>
VStem: 82 65<163 251.5 163 269> 453 65<163 251.5>
LayerCount: 2
Fore
SplineSet
300 -12 m 0
 176 -12 82 84 82 207 c 0
 82 331 176 426 300 426 c 0
 424 426 518 331 518 207 c 0
 518 84 424 -12 300 -12 c 0
300 44 m 0
 392 44 453 119 453 207 c 0
 453 296 392 370 300 370 c 0
 208 370 147 296 147 207 c 0
 147 119 208 44 300 44 c 0
EndSplineSet
Substitution2: "Single Substitution lookup 9 subtable" ordmasculine
Substitution2: "'sups' Superscript in Latin lookup 6 subtable" ordmasculine
Substitution2: "'aalt' Access All Alternates in Latin lookup 0 subtable" ordmasculine
EndChar

StartChar: p
Encoding: 112 112 81
Width: 600
GlyphClass: 2
Flags: MW
HStem: -197 56<82 142 204 300 82 142> -12 56<295 343> 353 46 370 56<299.5 365>
VStem: 142 62<-141 7 69 304> 452 65<165 247.5>
LayerCount: 2
Fore
SplineSet
204 304 m 1xdc
 204 69 l 1
 234 52 265 44 299 44 c 0
 391 44 452 121 452 209 c 0
 452 286 408 370 322 370 c 0
 277 370 229 341 204 304 c 1xdc
204 7 m 1
 204 -141 l 1
 300 -141 l 1
 300 -197 l 1
 82 -197 l 1
 82 -141 l 1
 142 -141 l 1
 142 358 l 1
 69 348 l 1
 60 399 l 1
 92 401 125 405 148 426 c 0
 156 435 162 443 175 443 c 0xec
 204 443 204 415 204 393 c 2
 204 382 l 1
 244 408 273 426 323 426 c 0
 445 426 517 323 517 209 c 0
 517 41 372 -12 314 -12 c 0
 276 -12 240 -3 204 7 c 1
EndSplineSet
EndChar

StartChar: q
Encoding: 113 113 82
Width: 600
GlyphClass: 2
Flags: MW
HStem: -197 56<291 401 463 551 291 401> -12 56<272 312> -6 21G<401 401> 370 56<265.5 317.5>
VStem: 92 65<144 241.5 144 289> 401 62<-141 -6 -6 -6 50 340 -141 341 -141 341>
LayerCount: 2
Fore
SplineSet
463 340 m 2xdc
 463 -141 l 1
 551 -141 l 1
 551 -197 l 1
 291 -197 l 1
 291 -141 l 1
 401 -141 l 1
 401 -6 l 1xbc
 385 -7 369 -9 353 -10 c 0
 336 -12 320 -12 304 -12 c 0
 173 -12 92 72 92 203 c 0
 92 375 232 426 299 426 c 0
 344 426 371 416 410 397 c 1
 431 451 l 1
 485 429 l 1
 469 393 463 380 463 340 c 2xdc
401 50 m 1xdc
 401 341 l 1
 374 359 334 370 301 370 c 0
 206 370 157 285 157 198 c 0
 157 90 221 44 323 44 c 0
 349 44 375 45 401 50 c 1xdc
EndSplineSet
EndChar

StartChar: r
Encoding: 114 114 83
Width: 600
GlyphClass: 2
Flags: MW
HStem: 0 56<102 189 251 432 102 189> 352 46 370 56<399.5 438.5>
VStem: 189 62<56 264 339 357 357 357>
LayerCount: 2
Fore
SplineSet
251 264 m 1xb0
 251 56 l 1
 432 56 l 1
 432 0 l 1
 102 0 l 1
 102 56 l 1
 189 56 l 1
 189 357 l 1
 116 347 l 1
 107 398 l 1
 139 400 172 404 195 425 c 0
 203 434 209 442 222 442 c 0
 251 442 251 414 251 392 c 2xd0
 251 339 l 1
 306 379 359 426 431 426 c 0
 483 426 516 391 532 345 c 1
 470 320 l 1
 462 341 452 370 425 370 c 0
 374 370 290 299 251 264 c 1xb0
EndSplineSet
EndChar

StartChar: s
Encoding: 115 115 84
Width: 600
GlyphClass: 2
Flags: MW
HStem: -12 56<279 330.5 252 346> 0 21G<101 101> 175 53 370 56<280.5 324 258.5 353.5>
VStem: 123 65<243 326 243 338> 426 54 435 65<82.5 165.5>
LayerCount: 2
Fore
SplineSet
430 403 m 1xba
 440 447 l 1
 495 436 l 1
 487 404 481 372 481 339 c 0
 481 317 483 296 488 275 c 1
 428 270 l 1
 425 292 l 2xbc
 418 341 403 370 304 370 c 0
 257 370 188 356 188 296 c 0
 188 190 500 281 500 109 c 0
 500 13 385 -12 307 -12 c 0
 251 -12 215 -2 164 20 c 1
 154 -16 l 1xba
 101 0 l 1
 109 26 113 53 113 80 c 0x7a
 113 105 110 131 100 154 c 1
 162 162 l 1
 174 79 192 44 312 44 c 0
 349 44 435 55 435 110 c 0
 435 221 123 122 123 292 c 0
 123 384 215 426 302 426 c 0
 346 426 388 417 430 403 c 1xba
EndSplineSet
EndChar

StartChar: t
Encoding: 116 116 85
Width: 600
GlyphClass: 2
Flags: MW
HStem: -12 56<292 352> 358 56<57 201 57 201 263 496>
VStem: 201 62<132 158 158 358 414 525>
LayerCount: 2
Fore
SplineSet
263 525 m 1
 263 414 l 1
 496 414 l 1
 496 358 l 1
 263 358 l 1
 263 158 l 2
 263 106 257 44 327 44 c 0
 381 44 449 61 502 77 c 1
 522 24 l 1
 461 7 383 -12 321 -12 c 0
 246 -12 201 32 201 130 c 2
 201 358 l 1
 57 358 l 1
 57 414 l 1
 201 414 l 1
 201 525 l 1
 263 525 l 1
EndSplineSet
EndChar

StartChar: u
Encoding: 117 117 86
Width: 600
GlyphClass: 2
Flags: MW
HStem: -12 56<239 297 239 300.5> 0 56<480 560 480 560> 353 46
VStem: 121 62<159 179 179 358 358 358> 418 62<0 393 25 393 86 358 358 358>
LayerCount: 2
Fore
SplineSet
418 0 m 1x78
 418 25 l 1
 369 5 328 -12 273 -12 c 0
 177 -12 121 39 121 159 c 2
 121 358 l 1
 48 348 l 1
 39 399 l 1
 71 401 104 405 127 426 c 0
 135 435 141 443 154 443 c 0
 183 443 183 415 183 393 c 2
 183 179 l 2
 183 76 206 44 272 44 c 0
 322 44 374 64 418 86 c 1xb8
 418 358 l 1
 345 348 l 1
 336 399 l 1
 368 401 401 405 424 426 c 0
 432 435 438 443 451 443 c 0
 480 443 480 415 480 393 c 2
 480 56 l 1
 560 56 l 1
 560 0 l 1
 418 0 l 1x78
EndSplineSet
EndChar

StartChar: v
Encoding: 118 118 87
Width: 600
GlyphClass: 2
Flags: MW
HStem: -12 21G<270 330 270 270> -12 69<300 300 300 330 270 300> 358 56<44 111 44 233 172 233 172 172 367 428 489 489 489 556>
VStem: 44 189<358 414 358 414> 367 189<358 414 358 414>
LayerCount: 2
Fore
SplineSet
44 414 m 1xb8
 233 414 l 1
 233 358 l 1
 172 358 l 1
 300 57 l 1x78
 428 358 l 1
 367 358 l 1
 367 414 l 1
 556 414 l 1
 556 358 l 1
 489 358 l 1
 330 -12 l 1
 270 -12 l 1
 111 358 l 1
 44 358 l 1
 44 414 l 1xb8
EndSplineSet
EndChar

StartChar: w
Encoding: 119 119 88
Width: 600
GlyphClass: 2
Flags: MW
HStem: -12 82<212 212 212 245 174 212> 358 56<5 72 5 201 130 201 130 130 412 487 543 543 543 595>
VStem: 5 196<358 414 358 414> 412 183<358 414 358 414>
LayerCount: 2
Fore
SplineSet
5 414 m 1
 201 414 l 1
 201 358 l 1
 130 358 l 1
 212 70 l 1
 289 305 l 1
 327 305 l 1
 407 70 l 1
 487 358 l 1
 412 358 l 1
 412 414 l 1
 595 414 l 1
 595 358 l 1
 543 358 l 1
 444 -12 l 1
 375 -12 l 1
 308 183 l 1
 245 -12 l 1
 174 -12 l 1
 72 358 l 1
 5 358 l 1
 5 414 l 1
EndSplineSet
EndChar

StartChar: x
Encoding: 120 120 89
Width: 600
GlyphClass: 2
Flags: MW
HStem: 0 56<34 96 175 266 34 96 328 412 495 567> 358 56<44 109 44 266 193 266 193 193 44 320 320 382 461 461 461 534>
VStem: 34 232<0 56 0 56> 34 533<0 56 0 56> 44 222<358 414> 320 214<358 414 358 414> 328 239<0 56 0 56>
LayerCount: 2
Fore
SplineSet
44 414 m 1xc8
 266 414 l 1
 266 358 l 1
 193 358 l 1
 290 262 l 1
 382 358 l 1
 320 358 l 1
 320 414 l 1
 534 414 l 1
 534 358 l 1
 461 358 l 1xcc
 331 220 l 1
 495 56 l 1
 567 56 l 1
 567 0 l 1
 328 0 l 1
 328 56 l 1
 412 56 l 1
 290 178 l 1
 175 56 l 1
 266 56 l 1
 266 0 l 1
 34 0 l 1
 34 56 l 1
 96 56 l 1xe2
 249 219 l 1
 109 358 l 1
 44 358 l 1
 44 414 l 1xc8
EndSplineSet
EndChar

StartChar: y
Encoding: 121 121 90
Width: 600
GlyphClass: 2
Flags: MW
HStem: -208 56<130.5 173 130.5 191.5> 358 56<40 103 40 248 170 248 170 170 343 422 486 486 486 550>
VStem: 40 208<358 414 358 414> 343 207<358 414 358 414>
LayerCount: 2
Fore
SplineSet
40 414 m 1
 248 414 l 1
 248 358 l 1
 170 358 l 1
 305 98 l 1
 422 358 l 1
 343 358 l 1
 343 414 l 1
 550 414 l 1
 550 358 l 1
 486 358 l 1
 301 -59 l 2
 268 -133 239 -208 144 -208 c 0
 105 -208 64 -194 33 -172 c 1
 57 -118 l 1
 82 -138 114 -152 147 -152 c 0
 199 -152 225 -81 243 -41 c 2
 274 28 l 1
 103 358 l 1
 40 358 l 1
 40 414 l 1
EndSplineSet
EndChar

StartChar: z
Encoding: 122 122 91
Width: 600
GlyphClass: 2
Flags: MW
HStem: 0 56<179 382 382 405.5 179 488> 358 56<200 234 234 398> 366 48<123 489>
VStem: 93 414<0 151 54 151>
LayerCount: 2
Fore
SplineSet
489 414 m 1xd0
 489 366 l 1xb0
 179 56 l 1
 382 56 l 2
 429 56 431 52 439 93 c 2
 446 131 l 1
 449 151 l 1
 507 151 l 1
 488 0 l 1
 93 0 l 1
 93 54 l 1
 398 358 l 1
 234 358 l 2
 166 358 176 355 166 285 c 2
 163 265 l 1
 103 265 l 1
 123 414 l 1
 489 414 l 1xd0
EndSplineSet
EndChar

StartChar: braceleft
Encoding: 123 123 92
Width: 600
GlyphClass: 2
Flags: MW
HStem: -52 56<412 445 445 457> 600 56<445 457 445 457>
VStem: 261 62<82 101 101 200 398 404 404 503>
LayerCount: 2
Fore
SplineSet
457 4 m 1
 457 -52 l 1
 445 -52 l 2
 333 -52 261 -47 261 82 c 2
 261 206 l 2
 261 286 238 282 162 301 c 1
 162 303 l 1
 238 322 261 318 261 398 c 2
 261 522 l 2
 261 651 333 656 445 656 c 2
 457 656 l 1
 457 600 l 1
 367 600 323 596 323 503 c 2
 323 404 l 2
 323 361 325 325 282 302 c 1
 325 279 323 243 323 200 c 2
 323 101 l 2
 323 8 367 4 457 4 c 1
EndSplineSet
EndChar

StartChar: bar
Encoding: 124 124 93
Width: 600
GlyphClass: 2
Flags: MW
HStem: -288 21G<267 267 267 333> 772 20G<267 333 333 333>
VStem: 267 66<-288 792 -288 792>
LayerCount: 2
Fore
SplineSet
267 -288 m 1
 267 792 l 1
 333 792 l 1
 333 -288 l 1
 267 -288 l 1
EndSplineSet
EndChar

StartChar: braceright
Encoding: 125 125 94
Width: 600
GlyphClass: 2
Flags: MW
HStem: -52 56<145 157 145 190> 600 56<145 157 157 190>
VStem: 279 62<101 200 200 206 404 503 503 522>
LayerCount: 2
Fore
SplineSet
145 600 m 1
 145 656 l 1
 157 656 l 2
 269 656 341 651 341 522 c 2
 341 398 l 2
 341 318 364 322 440 303 c 1
 440 301 l 1
 364 282 341 286 341 206 c 2
 341 82 l 2
 341 -47 269 -52 157 -52 c 2
 145 -52 l 1
 145 4 l 1
 235 4 279 8 279 101 c 2
 279 200 l 2
 279 243 277 279 320 302 c 1
 277 325 279 361 279 404 c 2
 279 503 l 2
 279 596 235 600 145 600 c 1
EndSplineSet
EndChar

StartChar: asciitilde
Encoding: 126 126 95
Width: 600
GlyphClass: 2
Flags: MW
HStem: 294 66<405 442.5 405 455> 368 66<153.5 197> 400 20G<581 581>
VStem: 18 563<301 420>
LayerCount: 2
Fore
SplineSet
183 434 m 0xd0
 220 434 267 416 310 397 c 0
 353 378 393 360 417 360 c 0
 468 360 510 417 529 458 c 1
 581 420 l 1
 550 359 492 294 418 294 c 0xb0
 378 294 312 324 274 339 c 0
 248 350 211 368 183 368 c 0
 124 368 97 305 70 262 c 1
 18 301 l 1
 56 366 99 434 183 434 c 0xd0
EndSplineSet
EndChar

StartChar: exclamdown
Encoding: 161 161 97
Width: 600
GlyphClass: 2
Flags: MW
HStem: 312 114<284.5 315.5 284.5 316>
VStem: 241 118<353 385>
LayerCount: 2
Fore
SplineSet
275 261 m 1
 325 261 l 1
 360 -143 l 2
 363 -175 331 -197 300 -197 c 0
 269 -197 237 -175 240 -143 c 2
 275 261 l 1
241 369 m 0
 241 401 269 426 300 426 c 0
 331 426 359 401 359 369 c 0
 359 337 332 312 300 312 c 0
 268 312 241 337 241 369 c 0
EndSplineSet
EndChar

StartChar: cent
Encoding: 162 162 98
Width: 600
GlyphClass: 2
Flags: MW
HStem: 87 56<283 283 345 345> 471 56<283 283>
VStem: 104 65<266.5 355.5 266.5 372> 283 62<-42 87 -42 87 527 635> 423 62
LayerCount: 2
Fore
SplineSet
283 635 m 1
 345 635 l 1
 345 527 l 1
 398 523 456 508 486 461 c 1
 483 421 l 1
 486 358 l 1
 423 358 l 1
 423 387 l 2
 423 449 391 471 322 471 c 0
 232 471 169 399 169 312 c 0
 169 221 231 143 326 143 c 0
 387 143 448 164 502 189 c 1
 524 137 l 1
 468 108 407 91 345 87 c 1
 345 -42 l 1
 283 -42 l 1
 283 87 l 1
 175 109 104 200 104 308 c 0
 104 436 175 498 283 527 c 1
 283 635 l 1
EndSplineSet
EndChar

StartChar: sterling
Encoding: 163 163 99
Width: 600
GlyphClass: 2
Flags: MW
HStem: -12 56<164.5 194 164.5 203.5 391.5 434> 144 56<165 178.5 133.5 195.5> 281 56<84 192 84 211 84 192 274 406 274 274> 556 56<308 364>
VStem: 67 65<79.5 108.5 79.5 119.5> 173 65<421 473.5 421 490> 245 61 431 82<429.5 509> 472 57<132 141>
LayerCount: 2
Fore
SplineSet
245 106 m 1xfa80
 227 126 210 144 181 144 c 0
 149 144 132 124 132 93 c 0
 132 66 151 44 178 44 c 0
 210 44 240 76 245 106 c 1xfa80
257 337 m 1xfd
 406 337 l 1
 406 281 l 1
 274 281 l 1
 289 235 309 189 306 139 c 2
 305 124 l 1
 326 95 374 44 409 44 c 0
 459 44 473 101 472 141 c 1
 529 132 l 1xba80
 530 61 491 -12 411 -12 c 0
 361 -12 319 23 287 58 c 1
 254 17 232 -12 175 -12 c 0
 118 -12 67 34 67 93 c 0
 67 146 102 200 165 200 c 0
 192 200 217 191 242 183 c 1
 211 281 l 1
 84 281 l 1
 84 337 l 1
 192 337 l 1
 181 370 173 402 173 438 c 0
 173 542 237 612 342 612 c 0
 428 612 513 553 513 465 c 0
 513 439 501 395 468 395 c 0
 443 395 431 418 431 441 c 0
 431 459 437 472 448 485 c 1
 440 531 385 556 343 556 c 0
 273 556 238 507 238 440 c 0
 238 402 244 372 257 337 c 1xfd
EndSplineSet
EndChar

StartChar: currency
Encoding: 164 164 100
Width: 600
GlyphClass: 2
Flags: MW
HStem: 130 39<273 327> 552 38<273 327 273 354>
VStem: 70 39<332 388> 491 39<332 388 332 414>
LayerCount: 2
Fore
SplineSet
120 506 m 1
 11 613 l 1
 44 645 l 1
 152 538 l 1
 194 572 246 590 300 590 c 0
 354 590 406 572 448 538 c 1
 556 645 l 1
 589 613 l 1
 480 506 l 1
 513 461 530 416 530 360 c 0
 530 304 513 259 480 214 c 1
 589 107 l 1
 556 75 l 1
 448 182 l 1
 406 148 354 130 300 130 c 0
 246 130 194 148 152 182 c 1
 44 75 l 1
 11 107 l 1
 120 214 l 1
 87 259 70 304 70 360 c 0
 70 416 87 461 120 506 c 1
300 169 m 0
 408 169 491 252 491 360 c 0
 491 468 408 552 300 552 c 0
 192 552 109 468 109 360 c 0
 109 252 192 169 300 169 c 0
EndSplineSet
EndChar

StartChar: yen
Encoding: 165 165 101
Width: 600
GlyphClass: 2
Flags: MW
HStem: 0 56<139 270 332 463 139 270> 250 56<128 242 128 270 128 242 360 475> 544 56<32 94 32 244 162 162 162 244 358 440 508 508 508 569>
VStem: 32 212<544 600 544 600> 270 62<56 250 56 250> 358 211<544 600 544 600>
LayerCount: 2
Fore
SplineSet
360 306 m 1
 475 306 l 1
 475 250 l 1
 332 250 l 1
 332 56 l 1
 463 56 l 1
 463 0 l 1
 139 0 l 1
 139 56 l 1
 270 56 l 1
 270 250 l 1
 128 250 l 1
 128 306 l 1
 242 306 l 1
 94 544 l 1
 32 544 l 1
 32 600 l 1
 244 600 l 1
 244 544 l 1
 162 544 l 1
 301 318 l 1
 440 544 l 1
 358 544 l 1
 358 600 l 1
 569 600 l 1
 569 544 l 1
 508 544 l 1
 360 306 l 1
EndSplineSet
EndChar

StartChar: brokenbar
Encoding: 166 166 102
Width: 600
GlyphClass: 2
Flags: MW
HStem: -288 21G<267 267 267 333> 772 20G<267 333 333 333>
VStem: 267 66<-288 72 -288 72 432 792>
LayerCount: 2
Fore
SplineSet
267 432 m 1
 267 792 l 1
 333 792 l 1
 333 432 l 1
 267 432 l 1
267 -288 m 1
 267 72 l 1
 333 72 l 1
 333 -288 l 1
 267 -288 l 1
EndSplineSet
EndChar

StartChar: section
Encoding: 167 167 103
Width: 600
GlyphClass: 2
Flags: MW
HStem: -116 56<283.5 324 283.5 339> 556 56<278 315>
VStem: 123 65<289.5 323.5 289.5 334.5> 152 65<470 508 463.5 524> 154 70<14 23.5> 379 67<479 480.5> 386 65<-15.5 19 -37 31> 412 65<174.5 204.5>
LayerCount: 2
Fore
SplineSet
252 220 m 2xe1
 376 127 l 1
 398 139 412 162 412 187 c 0
 412 222 384 246 358 266 c 2
 222 369 l 1
 204 352 188 337 188 310 c 0
 188 269 222 242 252 220 c 2xe1
286 392 m 2xd4
 378 323 l 2
 422 290 477 250 477 188 c 0xd1
 477 143 451 113 415 89 c 1
 439 63 451 37 451 1 c 0
 451 -75 373 -116 305 -116 c 0
 233 -116 154 -69 154 12 c 0
 154 35 161 64 189 64 c 0
 212 64 224 39 224 19 c 0
 224 9 221 2 217 -8 c 1xca
 232 -45 264 -60 303 -60 c 0
 345 -60 386 -39 386 8 c 0
 386 54 334 85 301 110 c 2
 200 188 l 2
 158 220 123 257 123 313 c 0xe2
 123 356 151 380 180 406 c 1
 162 426 152 457 152 483 c 0
 152 565 221 612 297 612 c 0
 368 612 446 568 446 489 c 0
 446 469 439 439 413 439 c 0
 392 439 379 454 379 475 c 0
 379 486 382 496 386 506 c 1
 380 541 330 556 300 556 c 0
 256 556 217 532 217 484 c 0
 217 443 256 414 286 392 c 2xd4
EndSplineSet
EndChar

StartChar: dieresis
Encoding: 168 168 104
Width: 600
GlyphClass: 2
Flags: MW
HStem: 504 116<178 210 390 422>
VStem: 134 120<545.5 578.5> 346 120<545.5 578.5>
LayerCount: 2
Fore
SplineSet
134 562 m 0
 134 595 162 620 194 620 c 0
 226 620 254 595 254 562 c 0
 254 529 226 504 194 504 c 0
 162 504 134 529 134 562 c 0
346 562 m 0
 346 595 374 620 406 620 c 0
 438 620 466 595 466 562 c 0
 466 529 438 504 406 504 c 0
 374 504 346 529 346 562 c 0
EndSplineSet
EndChar

StartChar: copyright
Encoding: 169 169 105
Width: 600
GlyphClass: 2
Flags: MW
HStem: -12 56<255 345 255 359> 136 36<273 321.5> 429 36<272.5 313.5 270 326.5> 556 56<255 345>
VStem: 30 65<204 396 204 417> 171 52<272 330.5 272 362> 366 34 372 37<185 252> 505 65<204 396>
LayerCount: 2
Fore
SplineSet
300 -12 m 0xfd80
 182 -12 30 66 30 300 c 0
 30 534 182 612 300 612 c 0
 418 612 570 534 570 300 c 0
 570 66 418 -12 300 -12 c 0xfd80
300 44 m 0
 390 44 505 108 505 300 c 0
 505 492 390 556 300 556 c 0
 210 556 95 492 95 300 c 0
 95 108 210 44 300 44 c 0
366 448 m 1
 373 466 l 1
 407 451 l 1
 400 434 397 416 398 397 c 2
 401 358 l 1
 366 353 l 1xfe80
 364 401 350 429 303 429 c 0
 242 429 223 360 223 301 c 0
 223 243 244 172 302 172 c 0
 347 172 373 203 372 252 c 1
 409 252 l 1
 409 185 l 1
 377 158 343 136 300 136 c 0
 239 136 171 182 171 303 c 0
 171 421 239 465 301 465 c 0
 326 465 348 456 366 448 c 1
EndSplineSet
EndChar

StartChar: ordfeminine
Encoding: 170 170 106
Width: 600
GlyphClass: 2
Flags: MW
HStem: 220 42<156 456 156 456> 350 38<235 265.5 235 265.5> 357 38<405 458 405 458> 396 20G<355 355> 472 37<336.5 355> 528 49<183 233 183 183> 574 38<303 322 289 340>
VStem: 150 50<407 432.5 407 464.5> 183 50<528 553 528 577 528 577> 355 50<357 531 373 531 416 472 472 472 509 522 522 531 395 538.5>
LayerCount: 2
Fore
SplineSet
456 262 m 1x9ac0
 456 220 l 1
 156 220 l 1
 156 262 l 1
 456 262 l 1x9ac0
355 509 m 1
 355 522 l 2
 355 555 362 574 318 574 c 0
 288 574 259 568 233 553 c 1x9ac0
 233 528 l 1
 183 528 l 1x9cc0
 183 577 l 1
 219 597 268 612 310 612 c 0
 334 612 367 609 386 595 c 0
 406 579 405 553 405 531 c 2
 405 395 l 1
 458 395 l 1
 458 357 l 1
 355 357 l 1xaac0
 355 373 l 1
 321 360 284 350 247 350 c 0
 202 350 150 367 150 421 c 0xdb40
 150 508 295 505 355 509 c 1
355 416 m 1
 355 472 l 1
 318 472 279 470 242 459 c 0
 221 453 200 445 200 420 c 0
 200 394 224 388 246 388 c 0xdb40
 285 388 321 402 355 416 c 1
EndSplineSet
EndChar

StartChar: guillemotleft
Encoding: 171 171 107
Width: 600
GlyphClass: 2
Flags: MW
HStem: 46 508<287 287 287 496>
VStem: 9 528<86 300>
LayerCount: 2
Fore
SplineSet
287 554 m 1
 328 514 l 1
 92 300 l 1
 328 86 l 1
 287 46 l 1
 9 300 l 1
 287 554 l 1
496 554 m 1
 537 514 l 1
 301 300 l 1
 537 86 l 1
 496 46 l 1
 218 300 l 1
 496 554 l 1
EndSplineSet
EndChar

StartChar: logicalnot
Encoding: 172 172 108
Width: 600
GlyphClass: 2
Flags: MW
HStem: 386 66<25 505 25 575>
VStem: 505 70<161 386 386 386>
LayerCount: 2
Fore
SplineSet
505 161 m 1
 505 386 l 1
 25 386 l 1
 25 452 l 1
 575 452 l 1
 575 161 l 1
 505 161 l 1
EndSplineSet
EndChar

StartChar: uni00AD
Encoding: 173 173 109
Width: 600
GlyphClass: 2
Flags: MW
HStem: 272 56<170 428 170 428>
VStem: 170 258<272 328 272 328>
LayerCount: 2
Fore
SplineSet
428 272 m 1
 170 272 l 1
 170 328 l 1
 428 328 l 1
 428 272 l 1
EndSplineSet
EndChar

StartChar: registered
Encoding: 174 174 110
Width: 600
GlyphClass: 2
Flags: MW
HStem: -12 56<255 345 255 359> 148 36<169 202 245 278 169 202 397 430> 281 36<245 267 267 284 245 267> 417 36<169 291 169 202 245 288 245 245> 556 56<255 345>
VStem: 30 65<204 396 204 417> 202 43<184 281 184 317 317 417> 348 43<354.5 386> 505 65<204 396>
LayerCount: 2
Fore
SplineSet
169 417 m 1
 169 453 l 1
 291 453 l 2
 341 453 391 432 391 373 c 0
 391 327 361 304 324 293 c 1
 397 184 l 1
 430 184 l 1
 430 148 l 1
 372 148 l 1
 284 281 l 1
 245 281 l 1
 245 184 l 1
 278 184 l 1
 278 148 l 1
 169 148 l 1
 169 184 l 1
 202 184 l 1
 202 417 l 1
 169 417 l 1
245 417 m 1
 245 317 l 1
 267 317 l 2
 325 317 348 340 348 369 c 0
 348 403 323 417 288 417 c 2
 245 417 l 1
300 -12 m 0
 182 -12 30 66 30 300 c 0
 30 534 182 612 300 612 c 0
 418 612 570 534 570 300 c 0
 570 66 418 -12 300 -12 c 0
300 44 m 0
 390 44 505 108 505 300 c 0
 505 492 390 556 300 556 c 0
 210 556 95 492 95 300 c 0
 95 108 210 44 300 44 c 0
EndSplineSet
EndChar

StartChar: macron
Encoding: 175 175 111
Width: 600
GlyphClass: 2
Flags: MW
HStem: 522 56<170 430 170 430>
VStem: 170 260<522 578 522 578>
LayerCount: 2
Fore
SplineSet
430 522 m 1
 170 522 l 1
 170 578 l 1
 430 578 l 1
 430 522 l 1
EndSplineSet
EndChar

StartChar: degree
Encoding: 176 176 112
Width: 600
GlyphClass: 2
Flags: MW
HStem: 348 76<263.5 336.5 263.5 358> 689 76<263.5 336.5>
VStem: 87 80<519.5 593 519.5 615> 433 80<519.5 593>
LayerCount: 2
Fore
SplineSet
87 556 m 0
 87 674 185 765 300 765 c 0
 416 765 513 674 513 556 c 0
 513 439 416 348 300 348 c 0
 185 348 87 439 87 556 c 0
167 556 m 0
 167 483 227 424 300 424 c 0
 373 424 433 483 433 556 c 0
 433 630 373 689 300 689 c 0
 227 689 167 630 167 556 c 0
EndSplineSet
EndChar

StartChar: plusminus
Encoding: 177 177 113
Width: 600
GlyphClass: 2
Flags: MW
HStem: 39 66<25 575 25 575> 378 66<25 265 25 265 335 575>
VStem: 265 70<141 378 141 378 444 681>
LayerCount: 2
Fore
SplineSet
575 444 m 1
 575 378 l 1
 335 378 l 1
 335 141 l 1
 265 141 l 1
 265 378 l 1
 25 378 l 1
 25 444 l 1
 265 444 l 1
 265 681 l 1
 335 681 l 1
 335 444 l 1
 575 444 l 1
575 105 m 1
 575 39 l 1
 25 39 l 1
 25 105 l 1
 575 105 l 1
EndSplineSet
EndChar

StartChar: twosuperior
Encoding: 178 178 114
Width: 600
GlyphClass: 2
Flags: MW
HStem: 285 36<248 346 248 375> 576 36<284 308>
VStem: 198 52<547.5 559 547.5 560> 349 43<509 541>
LayerCount: 2
Fore
SplineSet
366 356 m 1
 405 347 l 1
 375 285 l 1
 191 285 l 1
 191 318 l 1
 204 331 l 2
 247 374 349 467 349 526 c 0
 349 556 322 576 294 576 c 0
 274 576 264 572 250 559 c 1
 250 536 240 515 217 515 c 0
 204 515 198 524 198 536 c 0
 198 584 252 612 294 612 c 0
 342 612 392 581 392 529 c 0
 392 489 371 457 347 426 c 2
 256 329 l 1
 248 321 l 1
 346 321 l 1
 366 356 l 1
EndSplineSet
EndChar

StartChar: threesuperior
Encoding: 179 179 115
Width: 600
GlyphClass: 2
Flags: MW
HStem: 279 36<264.5 300 264.5 310.5> 442 34<290 297 278 310> 576 36<283.5 305>
VStem: 340 43<508.5 535.5> 356 43<356 398.5>
LayerCount: 2
Fore
SplineSet
290 442 m 2xe8
 257 439 l 1
 257 479 l 1xe8
 266 477 274 476 282 476 c 0
 312 476 340 486 340 521 c 0
 340 550 321 576 289 576 c 0
 278 576 261 575 253 565 c 1
 251 546 238 526 216 526 c 0
 205 526 196 535 196 546 c 0
 196 586 254 612 287 612 c 0
 341 612 383 578 383 523 c 0xf0
 383 494 371 479 351 461 c 1
 382 439 399 420 399 380 c 0
 399 312 341 279 280 279 c 0
 244 279 206 288 176 306 c 1
 193 339 l 1
 219 323 249 315 280 315 c 0
 320 315 356 334 356 378 c 0
 356 419 330 442 290 442 c 2xe8
EndSplineSet
EndChar

StartChar: acute
Encoding: 180 180 116
Width: 600
GlyphClass: 2
Flags: MW
HStem: 579 20G<457 457>
VStem: 218 239<509 599>
LayerCount: 2
Fore
SplineSet
406 660 m 1
 457 599 l 1
 255 465 l 1
 218 509 l 1
 406 660 l 1
EndSplineSet
EndChar

StartChar: mu
Encoding: 181 181 117
Width: 600
GlyphClass: 2
Flags: MW
HStem: -12 56<279.5 324> 0 44 394 20G<124 186 186 186 414 476 476 476>
VStem: 124 62<-197 40 134 181 181 414> 414 62<0 43 43 43 191 414 0 414>
LayerCount: 2
Fore
SplineSet
414 191 m 2xb8
 414 414 l 1
 476 414 l 1
 476 0 l 1
 414 0 l 1x78
 414 43 l 1
 388 9 346 -12 302 -12 c 0
 257 -12 214 6 186 40 c 1
 186 -197 l 1
 124 -197 l 1
 124 414 l 1
 186 414 l 1
 186 181 l 2
 186 87 233 44 300 44 c 0
 367 44 414 97 414 191 c 2xb8
EndSplineSet
EndChar

StartChar: paragraph
Encoding: 182 182 118
Width: 600
GlyphClass: 2
Flags: MW
HStem: 554 46<331 412 331 331 474 510 474 474>
VStem: 269 62<-91 268 268 268> 412 62<-91 554 -91 554>
LayerCount: 2
Fore
SplineSet
269 -91 m 1
 269 268 l 1
 173 265 90 331 90 433 c 0
 90 495 121 600 280 600 c 2
 510 600 l 1
 510 554 l 1
 474 554 l 1
 474 -91 l 1
 412 -91 l 1
 412 554 l 1
 331 554 l 1
 331 -91 l 1
 269 -91 l 1
EndSplineSet
EndChar

StartChar: periodcentered
Encoding: 183 183 119
Width: 600
GlyphClass: 2
Flags: MW
HStem: 280 160<278.5 321.5>
VStem: 220 160<338.5 381.5>
LayerCount: 2
Fore
SplineSet
220 360 m 0
 220 403 257 440 300 440 c 0
 343 440 380 403 380 360 c 0
 380 317 343 280 300 280 c 0
 257 280 220 317 220 360 c 0
EndSplineSet
EndChar

StartChar: cedilla
Encoding: 184 184 120
Width: 600
GlyphClass: 2
Flags: MW
HStem: -206 56<287.5 316.5 284.5 336.5> -80 110<312 322>
VStem: 370 65<-125.5 -96.5>
LayerCount: 2
Fore
SplineSet
341 30 m 1
 326 -24 l 1
 380 -23 435 -49 435 -110 c 0
 435 -179 366 -206 307 -206 c 0
 268 -206 227 -197 193 -178 c 1
 193 -119 l 1
 228 -135 265 -150 304 -150 c 0
 329 -150 370 -141 370 -110 c 0
 370 -83 332 -80 312 -80 c 2
 251 -86 l 1
 280 30 l 1
 341 30 l 1
EndSplineSet
EndChar

StartChar: onesuperior
Encoding: 185 185 121
Width: 600
GlyphClass: 2
Flags: MW
HStem: 285 36<215 284 327 390 215 284> 556 34<213 213> 592 20G<300.5 317>
VStem: 284 43<321 560 560 560>
LayerCount: 2
Fore
SplineSet
327 578 m 2
 327 321 l 1
 390 321 l 1
 390 285 l 1
 215 285 l 1
 215 321 l 1
 284 321 l 1
 284 560 l 1
 267 556 250 554 234 555 c 2
 213 556 l 1
 207 590 l 1
 226 590 l 2
 239 590 277 591 285 600 c 0
 292 607 295 612 306 612 c 0
 328 612 327 594 327 578 c 2
EndSplineSet
EndChar

StartChar: ordmasculine
Encoding: 186 186 122
Width: 600
GlyphClass: 2
Flags: MW
HStem: 220 42<150 450 150 450> 350 38<273.5 326.5 273.5 337.5> 574 38<273.5 326.5>
VStem: 156 50<454.5 507.5 454.5 521> 394 50<454.5 507.5>
LayerCount: 2
Fore
SplineSet
450 262 m 1
 450 220 l 1
 150 220 l 1
 150 262 l 1
 450 262 l 1
300 350 m 0
 225 350 156 402 156 481 c 0
 156 561 225 612 300 612 c 0
 375 612 444 561 444 481 c 0
 444 402 375 350 300 350 c 0
300 574 m 0
 247 574 206 534 206 481 c 0
 206 428 247 388 300 388 c 0
 353 388 394 428 394 481 c 0
 394 534 353 574 300 574 c 0
EndSplineSet
EndChar

StartChar: guillemotright
Encoding: 187 187 123
Width: 600
GlyphClass: 2
Flags: MW
HStem: 46 508<104 104 104 313>
VStem: 63 528<86 300 300 514>
LayerCount: 2
Fore
SplineSet
63 514 m 1
 104 554 l 1
 382 300 l 1
 104 46 l 1
 63 86 l 1
 299 300 l 1
 63 514 l 1
272 514 m 1
 313 554 l 1
 591 300 l 1
 313 46 l 1
 272 86 l 1
 508 300 l 1
 272 514 l 1
EndSplineSet
EndChar

StartChar: onequarter
Encoding: 188 188 124
Width: 600
GlyphClass: 3
Flags: MW
HStem: -4 21G<156 156> 0 36<442 496 539 585 442 496> 82 36<383 496 383 496 539 585> 285 36<55 124 167 230 55 124> 556 34<53 53> 590 20G 592 20G<140.5 157>
VStem: 124 43<321 560 560 560> 496 43<36 82 36 82 118 226>
LayerCount: 2
Fore
SplineSet
434 633 m 1x7380
 474 610 l 1
 196 -28 l 1
 156 -4 l 1xb580
 434 633 l 1x7380
496 226 m 1
 539 226 l 1
 539 118 l 1
 585 118 l 1
 585 82 l 1
 539 82 l 1
 539 36 l 1
 585 36 l 1
 585 0 l 1
 442 0 l 1
 442 36 l 1
 496 36 l 1x7380
 496 82 l 1
 337 82 l 1
 337 113 l 1
 382 186 425 262 446 346 c 1
 489 334 l 1
 468 256 426 185 383 118 c 1
 496 118 l 1
 496 226 l 1
167 578 m 2
 167 321 l 1
 230 321 l 1
 230 285 l 1
 55 285 l 1
 55 321 l 1
 124 321 l 1
 124 560 l 1
 107 556 90 554 74 555 c 2
 53 556 l 1
 47 590 l 1
 66 590 l 2x7980
 79 590 117 591 125 600 c 0
 132 607 135 612 146 612 c 0
 168 612 167 594 167 578 c 2
EndSplineSet
Ligature2: "Ligature Substitution lookup 7 subtable" one fraction four
Ligature2: "Ligature Substitution lookup 7 subtable" one slash four
EndChar

StartChar: onehalf
Encoding: 189 189 125
Width: 600
GlyphClass: 3
Flags: MW
HStem: -4 21G<147 147> 0 36<408 515 408 544> 285 36<55 124 167 230 55 124> 291 36<444 468> 556 34<53 53> 590 20G 592 20G<140.5 157>
VStem: 124 43<321 560 560 560> 358 52<260.5 271 260.5 274> 509 43<223 256>
LayerCount: 2
Fore
SplineSet
425 633 m 1x63c0
 465 610 l 1
 187 -28 l 1
 147 -4 l 1xa5c0
 425 633 l 1x63c0
535 71 m 1x53c0
 574 62 l 1
 544 0 l 1
 351 0 l 1
 351 32 l 1
 364 46 l 2
 405 90 509 181 509 241 c 0
 509 271 482 291 454 291 c 0
 434 291 424 286 410 271 c 1
 410 250 400 229 377 229 c 0
 364 229 358 238 358 250 c 0
 358 298 412 327 454 327 c 0
 502 327 552 295 552 243 c 0
 552 203 533 169 507 141 c 2
 416 44 l 1
 408 36 l 1
 515 36 l 1
 535 71 l 1x53c0
167 578 m 2
 167 321 l 1
 230 321 l 1
 230 285 l 1
 55 285 l 1
 55 321 l 1
 124 321 l 1
 124 560 l 1
 107 556 90 554 74 555 c 2
 53 556 l 1
 47 590 l 1
 66 590 l 2x69c0
 79 590 117 591 125 600 c 0
 132 607 135 612 146 612 c 0
 168 612 167 594 167 578 c 2
EndSplineSet
Ligature2: "Ligature Substitution lookup 7 subtable" one fraction two
Ligature2: "Ligature Substitution lookup 7 subtable" one slash two
EndChar

StartChar: threequarters
Encoding: 190 190 126
Width: 600
GlyphClass: 3
Flags: MW
HStem: -4 21G<148 148> 0 36<442 496 539 585 442 496> 82 36<383 496 383 496 539 585> 279 36<104.5 140 104.5 150.5> 442 34<130 137 118 150> 576 36<123.5 145>
VStem: 180 43<508.5 535.5> 196 43<356 398.5> 496 43<36 82 36 82 118 226>
LayerCount: 2
Fore
SplineSet
426 633 m 1x7d80
 466 610 l 1
 188 -28 l 1
 148 -4 l 1xbd80
 426 633 l 1x7d80
496 226 m 1
 539 226 l 1
 539 118 l 1
 585 118 l 1
 585 82 l 1
 539 82 l 1
 539 36 l 1
 585 36 l 1
 585 0 l 1
 442 0 l 1
 442 36 l 1
 496 36 l 1x7d80
 496 82 l 1
 337 82 l 1
 337 113 l 1
 382 186 425 262 446 346 c 1
 489 334 l 1
 468 256 426 185 383 118 c 1
 496 118 l 1
 496 226 l 1
130 442 m 2
 97 439 l 1
 97 479 l 1x7d80
 106 477 114 476 122 476 c 0
 152 476 180 486 180 521 c 0
 180 550 161 576 129 576 c 0
 118 576 101 575 93 565 c 1
 91 546 78 526 56 526 c 0
 45 526 36 535 36 546 c 0
 36 586 94 612 127 612 c 0
 181 612 223 578 223 523 c 0x7e80
 223 494 211 479 191 461 c 1
 222 439 239 420 239 380 c 0
 239 312 181 279 120 279 c 0
 84 279 46 288 16 306 c 1
 33 339 l 1
 59 323 89 315 120 315 c 0
 160 315 196 334 196 378 c 0
 196 419 170 442 130 442 c 2
EndSplineSet
Ligature2: "Ligature Substitution lookup 7 subtable" three fraction four
Ligature2: "Ligature Substitution lookup 7 subtable" three slash four
EndChar

StartChar: questiondown
Encoding: 191 191 127
Width: 600
GlyphClass: 2
Flags: MW
HStem: -197 56<290.5 340 290.5 363.5> 312 114<314.5 345.5 314.5 346>
VStem: 167 64<-73.5 -1 -73.5 14.5> 271 118<353 385> 300 60<234 261 155.5 261> 415 67
LayerCount: 2
Fore
SplineSet
300 261 m 1xec
 360 261 l 1
 360 226 l 2
 360 85 231 47 231 -49 c 0
 231 -98 265 -141 316 -141 c 0
 364 -141 408 -113 415 -64 c 1
 411 -54 409 -43 409 -32 c 0
 409 -13 420 9 442 9 c 0
 475 9 482 -19 482 -46 c 0
 482 -127 411 -197 316 -197 c 0
 240 -197 167 -139 167 -56 c 0
 167 85 300 94 300 234 c 2
 300 261 l 1xec
271 369 m 0xf4
 271 401 299 426 330 426 c 0
 361 426 389 401 389 369 c 0
 389 337 362 312 330 312 c 0
 298 312 271 337 271 369 c 0xf4
EndSplineSet
EndChar

StartChar: Agrave
Encoding: 192 192 128
Width: 600
GlyphClass: 2
Flags: MW
HStem: 0 56<19 69 132 219 19 69 379 465 531 581> 185 56<198 397 198 417 179 397> 636 20G<296 296>
VStem: 19 200<0 56 0 56> 379 202<0 56 0 56>
LayerCount: 2
Fore
SplineSet
296 656 m 1
 531 56 l 1
 581 56 l 1
 581 0 l 1
 379 0 l 1
 379 56 l 1
 465 56 l 1
 417 185 l 1
 179 185 l 1
 132 56 l 1
 219 56 l 1
 219 0 l 1
 19 0 l 1
 19 56 l 1
 69 56 l 1
 296 656 l 1
397 241 m 1
 296 516 l 1
 198 241 l 1
 397 241 l 1
194 846 m 1
 382 695 l 1
 346 651 l 1
 143 785 l 1
 194 846 l 1
EndSplineSet
EndChar

StartChar: Aacute
Encoding: 193 193 129
Width: 600
GlyphClass: 2
Flags: MW
HStem: 0 56<19 69 132 219 19 69 379 465 531 581> 185 56<198 397 198 417 179 397> 636 20G<296 296>
VStem: 19 200<0 56 0 56> 379 202<0 56 0 56>
LayerCount: 2
Fore
SplineSet
296 656 m 1
 531 56 l 1
 581 56 l 1
 581 0 l 1
 379 0 l 1
 379 56 l 1
 465 56 l 1
 417 185 l 1
 179 185 l 1
 132 56 l 1
 219 56 l 1
 219 0 l 1
 19 0 l 1
 19 56 l 1
 69 56 l 1
 296 656 l 1
397 241 m 1
 296 516 l 1
 198 241 l 1
 397 241 l 1
394 846 m 1
 445 785 l 1
 243 651 l 1
 206 695 l 1
 394 846 l 1
EndSplineSet
EndChar

StartChar: Acircumflex
Encoding: 194 194 130
Width: 600
GlyphClass: 2
Flags: MW
HStem: 0 56<19 69 132 219 19 69 379 465 531 581> 185 56<198 397 198 417 179 397> 636 20G<296 296>
VStem: 19 200<0 56 0 56> 379 202<0 56 0 56>
LayerCount: 2
Fore
SplineSet
296 656 m 1
 531 56 l 1
 581 56 l 1
 581 0 l 1
 379 0 l 1
 379 56 l 1
 465 56 l 1
 417 185 l 1
 179 185 l 1
 132 56 l 1
 219 56 l 1
 219 0 l 1
 19 0 l 1
 19 56 l 1
 69 56 l 1
 296 656 l 1
397 241 m 1
 296 516 l 1
 198 241 l 1
 397 241 l 1
300 749 m 1
 159 653 l 1
 122 690 l 1
 300 844 l 1
 478 690 l 1
 441 653 l 1
 300 749 l 1
EndSplineSet
EndChar

StartChar: Atilde
Encoding: 195 195 131
Width: 600
GlyphClass: 2
Flags: MW
HStem: 0 56<19 69 132 219 19 69 379 465 531 581> 185 56<198 397 198 417 179 397> 636 20G<296 296> 695 59<360.5 382 360.5 387> 749 60<217.5 240.5>
VStem: 19 200<0 56 0 56> 140 64<692 692> 379 202<0 56 0 56> 396 64<812 812>
LayerCount: 2
Fore
SplineSet
296 656 m 1xea80
 531 56 l 1
 581 56 l 1
 581 0 l 1
 379 0 l 1
 379 56 l 1
 465 56 l 1
 417 185 l 1
 179 185 l 1
 132 56 l 1
 219 56 l 1
 219 0 l 1
 19 0 l 1
 19 56 l 1
 69 56 l 1xed
 296 656 l 1xea80
397 241 m 1
 296 516 l 1
 198 241 l 1
 397 241 l 1
204 692 m 1xea80
 140 692 l 1
 138 722 143 751 157 773 c 0
 171 795 194 809 228 809 c 0xea80
 257 809 284 796 308 782 c 0
 332 768 353 754 368 754 c 0
 396 754 394 793 396 812 c 1
 460 812 l 1
 463 782 457 753 443 731 c 0
 429 709 405 695 369 695 c 0xf280
 340 695 312 711 287 725 c 0
 273 733 249 749 232 749 c 0
 203 749 203 712 204 692 c 1xea80
EndSplineSet
EndChar

StartChar: Adieresis
Encoding: 196 196 132
Width: 600
GlyphClass: 2
Flags: MW
HStem: 0 56<19 69 132 219 19 69 379 465 531 581> 185 56<198 397 198 417 179 397> 636 20G<296 296> 690 116<178 210 390 422>
VStem: 19 200<0 56 0 56> 134 120<731.5 764.5> 346 120<731.5 764.5> 379 202<0 56 0 56>
LayerCount: 2
Fore
SplineSet
296 656 m 1xf6
 531 56 l 1
 581 56 l 1
 581 0 l 1
 379 0 l 1
 379 56 l 1
 465 56 l 1
 417 185 l 1
 179 185 l 1
 132 56 l 1
 219 56 l 1
 219 0 l 1
 19 0 l 1
 19 56 l 1
 69 56 l 1xf9
 296 656 l 1xf6
397 241 m 1
 296 516 l 1
 198 241 l 1
 397 241 l 1
134 748 m 0xf6
 134 781 162 806 194 806 c 0
 226 806 254 781 254 748 c 0
 254 715 226 690 194 690 c 0
 162 690 134 715 134 748 c 0xf6
346 748 m 0
 346 781 374 806 406 806 c 0
 438 806 466 781 466 748 c 0
 466 715 438 690 406 690 c 0
 374 690 346 715 346 748 c 0
EndSplineSet
EndChar

StartChar: Aring
Encoding: 197 197 133
Width: 600
GlyphClass: 2
Flags: MW
HStem: 0 56<19 69 132 219 19 69 379 465 531 581> 185 56<198 397 198 417 179 397> 636 20G<296 296> 659 49<289.5 310.5 289.5 325> 788 49<289.5 310.5>
VStem: 19 200<0 56 0 56> 208 59<738.5 757.5 738.5 773> 333 59<738.5 757.5> 379 202<0 56 0 56>
LayerCount: 2
Fore
SplineSet
296 656 m 1xeb
 531 56 l 1
 581 56 l 1
 581 0 l 1
 379 0 l 1
 379 56 l 1
 465 56 l 1
 417 185 l 1
 179 185 l 1
 132 56 l 1
 219 56 l 1
 219 0 l 1
 19 0 l 1
 19 56 l 1
 69 56 l 1xec80
 296 656 l 1xeb
397 241 m 1
 296 516 l 1
 198 241 l 1
 397 241 l 1
208 748 m 0xdb
 208 798 251 837 300 837 c 0
 350 837 392 799 392 748 c 0
 392 698 350 659 300 659 c 0
 250 659 208 698 208 748 c 0xdb
267 748 m 0
 267 729 279 708 300 708 c 0
 321 708 333 729 333 748 c 0
 333 767 321 788 300 788 c 0
 279 788 267 767 267 748 c 0
EndSplineSet
EndChar

StartChar: AE
Encoding: 198 198 134
Width: 600
GlyphClass: 2
Flags: MW
HStem: 0 56<17 48 110 192 17 48 254 300 362 425 425 461.5> 186 56<174 300 174 300 155 300> 298 56<362 421 362 421> 298 123<362 483 362 483> 544 56<278 300 278 278 362 362 362 430>
VStem: 17 175<0 56 0 56> 300 62<56 186 186 186 242 298 354 544> 421 62<234 298 298 298 354 421 234 421> 509 62<135 191 0 191 433 451 451 496.5>
LayerCount: 2
Fore
SplineSet
300 242 m 1xde80
 300 544 l 1
 278 544 l 1
 174 242 l 1
 300 242 l 1xde80
430 544 m 2
 362 544 l 1
 362 354 l 1
 421 354 l 1xef80
 421 421 l 1
 483 421 l 1
 483 234 l 1
 421 234 l 1
 421 298 l 1xdf80
 362 298 l 1
 362 56 l 1
 425 56 l 2
 498 56 509 59 509 135 c 2
 509 191 l 1
 571 191 l 1
 571 0 l 1
 254 0 l 1
 254 56 l 1
 300 56 l 1
 300 186 l 1
 155 186 l 1
 110 56 l 1
 192 56 l 1
 192 0 l 1
 17 0 l 1
 17 56 l 1
 48 56 l 1
 237 600 l 1
 571 600 l 1
 571 433 l 1
 509 433 l 1
 509 451 l 2
 509 542 496 544 430 544 c 2
EndSplineSet
EndChar

StartChar: Ccedilla
Encoding: 199 199 135
Width: 600
GlyphClass: 2
Flags: MW
HStem: -206 56<287.5 316.5 284.5 336.5> -80 56<312 326> -12 56<329 329> -4 21G<271 271> 556 56<272 350.5 272 382> 592 20G<272 350.5 477 477>
VStem: 79 65<244.5 359 244.5 420.5> 370 65<-125.5 -96.5> 461 56 468 62<159 206>
LayerCount: 2
Fore
SplineSet
464 578 m 1xab40
 477 612 l 1xab80
 533 594 l 1xa780
 519 561 513 525 515 489 c 2
 520 413 l 1
 461 403 l 1xab80
 457 495 434 556 330 556 c 0
 191 556 144 417 144 301 c 0
 144 188 194 44 328 44 c 0
 430 44 468 112 468 206 c 1
 530 206 l 1
 530 78 l 1
 475 25 406 -11 329 -12 c 1xab40
 326 -24 l 1
 380 -23 435 -49 435 -110 c 0
 435 -179 366 -206 307 -206 c 0
 268 -206 227 -197 193 -178 c 1
 193 -119 l 1
 228 -135 265 -150 304 -150 c 0
 329 -150 370 -141 370 -110 c 0
 370 -83 332 -80 312 -80 c 2
 251 -86 l 1xeb40
 271 -4 l 1x9b40
 176 19 79 109 79 306 c 0
 79 535 217 612 327 612 c 0
 374 612 423 599 464 578 c 1xab40
EndSplineSet
EndChar

StartChar: Egrave
Encoding: 200 200 136
Width: 600
GlyphClass: 2
Flags: MW
HStem: 0 56<41 141 203 390 390 428 41 141> 299 56<203 340 203 340> 426 13 544 56<41 141 41 516 203 372 203 203>
VStem: 141 62<56 299 355 544> 340 62<205 299 299 299 355 439 205 439> 454 62<426 452 452 493.5> 473 62<176 195 0 195>
LayerCount: 2
Fore
SplineSet
372 544 m 2xfe
 203 544 l 1
 203 355 l 1
 340 355 l 1
 340 439 l 1
 402 439 l 1
 402 205 l 1
 340 205 l 1
 340 299 l 1
 203 299 l 1
 203 56 l 1
 390 56 l 2
 466 56 473 65 473 176 c 2
 473 195 l 1
 535 195 l 1
 535 0 l 1xfd
 41 0 l 1
 41 56 l 1
 141 56 l 1
 141 544 l 1
 41 544 l 1
 41 600 l 1
 516 600 l 1
 516 426 l 1
 454 426 l 1
 454 452 l 2
 454 535 451 544 372 544 c 2xfe
194 846 m 1
 382 695 l 1
 346 651 l 1
 143 785 l 1
 194 846 l 1
EndSplineSet
EndChar

StartChar: Eacute
Encoding: 201 201 137
Width: 600
GlyphClass: 2
Flags: MW
HStem: 0 56<41 141 203 390 390 428 41 141> 299 56<203 340 203 340> 426 13 544 56<41 141 41 516 203 372 203 203>
VStem: 141 62<56 299 355 544> 340 62<205 299 299 299 355 439 205 439> 454 62<426 452 452 493.5> 473 62<176 195 0 195>
LayerCount: 2
Fore
SplineSet
372 544 m 2xfe
 203 544 l 1
 203 355 l 1
 340 355 l 1
 340 439 l 1
 402 439 l 1
 402 205 l 1
 340 205 l 1
 340 299 l 1
 203 299 l 1
 203 56 l 1
 390 56 l 2
 466 56 473 65 473 176 c 2
 473 195 l 1
 535 195 l 1
 535 0 l 1xfd
 41 0 l 1
 41 56 l 1
 141 56 l 1
 141 544 l 1
 41 544 l 1
 41 600 l 1
 516 600 l 1
 516 426 l 1
 454 426 l 1
 454 452 l 2
 454 535 451 544 372 544 c 2xfe
406 846 m 1
 457 785 l 1
 255 651 l 1
 218 695 l 1
 406 846 l 1
EndSplineSet
EndChar

StartChar: Ecircumflex
Encoding: 202 202 138
Width: 600
GlyphClass: 2
Flags: MW
HStem: 0 56<41 141 203 390 390 428 41 141> 299 56<203 340 203 340> 426 13 544 56<41 141 41 516 203 372 203 203>
VStem: 141 62<56 299 355 544> 340 62<205 299 299 299 355 439 205 439> 454 62<426 452 452 493.5> 473 62<176 195 0 195>
LayerCount: 2
Fore
SplineSet
372 544 m 2xfe
 203 544 l 1
 203 355 l 1
 340 355 l 1
 340 439 l 1
 402 439 l 1
 402 205 l 1
 340 205 l 1
 340 299 l 1
 203 299 l 1
 203 56 l 1
 390 56 l 2
 466 56 473 65 473 176 c 2
 473 195 l 1
 535 195 l 1
 535 0 l 1xfd
 41 0 l 1
 41 56 l 1
 141 56 l 1
 141 544 l 1
 41 544 l 1
 41 600 l 1
 516 600 l 1
 516 426 l 1
 454 426 l 1
 454 452 l 2
 454 535 451 544 372 544 c 2xfe
300 749 m 1
 159 653 l 1
 122 690 l 1
 300 844 l 1
 478 690 l 1
 441 653 l 1
 300 749 l 1
EndSplineSet
EndChar

StartChar: Edieresis
Encoding: 203 203 139
Width: 600
GlyphClass: 2
Flags: MW
HStem: 0 56<41 141 203 390 390 428 41 141> 299 56<203 340 203 340> 426 13 544 56<41 141 41 516 203 372 203 203> 690 116<178 210 390 422>
VStem: 134 120<731.5 764.5> 141 62<56 299 355 544> 340 62<205 299 299 299 355 439 205 439> 346 120<731.5 764.5> 454 62<426 452 452 493.5> 473 62<176 195 0 195>
LayerCount: 2
Fore
SplineSet
372 544 m 2xf340
 203 544 l 1
 203 355 l 1
 340 355 l 1
 340 439 l 1
 402 439 l 1
 402 205 l 1
 340 205 l 1
 340 299 l 1
 203 299 l 1
 203 56 l 1
 390 56 l 2
 466 56 473 65 473 176 c 2
 473 195 l 1
 535 195 l 1
 535 0 l 1xf320
 41 0 l 1
 41 56 l 1
 141 56 l 1
 141 544 l 1
 41 544 l 1
 41 600 l 1
 516 600 l 1
 516 426 l 1
 454 426 l 1
 454 452 l 2
 454 535 451 544 372 544 c 2xf340
134 748 m 0xfc80
 134 781 162 806 194 806 c 0
 226 806 254 781 254 748 c 0
 254 715 226 690 194 690 c 0
 162 690 134 715 134 748 c 0xfc80
346 748 m 0
 346 781 374 806 406 806 c 0
 438 806 466 781 466 748 c 0
 466 715 438 690 406 690 c 0
 374 690 346 715 346 748 c 0
EndSplineSet
EndChar

StartChar: Igrave
Encoding: 204 204 140
Width: 600
GlyphClass: 2
Flags: MW
HStem: 0 56<109 269 331 491 109 269> 544 56<109 269 109 491 331 491 331 331>
VStem: 269 62<56 544 56 544>
LayerCount: 2
Fore
SplineSet
109 600 m 1
 491 600 l 1
 491 544 l 1
 331 544 l 1
 331 56 l 1
 491 56 l 1
 491 0 l 1
 109 0 l 1
 109 56 l 1
 269 56 l 1
 269 544 l 1
 109 544 l 1
 109 600 l 1
194 846 m 1
 382 695 l 1
 346 651 l 1
 143 785 l 1
 194 846 l 1
EndSplineSet
EndChar

StartChar: Iacute
Encoding: 205 205 141
Width: 600
GlyphClass: 2
Flags: MW
HStem: 0 56<109 269 331 491 109 269> 544 56<109 269 109 491 331 491 331 331>
VStem: 269 62<56 544 56 544>
LayerCount: 2
Fore
SplineSet
109 600 m 1
 491 600 l 1
 491 544 l 1
 331 544 l 1
 331 56 l 1
 491 56 l 1
 491 0 l 1
 109 0 l 1
 109 56 l 1
 269 56 l 1
 269 544 l 1
 109 544 l 1
 109 600 l 1
406 846 m 1
 457 785 l 1
 255 651 l 1
 218 695 l 1
 406 846 l 1
EndSplineSet
EndChar

StartChar: Icircumflex
Encoding: 206 206 142
Width: 600
GlyphClass: 2
Flags: MW
HStem: 0 56<109 269 331 491 109 269> 544 56<109 269 109 491 331 491 331 331>
VStem: 269 62<56 544 56 544>
LayerCount: 2
Fore
SplineSet
109 600 m 1
 491 600 l 1
 491 544 l 1
 331 544 l 1
 331 56 l 1
 491 56 l 1
 491 0 l 1
 109 0 l 1
 109 56 l 1
 269 56 l 1
 269 544 l 1
 109 544 l 1
 109 600 l 1
300 749 m 1
 159 653 l 1
 122 690 l 1
 300 844 l 1
 478 690 l 1
 441 653 l 1
 300 749 l 1
EndSplineSet
EndChar

StartChar: Idieresis
Encoding: 207 207 143
Width: 600
GlyphClass: 2
Flags: MW
HStem: 0 56<109 269 331 491 109 269> 544 56<109 269 109 491 331 491 331 331> 690 116<178 210 390 422>
VStem: 134 120<731.5 764.5> 269 62<56 544 56 544> 346 120<731.5 764.5>
LayerCount: 2
Fore
SplineSet
109 600 m 1
 491 600 l 1
 491 544 l 1
 331 544 l 1
 331 56 l 1
 491 56 l 1
 491 0 l 1
 109 0 l 1
 109 56 l 1
 269 56 l 1
 269 544 l 1
 109 544 l 1
 109 600 l 1
134 748 m 0
 134 781 162 806 194 806 c 0
 226 806 254 781 254 748 c 0
 254 715 226 690 194 690 c 0
 162 690 134 715 134 748 c 0
346 748 m 0
 346 781 374 806 406 806 c 0
 438 806 466 781 466 748 c 0
 466 715 438 690 406 690 c 0
 374 690 346 715 346 748 c 0
EndSplineSet
EndChar

StartChar: Eth
Encoding: 208 208 144
Width: 600
GlyphClass: 2
Flags: MW
HStem: -8 21G<71 71> 0 56<285.5 306 306 360> 290 56<62 144 62 144 206 302> 540 60 553 47<65 67>
VStem: 144 62<56 290 56 290 346 536> 487 65<200 384>
LayerCount: 2
Fore
SplineSet
206 536 m 1x76
 206 346 l 1
 302 346 l 1
 302 290 l 1
 206 290 l 1
 206 56 l 1
 306 56 l 2
 414 56 487 116 487 284 c 0
 487 484 366 554 278 544 c 2
 206 536 l 1x76
174 4 m 2xb6
 71 -8 l 1
 62 48 l 1xb6
 144 56 l 1
 144 290 l 1
 62 290 l 1
 62 346 l 1
 144 346 l 1
 144 536 l 1x76
 65 553 l 1x6e
 67 600 l 1
 99 596 130 588 162 588 c 0
 201 588 239 600 285 600 c 0
 430 600 552 506 552 296 c 0
 552 76 442 0 308 0 c 0x76
 263 0 218 9 174 4 c 2xb6
EndSplineSet
EndChar

StartChar: Ntilde
Encoding: 209 209 145
Width: 600
GlyphClass: 2
Flags: MW
HStem: 0 56<26 100 162 254 26 100> 544 56<26 100 26 169 354 448 510 510 510 573> 695 59<360.5 382 360.5 387> 749 60<217.5 240.5>
VStem: 100 62<56 491 56 544 56 544> 140 64<692 692> 396 64<812 812> 448 62<115 544 0 544>
LayerCount: 2
Fore
SplineSet
26 600 m 1xc9
 169 600 l 1
 446 115 l 1
 448 115 l 1
 448 544 l 1
 354 544 l 1
 354 600 l 1
 573 600 l 1
 573 544 l 1
 510 544 l 1
 510 0 l 1
 446 0 l 1
 162 491 l 1
 162 56 l 1
 254 56 l 1
 254 0 l 1
 26 0 l 1
 26 56 l 1
 100 56 l 1
 100 544 l 1
 26 544 l 1
 26 600 l 1xc9
204 692 m 1xd5
 140 692 l 1
 138 722 143 751 157 773 c 0
 171 795 194 809 228 809 c 0xd5
 257 809 284 796 308 782 c 0
 332 768 353 754 368 754 c 0
 396 754 394 793 396 812 c 1
 460 812 l 1
 463 782 457 753 443 731 c 0
 429 709 405 695 369 695 c 0xea
 340 695 312 711 287 725 c 0
 273 733 249 749 232 749 c 0
 203 749 203 712 204 692 c 1xd5
EndSplineSet
EndChar

StartChar: Ograve
Encoding: 210 210 146
Width: 600
GlyphClass: 2
Flags: MW
HStem: -12 56<235.5 364.5 235.5 383> 556 56<235.5 364.5>
VStem: 60 65<243 357 243 376> 475 65<243 357>
LayerCount: 2
Fore
SplineSet
300 612 m 0
 466 612 540 452 540 300 c 0
 540 148 466 -12 300 -12 c 0
 134 -12 60 148 60 300 c 0
 60 452 134 612 300 612 c 0
300 44 m 0
 429 44 475 186 475 300 c 0
 475 414 429 556 300 556 c 0
 171 556 125 414 125 300 c 0
 125 186 171 44 300 44 c 0
194 846 m 1
 382 695 l 1
 346 651 l 1
 143 785 l 1
 194 846 l 1
EndSplineSet
EndChar

StartChar: Oacute
Encoding: 211 211 147
Width: 600
GlyphClass: 2
Flags: MW
HStem: -12 56<235.5 364.5 235.5 383> 556 56<235.5 364.5>
VStem: 60 65<243 357 243 376> 475 65<243 357>
LayerCount: 2
Fore
SplineSet
300 612 m 0
 466 612 540 452 540 300 c 0
 540 148 466 -12 300 -12 c 0
 134 -12 60 148 60 300 c 0
 60 452 134 612 300 612 c 0
300 44 m 0
 429 44 475 186 475 300 c 0
 475 414 429 556 300 556 c 0
 171 556 125 414 125 300 c 0
 125 186 171 44 300 44 c 0
406 846 m 1
 457 785 l 1
 255 651 l 1
 218 695 l 1
 406 846 l 1
EndSplineSet
EndChar

StartChar: Ocircumflex
Encoding: 212 212 148
Width: 600
GlyphClass: 2
Flags: MW
HStem: -12 56<235.5 364.5 235.5 383> 556 56<235.5 364.5>
VStem: 60 65<243 357 243 376> 475 65<243 357>
LayerCount: 2
Fore
SplineSet
300 612 m 0
 466 612 540 452 540 300 c 0
 540 148 466 -12 300 -12 c 0
 134 -12 60 148 60 300 c 0
 60 452 134 612 300 612 c 0
300 44 m 0
 429 44 475 186 475 300 c 0
 475 414 429 556 300 556 c 0
 171 556 125 414 125 300 c 0
 125 186 171 44 300 44 c 0
300 749 m 1
 159 653 l 1
 122 690 l 1
 300 844 l 1
 478 690 l 1
 441 653 l 1
 300 749 l 1
EndSplineSet
EndChar

StartChar: Otilde
Encoding: 213 213 149
Width: 600
GlyphClass: 2
Flags: MW
HStem: -12 56<235.5 364.5 235.5 383> 556 56<235.5 364.5> 695 59<360.5 382 360.5 387> 749 60<217.5 240.5>
VStem: 60 65<243 357 243 376> 140 64<692 692> 396 64<812 812> 475 65<243 357>
LayerCount: 2
Fore
SplineSet
300 612 m 0xc9
 466 612 540 452 540 300 c 0
 540 148 466 -12 300 -12 c 0
 134 -12 60 148 60 300 c 0
 60 452 134 612 300 612 c 0xc9
300 44 m 0
 429 44 475 186 475 300 c 0
 475 414 429 556 300 556 c 0
 171 556 125 414 125 300 c 0
 125 186 171 44 300 44 c 0
204 692 m 1xdd
 140 692 l 1
 138 722 143 751 157 773 c 0
 171 795 194 809 228 809 c 0xdd
 257 809 284 796 308 782 c 0
 332 768 353 754 368 754 c 0
 396 754 394 793 396 812 c 1
 460 812 l 1
 463 782 457 753 443 731 c 0
 429 709 405 695 369 695 c 0xeb
 340 695 312 711 287 725 c 0
 273 733 249 749 232 749 c 0
 203 749 203 712 204 692 c 1xdd
EndSplineSet
EndChar

StartChar: Odieresis
Encoding: 214 214 150
Width: 600
GlyphClass: 2
Flags: MW
HStem: -12 56<235.5 364.5 235.5 383> 556 56<235.5 364.5> 690 116<178 210 390 422>
VStem: 60 65<243 357 243 376> 134 120<731.5 764.5> 346 120<731.5 764.5> 475 65<243 357>
LayerCount: 2
Fore
SplineSet
300 612 m 0
 466 612 540 452 540 300 c 0
 540 148 466 -12 300 -12 c 0
 134 -12 60 148 60 300 c 0
 60 452 134 612 300 612 c 0
300 44 m 0
 429 44 475 186 475 300 c 0
 475 414 429 556 300 556 c 0
 171 556 125 414 125 300 c 0
 125 186 171 44 300 44 c 0
134 748 m 0
 134 781 162 806 194 806 c 0
 226 806 254 781 254 748 c 0
 254 715 226 690 194 690 c 0
 162 690 134 715 134 748 c 0
346 748 m 0
 346 781 374 806 406 806 c 0
 438 806 466 781 466 748 c 0
 466 715 438 690 406 690 c 0
 374 690 346 715 346 748 c 0
EndSplineSet
EndChar

StartChar: multiply
Encoding: 215 215 151
Width: 600
GlyphClass: 2
Flags: MW
HStem: 84 552<73 73 73 527>
VStem: 25 550<132 132 132 588>
LayerCount: 2
Fore
SplineSet
300 312 m 1
 73 84 l 1
 25 132 l 1
 253 360 l 1
 25 588 l 1
 73 636 l 1
 300 408 l 1
 527 636 l 1
 575 588 l 1
 347 360 l 1
 575 132 l 1
 527 84 l 1
 300 312 l 1
EndSplineSet
EndChar

StartChar: Oslash
Encoding: 216 216 152
Width: 600
GlyphClass: 2
Flags: MW
HStem: -12 21G<275.5 383> -12 56<280.5 364.5 280.5 383> 556 56<235.5 319.5>
VStem: 60 65<271.5 300 271.5 376> 475 65<243 328.5>
LayerCount: 2
Fore
SplineSet
166 34 m 1x78
 129 -25 l 1x78
 79 7 l 1
 124 77 l 1xb8
 75 148 60 226 60 300 c 0
 60 452 134 612 300 612 c 0
 349 612 395 597 433 566 c 1
 468 621 l 1
 518 589 l 1
 476 523 l 1
 525 452 540 386 540 300 c 0
 540 148 466 -12 300 -12 c 0
 251 -12 205 3 166 34 c 1x78
440 466 m 1
 198 85 l 1
 226 58 261 44 300 44 c 0
 429 44 475 186 475 300 c 0
 475 357 463 420 440 466 c 1
160 134 m 1
 402 516 l 1
 373 542 339 556 300 556 c 0
 171 556 126 414 125 300 c 0
 125 243 134 185 160 134 c 1
EndSplineSet
EndChar

StartChar: Ugrave
Encoding: 217 217 153
Width: 600
GlyphClass: 2
Flags: MW
HStem: -12 56<259 341 259 362.5> 544 56<44 111 44 247 173 173 173 247 353 427 489 556 489 489>
VStem: 111 62<175 184 184 544> 427 62<184 544>
LayerCount: 2
Fore
SplineSet
353 600 m 1
 556 600 l 1
 556 544 l 1
 489 544 l 1
 489 175 l 2
 489 45 425 -12 300 -12 c 0
 175 -12 111 45 111 175 c 2
 111 544 l 1
 44 544 l 1
 44 600 l 1
 247 600 l 1
 247 544 l 1
 173 544 l 1
 173 184 l 2
 173 76 218 44 300 44 c 0
 382 44 427 76 427 184 c 2
 427 544 l 1
 353 544 l 1
 353 600 l 1
194 846 m 1
 382 695 l 1
 346 651 l 1
 143 785 l 1
 194 846 l 1
EndSplineSet
EndChar

StartChar: Uacute
Encoding: 218 218 154
Width: 600
GlyphClass: 2
Flags: MW
HStem: -12 56<259 341 259 362.5> 544 56<44 111 44 247 173 173 173 247 353 427 489 556 489 489>
VStem: 111 62<175 184 184 544> 427 62<184 544>
LayerCount: 2
Fore
SplineSet
353 600 m 1
 556 600 l 1
 556 544 l 1
 489 544 l 1
 489 175 l 2
 489 45 425 -12 300 -12 c 0
 175 -12 111 45 111 175 c 2
 111 544 l 1
 44 544 l 1
 44 600 l 1
 247 600 l 1
 247 544 l 1
 173 544 l 1
 173 184 l 2
 173 76 218 44 300 44 c 0
 382 44 427 76 427 184 c 2
 427 544 l 1
 353 544 l 1
 353 600 l 1
406 846 m 1
 457 785 l 1
 255 651 l 1
 218 695 l 1
 406 846 l 1
EndSplineSet
EndChar

StartChar: Ucircumflex
Encoding: 219 219 155
Width: 600
GlyphClass: 2
Flags: MW
HStem: -12 56<259 341 259 362.5> 544 56<44 111 44 247 173 173 173 247 353 427 489 556 489 489>
VStem: 111 62<175 184 184 544> 427 62<184 544>
LayerCount: 2
Fore
SplineSet
353 600 m 1
 556 600 l 1
 556 544 l 1
 489 544 l 1
 489 175 l 2
 489 45 425 -12 300 -12 c 0
 175 -12 111 45 111 175 c 2
 111 544 l 1
 44 544 l 1
 44 600 l 1
 247 600 l 1
 247 544 l 1
 173 544 l 1
 173 184 l 2
 173 76 218 44 300 44 c 0
 382 44 427 76 427 184 c 2
 427 544 l 1
 353 544 l 1
 353 600 l 1
300 749 m 1
 159 653 l 1
 122 690 l 1
 300 844 l 1
 478 690 l 1
 441 653 l 1
 300 749 l 1
EndSplineSet
EndChar

StartChar: Udieresis
Encoding: 220 220 156
Width: 600
GlyphClass: 2
Flags: MW
HStem: -12 56<259 341 259 362.5> 544 56<44 111 44 247 173 173 173 247 353 427 489 556 489 489> 690 116<178 210 390 422>
VStem: 111 62<175 184 184 544> 134 120<731.5 764.5> 346 120<731.5 764.5> 427 62<184 544>
LayerCount: 2
Fore
SplineSet
353 600 m 1xd2
 556 600 l 1
 556 544 l 1
 489 544 l 1
 489 175 l 2
 489 45 425 -12 300 -12 c 0
 175 -12 111 45 111 175 c 2
 111 544 l 1
 44 544 l 1
 44 600 l 1
 247 600 l 1
 247 544 l 1
 173 544 l 1
 173 184 l 2
 173 76 218 44 300 44 c 0
 382 44 427 76 427 184 c 2
 427 544 l 1
 353 544 l 1
 353 600 l 1xd2
134 748 m 0xec
 134 781 162 806 194 806 c 0
 226 806 254 781 254 748 c 0
 254 715 226 690 194 690 c 0
 162 690 134 715 134 748 c 0xec
346 748 m 0
 346 781 374 806 406 806 c 0
 438 806 466 781 466 748 c 0
 466 715 438 690 406 690 c 0
 374 690 346 715 346 748 c 0
EndSplineSet
EndChar

StartChar: Yacute
Encoding: 221 221 157
Width: 600
GlyphClass: 2
Flags: MW
HStem: 0 56<138 269 331 462 138 269> 544 56<31 93 31 243 161 243 161 161 357 439 507 507 507 569>
VStem: 31 212<544 600 544 600> 269 62<56 260 56 260> 357 212<544 600 544 600>
LayerCount: 2
Fore
SplineSet
31 600 m 1
 243 600 l 1
 243 544 l 1
 161 544 l 1
 300 318 l 1
 439 544 l 1
 357 544 l 1
 357 600 l 1
 569 600 l 1
 569 544 l 1
 507 544 l 1
 331 260 l 1
 331 56 l 1
 462 56 l 1
 462 0 l 1
 138 0 l 1
 138 56 l 1
 269 56 l 1
 269 260 l 1
 93 544 l 1
 31 544 l 1
 31 600 l 1
406 846 m 1
 457 785 l 1
 255 651 l 1
 218 695 l 1
 406 846 l 1
EndSplineSet
EndChar

StartChar: Thorn
Encoding: 222 222 158
Width: 600
GlyphClass: 2
Flags: MW
HStem: 0 56<72 155 217 299 72 155> 202 46<217 300 300 302 217 300> 404 46<217 347 217 335> 544 56<72 299 72 155 217 217 217 299>
VStem: 155 62<56 202 56 248 248 404 450 544> 458 65<307.5 361.5>
LayerCount: 2
Fore
SplineSet
72 544 m 1
 72 600 l 1
 299 600 l 1
 299 544 l 1
 217 544 l 1
 217 450 l 1
 347 450 l 2
 442 450 523 418 523 338 c 0
 523 256 448 202 302 202 c 2
 217 202 l 1
 217 56 l 1
 299 56 l 1
 299 0 l 1
 72 0 l 1
 72 56 l 1
 155 56 l 1
 155 544 l 1
 72 544 l 1
217 404 m 1
 217 248 l 1
 300 248 l 2
 407 248 458 279 458 336 c 0
 458 387 405 404 335 404 c 2
 217 404 l 1
EndSplineSet
EndChar

StartChar: germandbls
Encoding: 223 223 159
Width: 600
GlyphClass: 2
Flags: MW
HStem: -12 56<333.5 391.5 333.5 408.5> 0 56<58 137 58 199 58 137> 292 59<276 276> 556 56<262 341.5>
VStem: 137 62<56 364 0 404 0 488.5> 230 59<123 125 125 145 101.5 145> 419 65<422 483> 456 65<131 200 116.5 216>
LayerCount: 2
Fore
SplineSet
276 292 m 1x7d
 276 351 l 1
 346 352 419 360 419 448 c 0
 419 518 376 556 307 556 c 0
 190 556 199 450 199 364 c 2
 199 0 l 1
 58 0 l 1
 58 56 l 1
 137 56 l 1
 137 404 l 2
 137 573 217 612 307 612 c 0
 401 612 484 556 484 455 c 0x7e
 484 389 465 362 413 326 c 1
 482 303 521 235 521 165 c 0
 521 68 459 -12 358 -12 c 0
 275 -12 230 42 230 123 c 2
 230 145 l 1
 289 145 l 1
 289 125 l 2
 289 78 307 44 360 44 c 0xbd
 423 44 456 102 456 160 c 0
 456 272 369 291 276 292 c 1x7d
EndSplineSet
EndChar

StartChar: agrave
Encoding: 224 224 160
Width: 600
GlyphClass: 2
Flags: MW
HStem: -12 56<196 245> 0 56<457 540 457 540> 197 53<395 395> 370 56<303 366> 579 20G<143 143>
VStem: 73 65<79.5 128 79.5 144> 124 62<272 331 272 368 272 368> 395 62<0 301 30 301 93 197 197 197 250 276 276 301 56 304.5>
LayerCount: 2
Fore
SplineSet
395 0 m 1x7b
 395 30 l 1
 335 5 277 -12 213 -12 c 0
 140 -12 73 22 73 103 c 0xbd
 73 185 136 214 205 230 c 0
 267 245 328 248 395 250 c 1
 395 276 l 2
 395 333 404 370 328 370 c 0
 278 370 228 359 186 331 c 1
 186 272 l 1
 124 272 l 1
 124 368 l 1
 182 403 254 426 319 426 c 0
 421 426 457 399 457 301 c 2
 457 56 l 1
 540 56 l 1
 540 0 l 1
 395 0 l 1x7b
395 93 m 1
 395 197 l 1
 338 195 276 190 222 177 c 0
 181 167 138 153 138 103 c 0
 138 56 176 44 216 44 c 0
 278 44 339 67 395 93 c 1
194 660 m 1
 382 509 l 1
 346 465 l 1
 143 599 l 1
 194 660 l 1
EndSplineSet
EndChar

StartChar: aacute
Encoding: 225 225 161
Width: 600
GlyphClass: 2
Flags: MW
HStem: -12 56<196 245> 0 56<457 540 457 540> 197 53<395 395> 370 56<303 366> 579 20G<457 457>
VStem: 73 65<79.5 128 79.5 144> 124 62<272 331 272 368 272 368> 395 62<0 301 30 301 93 197 197 197 250 276 276 301 56 304.5>
LayerCount: 2
Fore
SplineSet
395 0 m 1x7b
 395 30 l 1
 335 5 277 -12 213 -12 c 0
 140 -12 73 22 73 103 c 0xbd
 73 185 136 214 205 230 c 0
 267 245 328 248 395 250 c 1
 395 276 l 2
 395 333 404 370 328 370 c 0
 278 370 228 359 186 331 c 1
 186 272 l 1
 124 272 l 1
 124 368 l 1
 182 403 254 426 319 426 c 0
 421 426 457 399 457 301 c 2
 457 56 l 1
 540 56 l 1
 540 0 l 1
 395 0 l 1x7b
395 93 m 1
 395 197 l 1
 338 195 276 190 222 177 c 0
 181 167 138 153 138 103 c 0
 138 56 176 44 216 44 c 0
 278 44 339 67 395 93 c 1
406 660 m 1
 457 599 l 1
 255 465 l 1
 218 509 l 1
 406 660 l 1
EndSplineSet
EndChar

StartChar: acircumflex
Encoding: 226 226 162
Width: 600
GlyphClass: 2
Flags: MW
HStem: -12 56<196 245> 0 56<457 540 457 540> 197 53<395 395> 370 56<303 366>
VStem: 73 65<79.5 128 79.5 144> 124 62<272 331 272 368 272 368> 395 62<0 301 30 301 93 197 197 197 250 276 276 301 56 304.5>
LayerCount: 2
Fore
SplineSet
395 0 m 1x76
 395 30 l 1
 335 5 277 -12 213 -12 c 0
 140 -12 73 22 73 103 c 0xba
 73 185 136 214 205 230 c 0
 267 245 328 248 395 250 c 1
 395 276 l 2
 395 333 404 370 328 370 c 0
 278 370 228 359 186 331 c 1
 186 272 l 1
 124 272 l 1
 124 368 l 1
 182 403 254 426 319 426 c 0
 421 426 457 399 457 301 c 2
 457 56 l 1
 540 56 l 1
 540 0 l 1
 395 0 l 1x76
395 93 m 1
 395 197 l 1
 338 195 276 190 222 177 c 0
 181 167 138 153 138 103 c 0
 138 56 176 44 216 44 c 0
 278 44 339 67 395 93 c 1
300 563 m 1
 159 467 l 1
 122 504 l 1
 300 658 l 1
 478 504 l 1
 441 467 l 1
 300 563 l 1
EndSplineSet
EndChar

StartChar: atilde
Encoding: 227 227 163
Width: 600
GlyphClass: 2
Flags: MW
HStem: -12 56<196 245> 0 56<457 540 457 540> 197 53<395 395> 370 56<303 366> 509 59<360.5 382 360.5 387> 563 60<217.5 240.5>
VStem: 73 65<79.5 128 79.5 144> 124 62<272 331 272 368 272 368> 140 64<506 506> 395 62<0 301 30 301 93 197 197 197 250 276 276 301 56 304.5> 396 64<626 626>
LayerCount: 2
Fore
SplineSet
395 0 m 1x7540
 395 30 l 1
 335 5 277 -12 213 -12 c 0
 140 -12 73 22 73 103 c 0xb640
 73 185 136 214 205 230 c 0
 267 245 328 248 395 250 c 1
 395 276 l 2
 395 333 404 370 328 370 c 0
 278 370 228 359 186 331 c 1
 186 272 l 1
 124 272 l 1
 124 368 l 1
 182 403 254 426 319 426 c 0
 421 426 457 399 457 301 c 2
 457 56 l 1
 540 56 l 1
 540 0 l 1
 395 0 l 1x7540
395 93 m 1
 395 197 l 1
 338 195 276 190 222 177 c 0
 181 167 138 153 138 103 c 0
 138 56 176 44 216 44 c 0
 278 44 339 67 395 93 c 1
204 506 m 1x74c0
 140 506 l 1
 138 536 143 565 157 587 c 0
 171 609 194 623 228 623 c 0x74c0
 257 623 284 610 308 596 c 0
 332 582 353 568 368 568 c 0
 396 568 394 607 396 626 c 1
 460 626 l 1
 463 596 457 567 443 545 c 0
 429 523 405 509 369 509 c 0x7920
 340 509 312 525 287 539 c 0
 273 547 249 563 232 563 c 0
 203 563 203 526 204 506 c 1x74c0
EndSplineSet
EndChar

StartChar: adieresis
Encoding: 228 228 164
Width: 600
GlyphClass: 2
Flags: MW
HStem: -12 56<196 245> 0 56<457 540 457 540> 197 53<395 395> 370 56<303 366> 504 116<178 210 390 422>
VStem: 73 65<79.5 128 79.5 144> 124 62<272 331 272 368 272 368> 134 120<545.5 578.5> 346 120<545.5 578.5> 395 62<0 301 30 301 93 197 197 197 250 276 276 301 56 304.5>
LayerCount: 2
Fore
SplineSet
395 0 m 1x7a40
 395 30 l 1
 335 5 277 -12 213 -12 c 0
 140 -12 73 22 73 103 c 0xbc40
 73 185 136 214 205 230 c 0
 267 245 328 248 395 250 c 1
 395 276 l 2
 395 333 404 370 328 370 c 0
 278 370 228 359 186 331 c 1
 186 272 l 1
 124 272 l 1
 124 368 l 1
 182 403 254 426 319 426 c 0
 421 426 457 399 457 301 c 2
 457 56 l 1
 540 56 l 1
 540 0 l 1
 395 0 l 1x7a40
395 93 m 1
 395 197 l 1
 338 195 276 190 222 177 c 0
 181 167 138 153 138 103 c 0
 138 56 176 44 216 44 c 0
 278 44 339 67 395 93 c 1
134 562 m 0x7980
 134 595 162 620 194 620 c 0
 226 620 254 595 254 562 c 0
 254 529 226 504 194 504 c 0
 162 504 134 529 134 562 c 0x7980
346 562 m 0
 346 595 374 620 406 620 c 0
 438 620 466 595 466 562 c 0
 466 529 438 504 406 504 c 0
 374 504 346 529 346 562 c 0
EndSplineSet
EndChar

StartChar: aring
Encoding: 229 229 165
Width: 600
GlyphClass: 2
Flags: MW
HStem: -12 56<196 245> 0 56<457 540 457 540> 197 53<395 395> 370 56<303 366> 473 49<289.5 310.5 289.5 325> 602 49<289.5 310.5>
VStem: 73 65<79.5 128 79.5 144> 124 62<272 331 272 368 272 368> 208 59<552.5 571.5 552.5 587> 333 59<552.5 571.5> 395 62<0 301 30 301 93 197 197 197 250 276 276 301 56 304.5>
LayerCount: 2
Fore
SplineSet
395 0 m 1x7d20
 395 30 l 1
 335 5 277 -12 213 -12 c 0
 140 -12 73 22 73 103 c 0xbea0
 73 185 136 214 205 230 c 0
 267 245 328 248 395 250 c 1
 395 276 l 2
 395 333 404 370 328 370 c 0
 278 370 228 359 186 331 c 1
 186 272 l 1
 124 272 l 1
 124 368 l 1
 182 403 254 426 319 426 c 0
 421 426 457 399 457 301 c 2
 457 56 l 1
 540 56 l 1
 540 0 l 1
 395 0 l 1x7d20
395 93 m 1
 395 197 l 1
 338 195 276 190 222 177 c 0
 181 167 138 153 138 103 c 0
 138 56 176 44 216 44 c 0
 278 44 339 67 395 93 c 1
208 562 m 0
 208 612 251 651 300 651 c 0
 350 651 392 613 392 562 c 0x7d40
 392 512 350 473 300 473 c 0
 250 473 208 512 208 562 c 0
267 562 m 0
 267 543 279 522 300 522 c 0
 321 522 333 543 333 562 c 0
 333 581 321 602 300 602 c 0
 279 602 267 581 267 562 c 0
EndSplineSet
EndChar

StartChar: ae
Encoding: 230 230 166
Width: 600
GlyphClass: 2
Flags: MW
HStem: -12 56<162.5 203.5 162.5 206.5 396.5 448> 183 56<220 230 230 285 347 513> 370 56<204 240 195 244.5 400 452>
VStem: 33 65<89.5 138.5 89.5 140> 65 62<281 342 281 379 281 379> 285 62<108.5 144 144 183 108.5 183 239 261> 513 60<235 272>
LayerCount: 2
Fore
SplineSet
347 239 m 1xee
 513 239 l 1
 513 305 488 370 416 370 c 0
 355 370 347 331 347 261 c 2
 347 239 l 1xee
285 183 m 1
 230 183 l 2
 136 183 98 164 98 113 c 0
 98 66 141 44 184 44 c 0xf6
 223 44 257 59 285 85 c 1
 285 183 l 1
573 235 m 2
 569 183 l 1
 347 183 l 1
 347 144 l 2
 347 73 355 44 423 44 c 0
 474 44 516 73 553 105 c 1
 587 59 l 1
 538 19 481 -12 415 -12 c 0
 378 -12 336 2 312 32 c 1
 274 3 230 -12 183 -12 c 0
 122 -12 33 21 33 110 c 0xf6
 33 170 68 239 220 239 c 2
 285 239 l 1
 285 273 l 2
 285 338 270 370 219 370 c 0
 189 370 154 356 127 342 c 1
 127 281 l 1
 65 281 l 1
 65 379 l 1xee
 110 400 170 426 220 426 c 0
 260 426 292 412 316 382 c 1
 341 414 380 426 420 426 c 0
 517 426 581 345 573 235 c 2
EndSplineSet
EndChar

StartChar: ccedilla
Encoding: 231 231 167
Width: 600
GlyphClass: 2
Flags: MW
HStem: -206 56<277.5 306.5 274.5 326.5> -80 56<302 316> -12 56<319 319> -6 21G<261 261> 370 56<263.5 341.5>
VStem: 86 65<160.5 256.5 160.5 269> 360 65<-125.5 -96.5> 406 62
LayerCount: 2
Fore
SplineSet
487 88 m 1xad
 509 37 l 1
 453 7 382 -11 319 -12 c 1xad
 316 -24 l 1
 370 -23 425 -49 425 -110 c 0
 425 -179 356 -206 297 -206 c 0
 258 -206 217 -197 183 -178 c 1
 183 -119 l 1
 218 -135 255 -150 294 -150 c 0
 319 -150 360 -141 360 -110 c 0
 360 -83 322 -80 302 -80 c 2
 241 -86 l 1xee
 261 -6 l 1x9d
 160 14 86 91 86 203 c 0
 86 335 185 426 315 426 c 0
 370 426 440 409 468 356 c 1
 466 306 l 1
 469 255 l 1
 405 255 l 1
 406 283 l 2
 408 348 373 370 310 370 c 0
 217 370 151 303 151 210 c 0
 151 111 218 44 317 44 c 0
 374 44 436 62 487 88 c 1xad
EndSplineSet
EndChar

StartChar: egrave
Encoding: 232 232 168
Width: 600
GlyphClass: 2
Flags: MW
HStem: -12 56<279.5 360> 183 56<152 451 152 510 152 451> 370 56<273 348.5> 579 20G<143 143>
VStem: 87 65<183 183 183 239 183 262> 451 63<239 278>
LayerCount: 2
Fore
SplineSet
510 183 m 1
 152 183 l 1
 158 96 226 44 333 44 c 0
 396 44 456 64 518 91 c 1
 536 40 l 1
 473 9 395 -12 325 -12 c 0
 144 -12 87 108 87 198 c 0
 87 326 181 426 310 426 c 0
 433 426 514 349 514 225 c 0
 514 211 513 197 510 183 c 1
152 239 m 1
 451 239 l 1
 451 317 386 370 311 370 c 0
 235 370 167 314 152 239 c 1
194 660 m 1
 382 509 l 1
 346 465 l 1
 143 599 l 1
 194 660 l 1
EndSplineSet
EndChar

StartChar: eacute
Encoding: 233 233 169
Width: 600
GlyphClass: 2
Flags: MW
HStem: -12 56<279.5 360> 183 56<152 451 152 510 152 451> 370 56<273 348.5> 579 20G<457 457>
VStem: 87 65<183 183 183 239 183 262> 451 63<239 278>
LayerCount: 2
Fore
SplineSet
510 183 m 1
 152 183 l 1
 158 96 226 44 333 44 c 0
 396 44 456 64 518 91 c 1
 536 40 l 1
 473 9 395 -12 325 -12 c 0
 144 -12 87 108 87 198 c 0
 87 326 181 426 310 426 c 0
 433 426 514 349 514 225 c 0
 514 211 513 197 510 183 c 1
152 239 m 1
 451 239 l 1
 451 317 386 370 311 370 c 0
 235 370 167 314 152 239 c 1
406 660 m 1
 457 599 l 1
 255 465 l 1
 218 509 l 1
 406 660 l 1
EndSplineSet
EndChar

StartChar: ecircumflex
Encoding: 234 234 170
Width: 600
GlyphClass: 2
Flags: MW
HStem: -12 56<279.5 360> 183 56<152 451 152 510 152 451> 370 56<273 348.5>
VStem: 87 65<183 183 183 239 183 262> 451 63<239 278>
LayerCount: 2
Fore
SplineSet
510 183 m 1
 152 183 l 1
 158 96 226 44 333 44 c 0
 396 44 456 64 518 91 c 1
 536 40 l 1
 473 9 395 -12 325 -12 c 0
 144 -12 87 108 87 198 c 0
 87 326 181 426 310 426 c 0
 433 426 514 349 514 225 c 0
 514 211 513 197 510 183 c 1
152 239 m 1
 451 239 l 1
 451 317 386 370 311 370 c 0
 235 370 167 314 152 239 c 1
300 563 m 1
 159 467 l 1
 122 504 l 1
 300 658 l 1
 478 504 l 1
 441 467 l 1
 300 563 l 1
EndSplineSet
EndChar

StartChar: edieresis
Encoding: 235 235 171
Width: 600
GlyphClass: 2
Flags: MW
HStem: -12 56<279.5 360> 183 56<152 451 152 510 152 451> 370 56<273 348.5> 504 116<178 210 390 422>
VStem: 87 65<183 183 183 239 183 262> 134 120<545.5 578.5> 346 120<545.5 578.5> 451 63<239 278>
LayerCount: 2
Fore
SplineSet
510 183 m 1xe9
 152 183 l 1
 158 96 226 44 333 44 c 0
 396 44 456 64 518 91 c 1
 536 40 l 1
 473 9 395 -12 325 -12 c 0
 144 -12 87 108 87 198 c 0
 87 326 181 426 310 426 c 0
 433 426 514 349 514 225 c 0
 514 211 513 197 510 183 c 1xe9
152 239 m 1
 451 239 l 1
 451 317 386 370 311 370 c 0
 235 370 167 314 152 239 c 1
134 562 m 0xf6
 134 595 162 620 194 620 c 0
 226 620 254 595 254 562 c 0
 254 529 226 504 194 504 c 0
 162 504 134 529 134 562 c 0xf6
346 562 m 0
 346 595 374 620 406 620 c 0
 438 620 466 595 466 562 c 0
 466 529 438 504 406 504 c 0
 374 504 346 529 346 562 c 0
EndSplineSet
EndChar

StartChar: igrave
Encoding: 236 236 172
Width: 600
GlyphClass: 2
Flags: MW
HStem: 0 56<102 301 102 301 363 539> 346 54<194 198> 579 20G<143 143>
VStem: 301 62<56 356 356 356>
LayerCount: 2
Fore
SplineSet
102 0 m 1
 102 56 l 1
 301 56 l 1
 301 356 l 1
 267 350 233 344 198 346 c 2
 113 351 l 1
 103 406 l 1
 194 400 l 2
 225 398 284 402 306 428 c 0
 314 437 320 443 333 443 c 0
 364 443 363 413 363 391 c 2
 363 56 l 1
 539 56 l 1
 539 0 l 1
 102 0 l 1
194 660 m 1
 382 509 l 1
 346 465 l 1
 143 599 l 1
 194 660 l 1
EndSplineSet
EndChar

StartChar: iacute
Encoding: 237 237 173
Width: 600
GlyphClass: 2
Flags: MW
HStem: 0 56<102 301 102 301 363 539> 346 54<194 198> 579 20G<457 457>
VStem: 301 62<56 356 356 356>
LayerCount: 2
Fore
SplineSet
102 0 m 1
 102 56 l 1
 301 56 l 1
 301 356 l 1
 267 350 233 344 198 346 c 2
 113 351 l 1
 103 406 l 1
 194 400 l 2
 225 398 284 402 306 428 c 0
 314 437 320 443 333 443 c 0
 364 443 363 413 363 391 c 2
 363 56 l 1
 539 56 l 1
 539 0 l 1
 102 0 l 1
406 660 m 1
 457 599 l 1
 255 465 l 1
 218 509 l 1
 406 660 l 1
EndSplineSet
EndChar

StartChar: icircumflex
Encoding: 238 238 174
Width: 600
GlyphClass: 2
Flags: MW
HStem: 0 56<102 301 102 301 363 539> 346 54<194 198>
VStem: 301 62<56 356 356 356>
LayerCount: 2
Fore
SplineSet
102 0 m 1
 102 56 l 1
 301 56 l 1
 301 356 l 1
 267 350 233 344 198 346 c 2
 113 351 l 1
 103 406 l 1
 194 400 l 2
 225 398 284 402 306 428 c 0
 314 437 320 443 333 443 c 0
 364 443 363 413 363 391 c 2
 363 56 l 1
 539 56 l 1
 539 0 l 1
 102 0 l 1
300 563 m 1
 159 467 l 1
 122 504 l 1
 300 658 l 1
 478 504 l 1
 441 467 l 1
 300 563 l 1
EndSplineSet
EndChar

StartChar: idieresis
Encoding: 239 239 175
Width: 600
GlyphClass: 2
Flags: MW
HStem: 0 56<102 301 102 301 363 539> 346 54<194 198> 504 116<178 210 390 422>
VStem: 134 120<545.5 578.5> 301 62<56 356 356 356> 346 120<545.5 578.5>
LayerCount: 2
Fore
SplineSet
102 0 m 1xf8
 102 56 l 1
 301 56 l 1
 301 356 l 1
 267 350 233 344 198 346 c 2
 113 351 l 1
 103 406 l 1
 194 400 l 2
 225 398 284 402 306 428 c 0
 314 437 320 443 333 443 c 0
 364 443 363 413 363 391 c 2
 363 56 l 1
 539 56 l 1
 539 0 l 1
 102 0 l 1xf8
134 562 m 0
 134 595 162 620 194 620 c 0
 226 620 254 595 254 562 c 0
 254 529 226 504 194 504 c 0
 162 504 134 529 134 562 c 0
346 562 m 0xf4
 346 595 374 620 406 620 c 0
 438 620 466 595 466 562 c 0
 466 529 438 504 406 504 c 0
 374 504 346 529 346 562 c 0xf4
EndSplineSet
EndChar

StartChar: eth
Encoding: 240 240 176
Width: 600
GlyphClass: 2
Flags: MW
HStem: -12 56<254 346 254 362> 370 56<254 317.5 238 346> 579 20G<321 321> 636 20G<204 204 398 398>
VStem: 82 65<163 251.5 163 269> 453 65<163 251.5>
LayerCount: 2
Fore
SplineSet
300 44 m 0
 392 44 453 119 453 207 c 0
 453 296 392 370 300 370 c 0
 208 370 147 296 147 207 c 0
 147 119 208 44 300 44 c 0
321 599 m 1
 398 656 l 1
 424 621 l 1
 356 570 l 1
 443 491 518 366 518 207 c 0
 518 84 424 -12 300 -12 c 0
 176 -12 82 84 82 207 c 0
 82 331 176 426 300 426 c 0
 335 426 374 417 406 400 c 1
 381 456 348 501 312 538 c 1
 220 469 l 1
 194 504 l 1
 281 569 l 1
 251 596 220 617 194 634 c 1
 204 656 l 1
 240 648 281 628 321 599 c 1
EndSplineSet
EndChar

StartChar: ntilde
Encoding: 241 241 177
Width: 600
GlyphClass: 2
Flags: MW
HStem: 0 56<52 120 182 250 52 120 351 419 481 549> 353 46 370 56<312.5 365 312 382> 509 59<360.5 382 360.5 387> 563 60<217.5 240.5>
VStem: 120 62<56 314 56 358 56 358> 140 64<506 506> 396 64<626 626> 419 62<56 241 241 243 56 271.5>
LayerCount: 2
Fore
SplineSet
182 314 m 1xac80
 182 56 l 1
 250 56 l 1
 250 0 l 1
 52 0 l 1
 52 56 l 1
 120 56 l 1
 120 358 l 1
 47 348 l 1
 38 399 l 1
 70 401 103 405 126 426 c 0
 134 435 140 443 153 443 c 0
 182 443 182 415 182 393 c 2xcc80
 182 378 l 1
 233 402 283 426 341 426 c 0
 389 426 441 408 464 363 c 0
 482 328 481 282 481 243 c 2
 481 56 l 1
 549 56 l 1
 549 0 l 1
 351 0 l 1
 351 56 l 1
 419 56 l 1
 419 241 l 2
 419 302 423 370 341 370 c 0
 284 370 229 343 182 314 c 1xac80
204 506 m 1xaa80
 140 506 l 1
 138 536 143 565 157 587 c 0
 171 609 194 623 228 623 c 0xaa80
 257 623 284 610 308 596 c 0
 332 582 353 568 368 568 c 0
 396 568 394 607 396 626 c 1
 460 626 l 1
 463 596 457 567 443 545 c 0
 429 523 405 509 369 509 c 0xb5
 340 509 312 525 287 539 c 0
 273 547 249 563 232 563 c 0
 203 563 203 526 204 506 c 1xaa80
EndSplineSet
EndChar

StartChar: ograve
Encoding: 242 242 178
Width: 600
GlyphClass: 2
Flags: MW
HStem: -12 56<254 346 254 362> 370 56<254 346> 579 20G<143 143>
VStem: 82 65<163 251.5 163 269> 453 65<163 251.5>
LayerCount: 2
Fore
SplineSet
300 -12 m 0
 176 -12 82 84 82 207 c 0
 82 331 176 426 300 426 c 0
 424 426 518 331 518 207 c 0
 518 84 424 -12 300 -12 c 0
300 44 m 0
 392 44 453 119 453 207 c 0
 453 296 392 370 300 370 c 0
 208 370 147 296 147 207 c 0
 147 119 208 44 300 44 c 0
194 660 m 1
 382 509 l 1
 346 465 l 1
 143 599 l 1
 194 660 l 1
EndSplineSet
EndChar

StartChar: oacute
Encoding: 243 243 179
Width: 600
GlyphClass: 2
Flags: MW
HStem: -12 56<254 346 254 362> 370 56<254 346> 579 20G<457 457>
VStem: 82 65<163 251.5 163 269> 453 65<163 251.5>
LayerCount: 2
Fore
SplineSet
300 -12 m 0
 176 -12 82 84 82 207 c 0
 82 331 176 426 300 426 c 0
 424 426 518 331 518 207 c 0
 518 84 424 -12 300 -12 c 0
300 44 m 0
 392 44 453 119 453 207 c 0
 453 296 392 370 300 370 c 0
 208 370 147 296 147 207 c 0
 147 119 208 44 300 44 c 0
406 660 m 1
 457 599 l 1
 255 465 l 1
 218 509 l 1
 406 660 l 1
EndSplineSet
EndChar

StartChar: ocircumflex
Encoding: 244 244 180
Width: 600
GlyphClass: 2
Flags: MW
HStem: -12 56<254 346 254 362> 370 56<254 346>
VStem: 82 65<163 251.5 163 269> 453 65<163 251.5>
LayerCount: 2
Fore
SplineSet
300 -12 m 0
 176 -12 82 84 82 207 c 0
 82 331 176 426 300 426 c 0
 424 426 518 331 518 207 c 0
 518 84 424 -12 300 -12 c 0
300 44 m 0
 392 44 453 119 453 207 c 0
 453 296 392 370 300 370 c 0
 208 370 147 296 147 207 c 0
 147 119 208 44 300 44 c 0
300 563 m 1
 159 467 l 1
 122 504 l 1
 300 658 l 1
 478 504 l 1
 441 467 l 1
 300 563 l 1
EndSplineSet
EndChar

StartChar: otilde
Encoding: 245 245 181
Width: 600
GlyphClass: 2
Flags: MW
HStem: -12 56<254 346 254 362> 370 56<254 346> 509 59<360.5 382 360.5 387> 563 60<217.5 240.5>
VStem: 82 65<163 251.5 163 269> 140 64<506 506> 396 64<626 626> 453 65<163 251.5>
LayerCount: 2
Fore
SplineSet
300 -12 m 0xc9
 176 -12 82 84 82 207 c 0
 82 331 176 426 300 426 c 0
 424 426 518 331 518 207 c 0
 518 84 424 -12 300 -12 c 0xc9
300 44 m 0
 392 44 453 119 453 207 c 0
 453 296 392 370 300 370 c 0
 208 370 147 296 147 207 c 0
 147 119 208 44 300 44 c 0
204 506 m 1xd5
 140 506 l 1
 138 536 143 565 157 587 c 0
 171 609 194 623 228 623 c 0xd5
 257 623 284 610 308 596 c 0
 332 582 353 568 368 568 c 0
 396 568 394 607 396 626 c 1
 460 626 l 1
 463 596 457 567 443 545 c 0
 429 523 405 509 369 509 c 0xea
 340 509 312 525 287 539 c 0
 273 547 249 563 232 563 c 0
 203 563 203 526 204 506 c 1xd5
EndSplineSet
EndChar

StartChar: odieresis
Encoding: 246 246 182
Width: 600
GlyphClass: 2
Flags: MW
HStem: -12 56<254 346 254 362> 370 56<254 346> 504 116<178 210 390 422>
VStem: 82 65<163 251.5 163 269> 134 120<545.5 578.5> 346 120<545.5 578.5> 453 65<163 251.5>
LayerCount: 2
Fore
SplineSet
300 -12 m 0xd2
 176 -12 82 84 82 207 c 0
 82 331 176 426 300 426 c 0
 424 426 518 331 518 207 c 0
 518 84 424 -12 300 -12 c 0xd2
300 44 m 0
 392 44 453 119 453 207 c 0
 453 296 392 370 300 370 c 0
 208 370 147 296 147 207 c 0
 147 119 208 44 300 44 c 0
134 562 m 0xec
 134 595 162 620 194 620 c 0
 226 620 254 595 254 562 c 0
 254 529 226 504 194 504 c 0
 162 504 134 529 134 562 c 0xec
346 562 m 0
 346 595 374 620 406 620 c 0
 438 620 466 595 466 562 c 0
 466 529 438 504 406 504 c 0
 374 504 346 529 346 562 c 0
EndSplineSet
EndChar

StartChar: divide
Encoding: 247 247 183
Width: 600
GlyphClass: 2
Flags: MW
HStem: 155 110<285 315> 327 66<25 575 25 575> 455 110<285 315>
VStem: 245 110<195 225 495 525>
CounterMasks: 1 e0
LayerCount: 2
Fore
SplineSet
575 393 m 1
 575 327 l 1
 25 327 l 1
 25 393 l 1
 575 393 l 1
355 210 m 0
 355 180 330 155 300 155 c 0
 270 155 245 180 245 210 c 0
 245 240 270 265 300 265 c 0
 330 265 355 240 355 210 c 0
355 510 m 0
 355 480 330 455 300 455 c 0
 270 455 245 480 245 510 c 0
 245 540 270 565 300 565 c 0
 330 565 355 540 355 510 c 0
EndSplineSet
EndChar

StartChar: oslash
Encoding: 248 248 184
Width: 600
GlyphClass: 2
Flags: MW
HStem: -12 56<287.5 346 287.5 362> 370 56<254 313.5> 395 20G
VStem: 82 65<188.5 207> 453 65<163 227.5>
LayerCount: 2
Fore
SplineSet
179 24 m 1xd8
 133 -31 l 1
 90 5 l 1
 136 61 l 1
 101 106 82 148 82 207 c 0
 81 331 176 426 300 426 c 0
 341 426 384 413 415 395 c 1
 462 452 l 1xd8
 507 415 l 1
 460 359 l 1xb8
 498 311 518 270 518 207 c 0
 518 84 424 -12 300 -12 c 0
 254 -12 217 2 179 24 c 1xd8
420 312 m 1
 216 69 l 1
 243 54 275 44 300 44 c 0
 392 44 453 119 453 207 c 0
 453 248 442 279 420 312 c 1
176 109 m 1
 377 350 l 1
 353 363 327 370 300 370 c 0
 208 370 147 296 147 207 c 0
 147 170 156 140 176 109 c 1
EndSplineSet
EndChar

StartChar: ugrave
Encoding: 249 249 185
Width: 600
GlyphClass: 2
Flags: MW
HStem: -12 56<239 297 239 300.5> 0 56<480 560 480 560> 353 46 579 20G<143 143>
VStem: 121 62<159 179 179 358 358 358> 418 62<0 393 25 393 86 358 358 358>
LayerCount: 2
Fore
SplineSet
418 0 m 1x7c
 418 25 l 1
 369 5 328 -12 273 -12 c 0
 177 -12 121 39 121 159 c 2
 121 358 l 1
 48 348 l 1
 39 399 l 1
 71 401 104 405 127 426 c 0
 135 435 141 443 154 443 c 0
 183 443 183 415 183 393 c 2
 183 179 l 2
 183 76 206 44 272 44 c 0
 322 44 374 64 418 86 c 1xbc
 418 358 l 1
 345 348 l 1
 336 399 l 1
 368 401 401 405 424 426 c 0
 432 435 438 443 451 443 c 0
 480 443 480 415 480 393 c 2
 480 56 l 1
 560 56 l 1
 560 0 l 1
 418 0 l 1x7c
194 660 m 1
 382 509 l 1
 346 465 l 1
 143 599 l 1
 194 660 l 1
EndSplineSet
EndChar

StartChar: uacute
Encoding: 250 250 186
Width: 600
GlyphClass: 2
Flags: MW
HStem: -12 56<239 297 239 300.5> 0 56<480 560 480 560> 353 46 579 20G<457 457>
VStem: 121 62<159 179 179 358 358 358> 418 62<0 393 25 393 86 358 358 358>
LayerCount: 2
Fore
SplineSet
418 0 m 1x7c
 418 25 l 1
 369 5 328 -12 273 -12 c 0
 177 -12 121 39 121 159 c 2
 121 358 l 1
 48 348 l 1
 39 399 l 1
 71 401 104 405 127 426 c 0
 135 435 141 443 154 443 c 0
 183 443 183 415 183 393 c 2
 183 179 l 2
 183 76 206 44 272 44 c 0
 322 44 374 64 418 86 c 1xbc
 418 358 l 1
 345 348 l 1
 336 399 l 1
 368 401 401 405 424 426 c 0
 432 435 438 443 451 443 c 0
 480 443 480 415 480 393 c 2
 480 56 l 1
 560 56 l 1
 560 0 l 1
 418 0 l 1x7c
406 660 m 1
 457 599 l 1
 255 465 l 1
 218 509 l 1
 406 660 l 1
EndSplineSet
EndChar

StartChar: ucircumflex
Encoding: 251 251 187
Width: 600
GlyphClass: 2
Flags: MW
HStem: -12 56<239 297 239 300.5> 0 56<480 560 480 560> 353 46
VStem: 121 62<159 179 179 358 358 358> 418 62<0 393 25 393 86 358 358 358>
LayerCount: 2
Fore
SplineSet
418 0 m 1x78
 418 25 l 1
 369 5 328 -12 273 -12 c 0
 177 -12 121 39 121 159 c 2
 121 358 l 1
 48 348 l 1
 39 399 l 1
 71 401 104 405 127 426 c 0
 135 435 141 443 154 443 c 0
 183 443 183 415 183 393 c 2
 183 179 l 2
 183 76 206 44 272 44 c 0
 322 44 374 64 418 86 c 1xb8
 418 358 l 1
 345 348 l 1
 336 399 l 1
 368 401 401 405 424 426 c 0
 432 435 438 443 451 443 c 0
 480 443 480 415 480 393 c 2
 480 56 l 1
 560 56 l 1
 560 0 l 1
 418 0 l 1x78
300 563 m 1
 159 467 l 1
 122 504 l 1
 300 658 l 1
 478 504 l 1
 441 467 l 1
 300 563 l 1
EndSplineSet
EndChar

StartChar: udieresis
Encoding: 252 252 188
Width: 600
GlyphClass: 2
Flags: MW
HStem: -12 56<239 297 239 300.5> 0 56<480 560 480 560> 353 46 504 116<178 210 390 422>
VStem: 121 62<159 179 179 358 358 358> 134 120<545.5 578.5> 346 120<545.5 578.5> 418 62<0 393 25 393 86 358 358 358>
LayerCount: 2
Fore
SplineSet
418 0 m 1x69
 418 25 l 1
 369 5 328 -12 273 -12 c 0
 177 -12 121 39 121 159 c 2
 121 358 l 1
 48 348 l 1
 39 399 l 1
 71 401 104 405 127 426 c 0
 135 435 141 443 154 443 c 0
 183 443 183 415 183 393 c 2
 183 179 l 2
 183 76 206 44 272 44 c 0
 322 44 374 64 418 86 c 1xa9
 418 358 l 1
 345 348 l 1
 336 399 l 1
 368 401 401 405 424 426 c 0
 432 435 438 443 451 443 c 0
 480 443 480 415 480 393 c 2
 480 56 l 1
 560 56 l 1
 560 0 l 1
 418 0 l 1x69
134 562 m 0x76
 134 595 162 620 194 620 c 0
 226 620 254 595 254 562 c 0
 254 529 226 504 194 504 c 0
 162 504 134 529 134 562 c 0x76
346 562 m 0
 346 595 374 620 406 620 c 0
 438 620 466 595 466 562 c 0
 466 529 438 504 406 504 c 0
 374 504 346 529 346 562 c 0
EndSplineSet
EndChar

StartChar: yacute
Encoding: 253 253 189
Width: 600
GlyphClass: 2
Flags: MW
HStem: -208 56<130.5 173 130.5 191.5> 358 56<40 103 40 248 170 248 170 170 343 422 486 486 486 550> 579 20G<457 457>
VStem: 40 208<358 414 358 414> 343 207<358 414 358 414>
LayerCount: 2
Fore
SplineSet
40 414 m 1
 248 414 l 1
 248 358 l 1
 170 358 l 1
 305 98 l 1
 422 358 l 1
 343 358 l 1
 343 414 l 1
 550 414 l 1
 550 358 l 1
 486 358 l 1
 301 -59 l 2
 268 -133 239 -208 144 -208 c 0
 105 -208 64 -194 33 -172 c 1
 57 -118 l 1
 82 -138 114 -152 147 -152 c 0
 199 -152 225 -81 243 -41 c 2
 274 28 l 1
 103 358 l 1
 40 358 l 1
 40 414 l 1
406 660 m 1
 457 599 l 1
 255 465 l 1
 218 509 l 1
 406 660 l 1
EndSplineSet
EndChar

StartChar: thorn
Encoding: 254 254 190
Width: 600
GlyphClass: 2
Flags: MW
HStem: -197 56<82 142 204 300 82 142> -12 56<295 343> 370 56<299.5 365> 522 46 592 20G<168.5 189.5>
VStem: 142 62<-141 7 69 304 382 527 527 527> 452 65<165 247.5>
LayerCount: 2
Fore
SplineSet
204 304 m 1
 204 69 l 1
 234 52 265 44 299 44 c 0
 391 44 452 121 452 209 c 0
 452 286 408 370 322 370 c 0
 277 370 229 341 204 304 c 1
204 562 m 2
 204 382 l 1
 244 408 273 426 323 426 c 0
 445 426 517 323 517 209 c 0
 517 41 372 -12 314 -12 c 0
 276 -12 240 -3 204 7 c 1
 204 -141 l 1
 300 -141 l 1
 300 -197 l 1
 82 -197 l 1
 82 -141 l 1
 142 -141 l 1
 142 527 l 1
 69 517 l 1
 60 568 l 1
 92 570 125 574 148 595 c 0
 156 604 162 612 175 612 c 0
 204 612 204 584 204 562 c 2
EndSplineSet
EndChar

StartChar: ydieresis
Encoding: 255 255 191
Width: 600
GlyphClass: 2
Flags: MW
HStem: -208 56<130.5 173 130.5 191.5> 358 56<40 103 40 248 170 248 170 170 343 422 486 486 486 550> 504 116<178 210 390 422>
VStem: 40 208<358 414 358 414> 134 120<545.5 578.5> 343 207<358 414 358 414> 346 120<545.5 578.5>
LayerCount: 2
Fore
SplineSet
40 414 m 1xf4
 248 414 l 1
 248 358 l 1
 170 358 l 1
 305 98 l 1
 422 358 l 1
 343 358 l 1
 343 414 l 1
 550 414 l 1
 550 358 l 1
 486 358 l 1
 301 -59 l 2
 268 -133 239 -208 144 -208 c 0
 105 -208 64 -194 33 -172 c 1
 57 -118 l 1
 82 -138 114 -152 147 -152 c 0
 199 -152 225 -81 243 -41 c 2
 274 28 l 1
 103 358 l 1
 40 358 l 1
 40 414 l 1xf4
134 562 m 0xea
 134 595 162 620 194 620 c 0
 226 620 254 595 254 562 c 0
 254 529 226 504 194 504 c 0
 162 504 134 529 134 562 c 0xea
346 562 m 0
 346 595 374 620 406 620 c 0
 438 620 466 595 466 562 c 0
 466 529 438 504 406 504 c 0
 374 504 346 529 346 562 c 0
EndSplineSet
EndChar

StartChar: dcroat
Encoding: 273 273 192
Width: 600
GlyphClass: 2
Flags: MW
HStem: -12 56<244 304> 0 56<455 533 455 533> 370 56<249 300.5 223 314> 468 56<246 393 246 393 455 533> 468 142<294 294 294 393 246 294> 559 51<294 303> 636 20G<419.5 440.5>
VStem: 80 65<162.5 248.5 162.5 261> 393 62<0 468 16 468 80 342 342 342 405 468 56 468 524 571 571 571>
LayerCount: 2
Fore
SplineSet
393 80 m 1xab80
 393 342 l 1
 364 359 331 370 297 370 c 0
 201 370 145 294 145 203 c 0
 145 122 201 44 287 44 c 0
 325 44 363 58 393 80 c 1xab80
393 0 m 1x6b80
 393 16 l 1
 355 0 325 -12 283 -12 c 0
 165 -12 80 90 80 204 c 0
 80 318 163 426 283 426 c 0
 318 426 359 415 393 405 c 1
 393 468 l 1
 246 468 l 1xab80
 246 524 l 1
 393 524 l 1
 393 571 l 1
 303 559 l 1x7780
 294 610 l 1x6b80
 326 616 376 612 399 639 c 0
 407 648 413 656 426 656 c 0
 455 656 455 628 455 606 c 2
 455 524 l 1
 533 524 l 1x7380
 533 468 l 1
 455 468 l 1
 455 56 l 1
 533 56 l 1
 533 0 l 1
 393 0 l 1x6b80
EndSplineSet
EndChar

StartChar: Hbar
Encoding: 294 294 193
Width: 600
GlyphClass: 2
Flags: MW
HStem: 0 56<33 116 178 261 33 116 339 422 484 567> 270 56<178 422 178 422> 407 56<33 116 33 116 178 422 484 567> 544 56<33 116 33 261 178 178 178 261 339 422 484 484 484 567>
VStem: 116 62<56 270 56 326 326 407 463 544> 422 62<56 270 270 270 326 407 56 407 463 544>
LayerCount: 2
Fore
SplineSet
178 326 m 1
 422 326 l 1
 422 407 l 1
 178 407 l 1
 178 326 l 1
484 407 m 1
 484 56 l 1
 567 56 l 1
 567 0 l 1
 339 0 l 1
 339 56 l 1
 422 56 l 1
 422 270 l 1
 178 270 l 1
 178 56 l 1
 261 56 l 1
 261 0 l 1
 33 0 l 1
 33 56 l 1
 116 56 l 1
 116 407 l 1
 33 407 l 1
 33 463 l 1
 116 463 l 1
 116 544 l 1
 33 544 l 1
 33 600 l 1
 261 600 l 1
 261 544 l 1
 178 544 l 1
 178 463 l 1
 422 463 l 1
 422 544 l 1
 339 544 l 1
 339 600 l 1
 567 600 l 1
 567 544 l 1
 484 544 l 1
 484 463 l 1
 567 463 l 1
 567 407 l 1
 484 407 l 1
EndSplineSet
EndChar

StartChar: hbar
Encoding: 295 295 194
Width: 600
GlyphClass: 2
Flags: MW
HStem: 0 56<50 120 182 250 50 120 351 419 481 549> 370 56<312.5 365 312 382> 468 56<21 120 21 120 182 321> 468 142<21 120 21 21> 559 51<21 30> 636 20G<146.5 167.5>
VStem: 120 62<56 314 378 468 524 571 571 571> 419 62<56 241 241 243 56 271.5>
LayerCount: 2
Fore
SplineSet
182 606 m 2xef
 182 524 l 1
 321 524 l 1
 321 468 l 1
 182 468 l 1
 182 378 l 1
 233 402 283 426 341 426 c 0
 389 426 441 408 464 363 c 0
 482 328 481 282 481 243 c 2
 481 56 l 1
 549 56 l 1
 549 0 l 1
 351 0 l 1
 351 56 l 1
 419 56 l 1
 419 241 l 2
 419 302 423 370 341 370 c 0
 284 370 229 343 182 314 c 1
 182 56 l 1
 250 56 l 1
 250 0 l 1
 50 0 l 1
 50 56 l 1
 120 56 l 1
 120 468 l 1
 21 468 l 1
 21 524 l 1
 120 524 l 1
 120 571 l 1
 30 559 l 1xef
 21 610 l 1xd7
 53 616 103 612 126 639 c 0
 134 648 140 656 153 656 c 0
 182 656 182 628 182 606 c 2xef
EndSplineSet
EndChar

StartChar: dotlessi
Encoding: 305 305 195
Width: 600
GlyphClass: 2
Flags: MW
HStem: 0 56<102 301 102 301 363 539> 346 54<194 198>
VStem: 301 62<56 356 356 356>
LayerCount: 2
Fore
SplineSet
102 0 m 1
 102 56 l 1
 301 56 l 1
 301 356 l 1
 267 350 233 344 198 346 c 2
 113 351 l 1
 103 406 l 1
 194 400 l 2
 225 398 284 402 306 428 c 0
 314 437 320 443 333 443 c 0
 364 443 363 413 363 391 c 2
 363 56 l 1
 539 56 l 1
 539 0 l 1
 102 0 l 1
EndSplineSet
EndChar

StartChar: IJ
Encoding: 306 306 196
Width: 600
GlyphClass: 2
Flags: MW
HStem: -12 58<404 448.5> 0 56<46 126 188 268 46 126> 544 56<46 126 46 268 188 268 188 188 404 466 528 528 528 578>
VStem: 126 62<56 544 56 544> 311 62<157 177 177 202 157 202> 466 62<132 544>
LayerCount: 2
Fore
SplineSet
46 600 m 1x7c
 268 600 l 1
 268 544 l 1
 188 544 l 1
 188 56 l 1
 268 56 l 1
 268 0 l 1
 46 0 l 1
 46 56 l 1
 126 56 l 1
 126 544 l 1
 46 544 l 1
 46 600 l 1x7c
404 600 m 1
 578 600 l 1
 578 544 l 1
 528 544 l 1
 528 131 l 2
 528 59 516 -12 426 -12 c 0
 382 -12 341 14 311 46 c 1
 311 202 l 1
 373 202 l 1
 373 177 l 2
 373 137 366 46 428 46 c 0
 469 46 466 104 466 132 c 2xbc
 466 544 l 1
 404 544 l 1
 404 600 l 1
EndSplineSet
EndChar

StartChar: ij
Encoding: 307 307 197
Width: 600
GlyphClass: 2
Flags: MW
HStem: -208 56<341.5 402.5> 0 56<40 157 40 157 219 336> 346 54<54 54 344 344> 517 125<160.5 195 463.5 498>
VStem: 113 129<561.5 597> 157 62<56 356 356 356> 416 129<561.5 597> 447 62<-18.5 3 3 356 356 356>
LayerCount: 2
Fore
SplineSet
40 0 m 1xf5
 40 56 l 1
 157 56 l 1
 157 356 l 1
 123 350 89 344 54 346 c 2
 26 348 l 1
 16 403 l 1
 50 400 l 2
 66 400 88 400 109 404 c 0
 131 408 151 415 162 428 c 0
 170 437 176 443 189 443 c 0
 220 443 219 413 219 391 c 2
 219 56 l 1
 336 56 l 1
 336 0 l 1
 40 0 l 1xf5
242 579 m 0xf9
 242 544 212 517 178 517 c 0
 143 517 113 544 113 579 c 0
 113 615 143 642 178 642 c 0
 212 642 242 615 242 579 c 0xf9
509 391 m 2
 509 3 l 2
 509 -40 511 -90 498 -131 c 0
 481 -186 430 -208 375 -208 c 0
 304 -208 225 -188 165 -148 c 1
 205 -98 l 1
 254 -131 312 -152 371 -152 c 0
 455 -152 447 -80 447 -19 c 2
 447 356 l 1
 413 350 379 344 344 346 c 2
 316 348 l 1
 306 403 l 1
 340 400 l 2
 356 400 378 400 399 404 c 0
 421 408 441 415 452 428 c 0
 460 437 466 443 479 443 c 0
 510 443 509 413 509 391 c 2
545 579 m 0xf6
 545 544 515 517 481 517 c 0
 446 517 416 544 416 579 c 0
 416 615 446 642 481 642 c 0
 515 642 545 615 545 579 c 0xf6
EndSplineSet
EndChar

StartChar: kgreenlandic
Encoding: 312 312 198
Width: 600
GlyphClass: 2
Flags: MW
HStem: 0 56<34 129 191 266 34 129 364 409 483 560> 433 51<30 39> 474 56<512 526>
VStem: 129 62<56 133 219 445 445 445> 364 196<0 56 0 56>
LayerCount: 2
Fore
SplineSet
191 480 m 2xd8
 191 219 l 1
 408 485 l 2
 436 519 488 530 526 530 c 1
 526 474 l 1
 498 474 457 459 428 424 c 2xb8
 302 269 l 1
 483 56 l 1
 560 56 l 1
 560 0 l 1
 364 0 l 1
 364 56 l 1
 409 56 l 1
 267 226 l 1
 191 133 l 1
 191 56 l 1
 266 56 l 1
 266 0 l 1
 34 0 l 1
 34 56 l 1
 129 56 l 1
 129 445 l 1
 39 433 l 1
 30 484 l 1
 62 490 112 486 135 513 c 0
 143 522 149 530 162 530 c 0
 191 530 191 502 191 480 c 2xd8
EndSplineSet
EndChar

StartChar: Ldot
Encoding: 319 319 199
Width: 600
GlyphClass: 2
Flags: MW
HStem: 0 56<44 152 214 372 372 427 44 152> 354 119<478 510> 544 56<44 152 44 327 214 327 214 214>
VStem: 152 62<56 544 56 544> 435 118<397.5 430> 479 62<182 210 0 210>
LayerCount: 2
Fore
SplineSet
44 600 m 1xb4
 327 600 l 1
 327 544 l 1
 214 544 l 1
 214 56 l 1
 372 56 l 2
 482 56 479 75 479 182 c 2
 479 210 l 1
 541 210 l 1
 541 0 l 1
 44 0 l 1
 44 56 l 1
 152 56 l 1
 152 544 l 1
 44 544 l 1
 44 600 l 1xb4
435 414 m 0xf8
 435 446 462 473 494 473 c 0
 526 473 553 446 553 414 c 0
 553 381 526 354 494 354 c 0
 462 354 435 381 435 414 c 0xf8
EndSplineSet
EndChar

StartChar: ldot
Encoding: 320 320 200
Width: 600
GlyphClass: 2
Flags: MW
HStem: 0 56<80 227 289 436 80 227> 308 118<525 557> 559 54<120 141.5> 636 20G<252.5 274.5>
VStem: 227 62<56 569 569 569> 482 118<350.5 383>
LayerCount: 2
Fore
SplineSet
482 367 m 0
 482 399 509 426 541 426 c 0
 573 426 600 399 600 367 c 0
 600 334 573 308 541 308 c 0
 509 308 482 334 482 367 c 0
289 604 m 2
 289 56 l 1
 436 56 l 1
 436 0 l 1
 80 0 l 1
 80 56 l 1
 227 56 l 1
 227 569 l 1
 193 563 159 559 124 559 c 2
 106 557 l 1
 96 612 l 1
 120 613 l 2
 136 614 158 613 179 617 c 0
 201 621 221 628 232 641 c 0
 240 650 246 656 259 656 c 0
 290 656 289 626 289 604 c 2
EndSplineSet
EndChar

StartChar: Lslash
Encoding: 321 321 201
Width: 600
GlyphClass: 2
Flags: MW
HStem: 0 56<45 152 214 372 372 427 45 152> 544 56<44 152 44 327 214 214 214 327>
VStem: 152 62<56 288 288 288 387 544> 479 62<182 210 0 210>
LayerCount: 2
Fore
SplineSet
214 387 m 1
 340 453 l 1
 340 388 l 1
 214 322 l 1
 214 56 l 1
 372 56 l 2
 482 56 479 75 479 182 c 2
 479 210 l 1
 541 210 l 1
 541 0 l 1
 45 0 l 1
 45 56 l 1
 152 56 l 1
 152 288 l 1
 31 222 l 1
 31 287 l 1
 152 353 l 1
 152 544 l 1
 44 544 l 1
 44 600 l 1
 327 600 l 1
 327 544 l 1
 214 544 l 1
 214 387 l 1
EndSplineSet
EndChar

StartChar: lslash
Encoding: 322 322 202
Width: 600
GlyphClass: 2
Flags: MW
HStem: 0 56<90 277 339 506 90 277> 559 54<174 174> 636 20G<302.5 324.5>
VStem: 277 62<56 288 288 288 387 569 569 569>
LayerCount: 2
Fore
SplineSet
339 604 m 2
 339 387 l 1
 478 464 l 1
 478 399 l 1
 339 322 l 1
 339 56 l 1
 506 56 l 1
 506 0 l 1
 90 0 l 1
 90 56 l 1
 277 56 l 1
 277 288 l 1
 138 212 l 1
 138 277 l 1
 277 353 l 1
 277 569 l 1
 243 563 209 560 174 559 c 2
 116 557 l 1
 106 612 l 1
 170 613 l 2
 201 613 260 615 282 641 c 0
 290 650 296 656 309 656 c 0
 340 656 339 626 339 604 c 2
EndSplineSet
EndChar

StartChar: napostrophe
Encoding: 329 329 203
Width: 600
GlyphClass: 2
Flags: MW
HStem: 0 56<157 211 273 327 157 211 413 466 528 581> 370 56<380 424.5 379 434.5> 482 130 592 20G<68 110>
VStem: 19 142<526 552 494.5 563> 211 62<56 314 56 358 56 358> 466 62<56 241 241 243 56 271.5>
LayerCount: 2
Fore
SplineSet
273 314 m 1xde
 273 56 l 1
 327 56 l 1
 327 0 l 1
 157 0 l 1
 157 56 l 1
 211 56 l 1
 211 358 l 1
 155 348 l 1
 146 399 l 1
 174 401 201 405 222 426 c 0
 228 435 233 443 244 443 c 0
 269 443 273 415 273 393 c 2
 273 378 l 1
 312 402 354 426 404 426 c 0
 445 426 489 408 510 364 c 0
 527 328 528 282 528 243 c 2
 528 56 l 1
 581 56 l 1
 581 0 l 1
 413 0 l 1
 413 56 l 1
 466 56 l 1
 466 241 l 2
 466 302 465 370 404 370 c 0
 356 370 309 343 273 314 c 1xde
20 394 m 1
 20 452 l 1
 42 457 62 466 78 482 c 1xee
 45 484 19 509 19 543 c 0
 19 583 48 612 88 612 c 0
 132 612 161 573 161 531 c 0
 161 458 85 408 20 394 c 1
EndSplineSet
EndChar

StartChar: Eng
Encoding: 330 330 204
Width: 600
GlyphClass: 2
Flags: MW
HStem: -80 56<350 378.5 350 381> 0 56<59 132 194 268 59 132> 544 56<59 132 59 194> 556 56<300.5 357>
VStem: 132 62<56 383 520 544 544 544> 434 62<48 445 445 464>
LayerCount: 2
Fore
SplineSet
194 600 m 1x6c
 194 520 l 1
 196 520 l 1
 224 580 271 612 330 612 c 0
 424 612 496 562 496 464 c 2
 496 28 l 2
 496 -70 412 -80 350 -80 c 1
 350 -24 l 1
 407 -24 434 -14 434 48 c 2
 434 445 l 2
 434 525 388 556 326 556 c 0xdc
 253 556 194 466 194 383 c 2
 194 56 l 1
 268 56 l 1
 268 0 l 1
 59 0 l 1
 59 56 l 1
 132 56 l 1
 132 544 l 1
 59 544 l 1
 59 600 l 1
 194 600 l 1x6c
EndSplineSet
EndChar

StartChar: eng
Encoding: 331 331 205
Width: 600
GlyphClass: 2
Flags: MW
HStem: -80 56<347 375.5 347 378> 0 56<62 132 194 262 62 132> 353 46 370 56<324.5 377 324 394>
VStem: 132 62<56 314 56 358 56 358> 431 62<48 241 241 243>
LayerCount: 2
Fore
SplineSet
132 56 m 1x5c
 132 358 l 1
 59 348 l 1
 50 399 l 1
 82 401 115 405 138 426 c 0
 146 435 152 443 165 443 c 0
 194 443 194 415 194 393 c 2x6c
 194 378 l 1
 245 402 295 426 353 426 c 0
 401 426 453 408 476 363 c 0
 494 328 493 282 493 243 c 2
 493 28 l 2
 493 -70 409 -80 347 -80 c 1
 347 -24 l 1
 404 -24 431 -14 431 48 c 2xdc
 431 241 l 2
 431 302 435 370 353 370 c 0
 296 370 241 343 194 314 c 1
 194 56 l 1
 262 56 l 1
 262 0 l 1
 62 0 l 1
 62 56 l 1
 132 56 l 1x5c
EndSplineSet
EndChar

StartChar: OE
Encoding: 338 338 206
Width: 600
GlyphClass: 2
Flags: MW
HStem: -12 56<184.5 210> 0 56<347 410 410 446.5 347 557 314 410> 300 56<347 411 347 411> 300 121<347 473 347 473> 544 56<347 418 347 347> 556 56<178.5 222.5 164.5 227.5>
VStem: 29 65<209.5 379.5 209.5 404.5> 285 62<56 300 356 544> 411 62<234 300 300 300 356 421 234 421> 495 62<135 191 0 191 433 451 451 495.5>
LayerCount: 2
Fore
SplineSet
418 544 m 2x5b40
 347 544 l 1
 347 356 l 1
 411 356 l 1xabc0
 411 421 l 1
 473 421 l 1
 473 234 l 1
 411 234 l 1
 411 300 l 1x5bc0
 347 300 l 1
 347 56 l 1
 410 56 l 2
 483 56 495 56 495 135 c 2
 495 191 l 1
 557 191 l 1
 557 0 l 1
 314 0 l 2x5b40
 299 -3 282 -6 263 -8 c 0
 244 -10 223 -12 197 -12 c 0
 132 -12 29 67 29 294 c 0
 29 515 132 612 197 612 c 0x9740
 248 612 283 606 314 600 c 1
 557 600 l 1
 557 433 l 1
 495 433 l 1
 495 451 l 2
 495 540 480 544 418 544 c 2x5b40
285 52 m 1
 285 549 l 1
 269 553 247 556 208 556 c 0x5740
 149 556 94 459 94 300 c 0
 94 119 161 44 208 44 c 0
 247 44 268 48 285 52 c 1
EndSplineSet
EndChar

StartChar: oe
Encoding: 339 339 207
Width: 600
GlyphClass: 2
Flags: MW
HStem: -12 56<174 214 378 432.5> 183 56<333 499 333 554 333 499> 370 56<164.5 229 152.5 232 383.5 437>
VStem: 28 65<170.5 245 170.5 262.5> 271 62<113.5 149 149 183 239 269> 499 59<235 272>
LayerCount: 2
Fore
SplineSet
558 235 m 2
 554 183 l 1
 333 183 l 1
 333 149 l 2
 333 78 335 44 408 44 c 0
 459 44 501 73 538 105 c 1
 572 59 l 1
 522 18 466 -12 399 -12 c 0
 357 -12 339 -1 307 24 c 1
 271 7 234 -12 194 -12 c 0
 154 -12 28 34 28 208 c 0
 28 317 93 426 212 426 c 0
 246 426 284 414 307 388 c 1
 339 416 362 426 405 426 c 0
 502 426 566 345 558 235 c 2
271 96 m 2
 271 309 l 2
 271 348 258 370 206 370 c 0
 123 370 93 281 93 209 c 0
 93 132 122 44 211 44 c 0
 243 44 271 56 271 96 c 2
333 239 m 1
 499 239 l 1
 499 305 473 370 401 370 c 0
 341 370 333 332 333 269 c 2
 333 239 l 1
EndSplineSet
EndChar

StartChar: Scaron
Encoding: 352 352 208
Width: 600
GlyphClass: 2
Flags: MW
HStem: -12 56<274.5 336.5 260.5 358.5> -5 21G<99 99> 556 56<283.5 331 264.5 333.5>
VStem: 99 63<-5 24> 104 56 114 65<373.5 492 373.5 504> 429 58 431 61<417 426> 437 65<113 240>
LayerCount: 2
Fore
SplineSet
114 450 m 0xa480
 114 558 216 612 313 612 c 0
 349 612 394 603 426 586 c 1
 432 625 l 1xa6
 492 614 l 1
 483 514 l 2
 480 484 486 455 492 426 c 1
 431 417 l 1
 429 445 430 485 417 510 c 0xa5
 398 545 356 556 311 556 c 0
 256 556 179 530 179 454 c 0xa480
 179 293 502 381 502 157 c 0
 502 56 415 -12 302 -12 c 0
 247 -12 210 -1 162 24 c 1
 159 -13 l 1xa880
 99 -5 l 1x7080
 109 101 l 2
 112 131 105 161 99 190 c 1
 159 199 l 1
 165 151 l 2xb080
 174 80 214 44 307 44 c 0
 366 44 437 75 437 151 c 0
 437 329 114 231 114 450 c 0xa480
300 747 m 1
 441 844 l 1
 478 806 l 1
 300 652 l 1
 122 806 l 1
 159 844 l 1
 300 747 l 1
EndSplineSet
EndChar

StartChar: scaron
Encoding: 353 353 209
Width: 600
GlyphClass: 2
Flags: MW
HStem: -12 56<279 330.5 252 346> 0 21G<101 101> 175 53 370 56<280.5 324 258.5 353.5>
VStem: 123 65<243 326 243 338> 426 54 435 65<82.5 165.5>
LayerCount: 2
Fore
SplineSet
430 403 m 1xba
 440 447 l 1
 495 436 l 1
 487 404 481 372 481 339 c 0
 481 317 483 296 488 275 c 1
 428 270 l 1
 425 292 l 2xbc
 418 341 403 370 304 370 c 0
 257 370 188 356 188 296 c 0
 188 190 500 281 500 109 c 0
 500 13 385 -12 307 -12 c 0
 251 -12 215 -2 164 20 c 1
 154 -16 l 1xba
 101 0 l 1
 109 26 113 53 113 80 c 0x7a
 113 105 110 131 100 154 c 1
 162 162 l 1
 174 79 192 44 312 44 c 0
 349 44 435 55 435 110 c 0
 435 221 123 122 123 292 c 0
 123 384 215 426 302 426 c 0
 346 426 388 417 430 403 c 1xba
300 561 m 1
 441 658 l 1
 478 620 l 1
 300 466 l 1
 122 620 l 1
 159 658 l 1
 300 561 l 1
EndSplineSet
EndChar

StartChar: Tbar
Encoding: 358 358 210
Width: 600
GlyphClass: 2
Flags: MW
HStem: 0 56<138 269 331 462 138 269> 266 56<113 269 113 269 331 487> 544 56<153.5 188 188 269 331 412 331 331>
VStem: 51 62<411 465> 269 62<56 266 56 266 322 544> 487 62<411 465 465 500>
LayerCount: 2
Fore
SplineSet
51 600 m 1
 549 600 l 1
 549 411 l 1
 487 411 l 1
 487 465 l 2
 487 535 481 544 412 544 c 2
 331 544 l 1
 331 322 l 1
 487 322 l 1
 487 266 l 1
 331 266 l 1
 331 56 l 1
 462 56 l 1
 462 0 l 1
 138 0 l 1
 138 56 l 1
 269 56 l 1
 269 266 l 1
 113 266 l 1
 113 322 l 1
 269 322 l 1
 269 544 l 1
 188 544 l 2
 119 544 113 535 113 465 c 2
 113 411 l 1
 51 411 l 1
 51 600 l 1
EndSplineSet
EndChar

StartChar: tbar
Encoding: 359 359 211
Width: 600
GlyphClass: 2
Flags: MW
HStem: -12 56<292 352> 218 56<57 201 57 201 263 496> 358 56<57 201 57 201 263 496>
VStem: 201 62<132 158 158 218 132 218 274 358 414 525>
LayerCount: 2
Fore
SplineSet
496 274 m 1
 496 218 l 1
 263 218 l 1
 263 158 l 2
 263 106 257 44 327 44 c 0
 381 44 449 61 502 77 c 1
 522 24 l 1
 461 7 383 -12 321 -12 c 0
 246 -12 201 32 201 130 c 2
 201 218 l 1
 57 218 l 1
 57 274 l 1
 201 274 l 1
 201 358 l 1
 57 358 l 1
 57 414 l 1
 201 414 l 1
 201 525 l 1
 263 525 l 1
 263 414 l 1
 496 414 l 1
 496 358 l 1
 263 358 l 1
 263 274 l 1
 496 274 l 1
EndSplineSet
EndChar

StartChar: Ydieresis
Encoding: 376 376 212
Width: 600
GlyphClass: 2
Flags: MW
HStem: 0 56<138 269 331 462 138 269> 544 56<31 93 31 243 161 243 161 161 357 439 507 507 507 569> 690 116<178 210 390 422>
VStem: 31 212<544 600 544 600> 134 120<731.5 764.5> 269 62<56 260 56 260> 346 120<731.5 764.5> 357 212<544 600 544 600>
LayerCount: 2
Fore
SplineSet
31 600 m 1xd4
 243 600 l 1
 243 544 l 1
 161 544 l 1
 300 318 l 1
 439 544 l 1
 357 544 l 1
 357 600 l 1
 569 600 l 1
 569 544 l 1
 507 544 l 1xd5
 331 260 l 1
 331 56 l 1
 462 56 l 1
 462 0 l 1
 138 0 l 1
 138 56 l 1
 269 56 l 1
 269 260 l 1xc4
 93 544 l 1
 31 544 l 1
 31 600 l 1xd4
134 748 m 0xee
 134 781 162 806 194 806 c 0
 226 806 254 781 254 748 c 0
 254 715 226 690 194 690 c 0
 162 690 134 715 134 748 c 0xee
346 748 m 0
 346 781 374 806 406 806 c 0
 438 806 466 781 466 748 c 0
 466 715 438 690 406 690 c 0
 374 690 346 715 346 748 c 0
EndSplineSet
EndChar

StartChar: Zcaron
Encoding: 381 381 213
Width: 600
GlyphClass: 2
Flags: MW
HStem: 0 56<152 381 381 418 152 525> 544 56<196 233 233 416>
VStem: 89 62<405 432 405 600> 463 62<168 195 0 195>
LayerCount: 2
Fore
SplineSet
491 600 m 1
 491 552 l 1
 152 56 l 1
 381 56 l 2
 455 56 463 65 463 168 c 2
 463 195 l 1
 525 195 l 1
 525 0 l 1
 76 0 l 1
 76 48 l 1
 416 544 l 1
 233 544 l 2
 159 544 151 533 151 432 c 2
 151 405 l 1
 89 405 l 1
 89 600 l 1
 491 600 l 1
300 747 m 1
 441 844 l 1
 478 806 l 1
 300 652 l 1
 122 806 l 1
 159 844 l 1
 300 747 l 1
EndSplineSet
EndChar

StartChar: zcaron
Encoding: 382 382 214
Width: 600
GlyphClass: 2
Flags: MW
HStem: 0 56<179 382 382 405.5 179 488> 358 56<200 234 234 398> 366 48<123 489>
VStem: 93 414<0 151 54 151>
LayerCount: 2
Fore
SplineSet
489 414 m 1xd0
 489 366 l 1xb0
 179 56 l 1
 382 56 l 2
 429 56 431 52 439 93 c 2
 446 131 l 1
 449 151 l 1
 507 151 l 1
 488 0 l 1
 93 0 l 1
 93 54 l 1
 398 358 l 1
 234 358 l 2
 166 358 176 355 166 285 c 2
 163 265 l 1
 103 265 l 1
 123 414 l 1
 489 414 l 1xd0
300 561 m 1
 441 658 l 1
 478 620 l 1
 300 466 l 1
 122 620 l 1
 159 658 l 1
 300 561 l 1
EndSplineSet
EndChar

StartChar: florin
Encoding: 402 402 215
Width: 600
GlyphClass: 2
Flags: MW
HStem: -105 56<125 163 163 170 125 163> 330 56<171 278 171 285 346 444 171 339> 567 56<395 474 431 474 431 474>
VStem: 290 60
LayerCount: 2
Fore
SplineSet
355 458 m 2
 346 386 l 1
 444 386 l 1
 444 330 l 1
 339 330 l 1
 304 52 l 2
 293 -36 275 -105 170 -105 c 2
 125 -105 l 1
 125 -49 l 1
 163 -49 l 2
 224 -49 232 -37 244 60 c 2
 278 330 l 1
 171 330 l 1
 171 386 l 1
 285 386 l 1
 296 492 l 2
 303 562 346 623 431 623 c 2
 474 623 l 1
 474 567 l 1
 428 567 l 2
 362 567 361 508 355 458 c 2
EndSplineSet
EndChar

StartChar: circumflex
Encoding: 710 710 216
Width: 600
GlyphClass: 2
Flags: MW
HStem: 467 191<159 300 300 441>
VStem: 122 356<504 504>
LayerCount: 2
Fore
SplineSet
300 563 m 1
 159 467 l 1
 122 504 l 1
 300 658 l 1
 478 504 l 1
 441 467 l 1
 300 563 l 1
EndSplineSet
EndChar

StartChar: caron
Encoding: 711 711 217
Width: 600
GlyphClass: 2
Flags: MW
HStem: 466 192<159 300>
VStem: 122 356<620 620>
LayerCount: 2
Fore
SplineSet
300 561 m 1
 441 658 l 1
 478 620 l 1
 300 466 l 1
 122 620 l 1
 159 658 l 1
 300 561 l 1
EndSplineSet
EndChar

StartChar: uni02C9
Encoding: 713 713 218
Width: 600
GlyphClass: 2
Flags: MW
HStem: 522 56<170 430 170 430>
VStem: 170 260<522 578 522 578>
LayerCount: 2
Fore
SplineSet
430 522 m 1
 170 522 l 1
 170 578 l 1
 430 578 l 1
 430 522 l 1
EndSplineSet
EndChar

StartChar: breve
Encoding: 728 728 219
Width: 600
GlyphClass: 2
Flags: MW
HStem: 496 61<273 327 273 349>
VStem: 148 304
LayerCount: 2
Fore
SplineSet
393 637 m 1
 451 637 l 1
 461 544 398 496 300 496 c 0
 202 496 139 544 149 637 c 1
 207 637 l 1
 199 579 246 557 300 557 c 0
 354 557 401 579 393 637 c 1
EndSplineSet
EndChar

StartChar: dotaccent
Encoding: 729 729 220
Width: 600
GlyphClass: 2
Flags: MW
HStem: 504 116<284 316>
VStem: 240 120<545.5 578.5>
LayerCount: 2
Fore
SplineSet
240 562 m 0
 240 595 268 620 300 620 c 0
 332 620 360 595 360 562 c 0
 360 529 332 504 300 504 c 0
 268 504 240 529 240 562 c 0
EndSplineSet
EndChar

StartChar: ring
Encoding: 730 730 221
Width: 600
GlyphClass: 2
Flags: MW
HStem: 473 49<289.5 310.5 289.5 325> 602 49<289.5 310.5>
VStem: 208 59<552.5 571.5 552.5 587> 333 59<552.5 571.5>
LayerCount: 2
Fore
SplineSet
208 562 m 0
 208 612 251 651 300 651 c 0
 350 651 392 613 392 562 c 0
 392 512 350 473 300 473 c 0
 250 473 208 512 208 562 c 0
267 562 m 0
 267 543 279 522 300 522 c 0
 321 522 333 543 333 562 c 0
 333 581 321 602 300 602 c 0
 279 602 267 581 267 562 c 0
EndSplineSet
EndChar

StartChar: ogonek
Encoding: 731 731 222
Width: 600
GlyphClass: 2
Flags: MW
HStem: -196 56<317 351.5>
VStem: 203 65<-113 -69.5 -113 -67>
LayerCount: 2
Fore
SplineSet
436 -113 m 1
 436 -173 l 1
 399 -187 371 -196 332 -196 c 0
 267 -196 203 -169 203 -95 c 0
 203 -39 246 0 294 21 c 1
 393 21 l 1
 361 -6 268 -45 268 -94 c 0
 268 -132 299 -140 335 -140 c 0
 370 -140 403 -127 436 -113 c 1
EndSplineSet
EndChar

StartChar: tilde
Encoding: 732 732 223
Width: 600
GlyphClass: 2
Flags: MW
HStem: 509 59<360.5 382 360.5 387> 563 60<217.5 240.5>
VStem: 140 64<506 506> 396 64<626 626>
LayerCount: 2
Fore
SplineSet
204 506 m 1x70
 140 506 l 1
 138 536 143 565 157 587 c 0
 171 609 194 623 228 623 c 0x70
 257 623 284 610 308 596 c 0
 332 582 353 568 368 568 c 0
 396 568 394 607 396 626 c 1
 460 626 l 1
 463 596 457 567 443 545 c 0
 429 523 405 509 369 509 c 0xb0
 340 509 312 525 287 539 c 0
 273 547 249 563 232 563 c 0
 203 563 203 526 204 506 c 1x70
EndSplineSet
EndChar

StartChar: hungarumlaut
Encoding: 733 733 224
Width: 600
GlyphClass: 2
Flags: MW
HStem: 579 20G<318 318 522 522>
VStem: 79 443<509 599>
LayerCount: 2
Fore
SplineSet
471 660 m 1
 522 599 l 1
 319 465 l 1
 283 509 l 1
 471 660 l 1
267 660 m 1
 318 599 l 1
 115 465 l 1
 79 509 l 1
 267 660 l 1
EndSplineSet
EndChar

StartChar: uni0393
Encoding: 915 915 225
Width: 600
GlyphClass: 2
Flags: MW
HStem: 0 21G<174 236 174 174> 544 56<236 462 236 236>
VStem: 174 62<0 544 0 600 0 600>
LayerCount: 2
Fore
SplineSet
174 600 m 1
 462 600 l 1
 462 544 l 1
 236 544 l 1
 236 0 l 1
 174 0 l 1
 174 600 l 1
EndSplineSet
EndChar

StartChar: uni0398
Encoding: 920 920 226
Width: 600
GlyphClass: 2
Flags: MW
HStem: -12 56<238.5 361.5> 282 46<155 445 155 445> 556 56<238.5 361.5 238.5 366.5>
VStem: 32 65<240 360 240 403.5> 503 65<240 360>
LayerCount: 2
Fore
SplineSet
300 -12 m 0
 177 -12 32 93 32 300 c 0
 32 507 177 612 300 612 c 0
 423 612 568 507 568 300 c 0
 568 93 423 -12 300 -12 c 0
300 44 m 0
 433 44 503 180 503 300 c 0
 503 420 433 556 300 556 c 0
 167 556 97 420 97 300 c 0
 97 180 167 44 300 44 c 0
155 328 m 1
 445 328 l 1
 445 282 l 1
 155 282 l 1
 155 328 l 1
EndSplineSet
EndChar

StartChar: uni03A6
Encoding: 934 934 227
Width: 600
GlyphClass: 2
Flags: MW
HStem: -12 102<269 331 269 269> 44 46<269 269> 510 102<269 331 269 331>
VStem: 34 65<248.5 351.5 248.5 368> 269 62<-12 44 -12 44 90 510 556 612> 501 65<248.5 351.5>
LayerCount: 2
Fore
SplineSet
269 612 m 1xbc
 331 612 l 1
 331 556 l 1
 472 558 566 436 566 300 c 0
 566 164 472 42 331 44 c 1x7c
 331 -12 l 1
 269 -12 l 1xbc
 269 44 l 1x7c
 128 42 34 164 34 300 c 0
 34 436 128 558 269 556 c 1
 269 612 l 1xbc
269 90 m 1xbc
 269 510 l 1
 157 512 99 403 99 300 c 0
 99 197 157 88 269 90 c 1xbc
331 510 m 1
 331 90 l 1
 443 88 501 197 501 300 c 0
 501 403 443 512 331 510 c 1
EndSplineSet
EndChar

StartChar: uni03A9
Encoding: 937 937 228
Width: 600
GlyphClass: 2
Flags: MW
HStem: 0 56<47 207 47 265 47 207 393 553> 556 56<239.5 360.5>
VStem: 44 65<285.5 385.5 281.5 406.5> 207 58<56 92 92 92> 335 58<56 92 56 125 56 125> 491 65<285.5 385.5>
LayerCount: 2
Fore
SplineSet
553 0 m 1
 335 0 l 1
 335 125 l 1
 443 140 491 230 491 333 c 0
 491 438 421 556 300 556 c 0
 179 556 109 438 109 333 c 0
 109 230 157 140 265 125 c 1
 265 0 l 1
 47 0 l 1
 47 56 l 1
 207 56 l 1
 207 92 l 1
 100 117 44 235 44 336 c 0
 44 477 144 612 300 612 c 0
 456 612 556 477 556 336 c 0
 556 235 500 117 393 92 c 1
 393 56 l 1
 553 56 l 1
 553 0 l 1
EndSplineSet
EndChar

StartChar: uni03B1
Encoding: 945 945 229
Width: 600
GlyphClass: 2
Flags: MW
HStem: -12 56<211 299 211 299> 0 21G<450 505 450 450> 370 56<211 298.5 194 299> 398 20G<519 519>
VStem: 71 65<172.5 241.5 172.5 266>
LayerCount: 2
Fore
SplineSet
255 44 m 0xa8
 343 44 374 138 374 207 c 0
 374 276 343 370 255 370 c 0
 167 370 136 276 136 207 c 0
 136 138 167 44 255 44 c 0xa8
420 294 m 1
 468 433 l 1
 519 418 l 1
 443 213 l 1
 505 0 l 1
 450 0 l 1x58
 416 131 l 1
 390 52 343 -12 255 -12 c 0
 133 -12 71 89 71 207 c 0
 71 325 133 426 255 426 c 0
 342 426 395 370 420 294 c 1
EndSplineSet
EndChar

StartChar: uni03B4
Encoding: 948 948 230
Width: 600
GlyphClass: 2
Flags: MW
HStem: -12 56<257.5 340 257.5 357.5> 344 62<295 295 295 340> 544 56<202 202 202 463>
VStem: 92 65<153.5 233.5 153.5 269.5> 140 62<544 544 544 600 544 600> 443 65<156 239>
LayerCount: 2
Fore
SplineSet
443 197 m 0xf4
 443 281 382 344 298 344 c 0
 213 344 157 275 157 192 c 0
 157 115 217 44 298 44 c 0
 382 44 443 115 443 197 c 0xf4
202 544 m 1xec
 365 420 l 2
 440 363 508 303 508 201 c 0
 508 83 417 -12 298 -12 c 0
 184 -12 92 84 92 196 c 0xf4
 92 343 202 402 295 406 c 1
 140 522 l 1
 140 600 l 1
 463 600 l 1
 463 544 l 1
 202 544 l 1xec
EndSplineSet
EndChar

StartChar: uni03B5
Encoding: 949 949 231
Width: 600
GlyphClass: 2
Flags: MW
HStem: -12 56<296 332> 201 56<282 339 320 339 320 339> 370 56<294.5 321.5 261.5 326.5>
VStem: 148 65<96 141> 173 65<297 338.5 292.5 346>
LayerCount: 2
Fore
SplineSet
436 67 m 1xf0
 452 17 l 1
 411 -4 356 -12 308 -12 c 0
 221 -12 148 36 148 115 c 0xf0
 148 167 178 208 235 227 c 1
 194 242 173 279 173 315 c 0
 173 377 225 426 298 426 c 0
 345 426 377 411 399 392 c 1
 371 351 l 1
 356 361 338 370 315 370 c 0
 274 370 238 362 238 315 c 0
 238 270 270 257 320 257 c 2xe8
 339 257 l 1
 339 201 l 1
 310 201 l 2
 254 201 213 173 213 120 c 0
 213 72 269 44 323 44 c 0
 364 44 403 53 436 67 c 1xf0
EndSplineSet
EndChar

StartChar: uni03BC
Encoding: 956 956 232
Width: 600
GlyphClass: 2
Flags: MW
HStem: -12 56<279.5 324> 0 44 394 20G<124 186 186 186 414 476 476 476>
VStem: 124 62<-197 40 134 181 181 414> 414 62<0 43 43 43 191 414 0 414>
LayerCount: 2
Fore
SplineSet
414 191 m 2xb8
 414 414 l 1
 476 414 l 1
 476 0 l 1
 414 0 l 1x78
 414 43 l 1
 388 9 346 -12 302 -12 c 0
 257 -12 214 6 186 40 c 1
 186 -197 l 1
 124 -197 l 1
 124 414 l 1
 186 414 l 1
 186 181 l 2
 186 87 233 44 300 44 c 0
 367 44 414 97 414 191 c 2xb8
EndSplineSet
EndChar

StartChar: pi
Encoding: 960 960 233
Width: 600
GlyphClass: 2
Flags: MW
HStem: 0 21G<140 202 140 140 398 460 398 398> 358 56<60 140 60 540 202 398 202 202 460 540 460 460>
VStem: 140 62<0 358 0 358> 398 62<0 358 0 358>
LayerCount: 2
Fore
SplineSet
60 414 m 1
 540 414 l 1
 540 358 l 1
 460 358 l 1
 460 0 l 1
 398 0 l 1
 398 358 l 1
 202 358 l 1
 202 0 l 1
 140 0 l 1
 140 358 l 1
 60 358 l 1
 60 414 l 1
EndSplineSet
EndChar

StartChar: uni03C3
Encoding: 963 963 234
Width: 600
GlyphClass: 2
Flags: MW
HStem: -12 56<255.5 340.5 255.5 360> 370 56<255.5 555> 380 46
VStem: 92 65<165 240.5> 439 65<165 240.5 149.5 249>
LayerCount: 2
Fore
SplineSet
555 426 m 1xb8
 555 377 l 1
 410 384 l 1
 408 382 l 1
 469 346 504 274 504 207 c 0
 504 92 420 -12 300 -12 c 0
 180 -12 92 92 92 207 c 0
 92 274 122 341 176 382 c 0
 234 426 305 426 375 426 c 2
 555 426 l 1xb8
298 370 m 0xd8
 213 370 157 291 157 207 c 0
 157 123 213 44 298 44 c 0
 383 44 439 123 439 207 c 0
 439 291 383 370 298 370 c 0xd8
EndSplineSet
EndChar

StartChar: uni03C4
Encoding: 964 964 235
Width: 600
GlyphClass: 2
Flags: MW
HStem: 0 21G<269 331 269 269> 358 56<225 228 228 269 331 473 331 331>
VStem: 269 62<0 358 0 358>
LayerCount: 2
Fore
SplineSet
473 414 m 1
 473 358 l 1
 331 358 l 1
 331 0 l 1
 269 0 l 1
 269 358 l 1
 228 358 l 2
 196 358 163 356 127 342 c 1
 127 394 l 1
 150 402 l 2
 176 411 199 414 225 414 c 2
 473 414 l 1
EndSplineSet
EndChar

StartChar: uni03D5
Encoding: 981 981 236
Width: 600
GlyphClass: 2
Flags: MW
HStem: 20 46<269 269> 342 46<269 269>
VStem: 83 65<166.5 241.5 166.5 256> 269 62<-30 20 -30 20 66 342 388 438> 452 65<166.5 241.5>
LayerCount: 2
Fore
SplineSet
331 342 m 1
 331 66 l 1
 409 74 452 129 452 204 c 0
 452 279 409 334 331 342 c 1
269 438 m 1
 331 438 l 1
 331 388 l 1
 431 381 517 308 517 204 c 0
 517 100 431 27 331 20 c 1
 331 -30 l 1
 269 -30 l 1
 269 20 l 1
 169 27 83 100 83 204 c 0
 83 308 169 381 269 388 c 1
 269 438 l 1
269 66 m 1
 269 342 l 1
 191 334 148 279 148 204 c 0
 148 129 191 74 269 66 c 1
EndSplineSet
EndChar

StartChar: endash
Encoding: 8211 8211 237
Width: 600
GlyphClass: 2
Flags: MW
HStem: 272 56<150 450 150 450>
VStem: 150 300<272 328 272 328>
LayerCount: 2
Fore
SplineSet
450 272 m 1
 150 272 l 1
 150 328 l 1
 450 328 l 1
 450 272 l 1
EndSplineSet
EndChar

StartChar: uni2014
Encoding: 8212 8212 238
Width: 600
GlyphClass: 2
Flags: MW
HStem: 216 72<0 600 0 600>
VStem: 0 600<216 288 216 288>
LayerCount: 2
Fore
SplineSet
0 216 m 1
 0 288 l 1
 600 288 l 1
 600 216 l 1
 0 216 l 1
EndSplineSet
EndChar

StartChar: underscoredbl
Encoding: 8215 8215 239
Width: 600
GlyphClass: 2
Flags: MW
HStem: -216 36<0 600 0 600> -108 36<0 600 0 600>
VStem: 0 600<-216 -180 -216 -180 -108 -72 -216 -72>
LayerCount: 2
Fore
SplineSet
600 -108 m 1
 0 -108 l 1
 0 -72 l 1
 600 -72 l 1
 600 -108 l 1
600 -216 m 1
 0 -216 l 1
 0 -180 l 1
 600 -180 l 1
 600 -216 l 1
EndSplineSet
EndChar

StartChar: quoteleft
Encoding: 8216 8216 240
Width: 600
GlyphClass: 2
Flags: MW
HStem: 394 130 592 20G<380 380>
VStem: 239 142<454 480 443 511.5>
LayerCount: 2
Fore
SplineSet
380 612 m 1
 380 554 l 1
 358 549 338 540 322 524 c 1
 355 522 381 497 381 463 c 0
 381 423 352 394 312 394 c 0
 268 394 239 433 239 475 c 0
 239 548 315 598 380 612 c 1
EndSplineSet
EndChar

StartChar: quoteright
Encoding: 8217 8217 241
Width: 600
GlyphClass: 2
Flags: MW
HStem: 482 130 592 20G<288 330>
VStem: 239 142<526 552 494.5 563>
LayerCount: 2
Fore
SplineSet
240 394 m 1x60
 240 452 l 1
 262 457 282 466 298 482 c 1xa0
 265 484 239 509 239 543 c 0
 239 583 268 612 308 612 c 0
 352 612 381 573 381 531 c 0
 381 458 305 408 240 394 c 1x60
EndSplineSet
EndChar

StartChar: quotesinglbase
Encoding: 8218 8218 242
Width: 600
GlyphClass: 2
Flags: MW
HStem: -10 21G -10 130
VStem: 239 142<34 60 2.5 71>
LayerCount: 2
Fore
SplineSet
240 -98 m 1xa0
 240 -40 l 1
 262 -35 282 -26 298 -10 c 1
 265 -8 239 17 239 51 c 0
 239 91 268 120 308 120 c 0
 352 120 381 81 381 39 c 0x60
 381 -34 305 -84 240 -98 c 1xa0
EndSplineSet
EndChar

StartChar: uni201B
Encoding: 8219 8219 243
Width: 600
GlyphClass: 2
Flags: MW
HStem: 482 130 592 20G<290 332>
VStem: 239 142<526 552>
LayerCount: 2
Fore
SplineSet
380 452 m 1xa0
 380 394 l 1
 315 408 239 458 239 531 c 0
 239 573 268 612 312 612 c 0
 352 612 381 583 381 543 c 0
 381 509 355 484 322 482 c 1
 338 466 358 457 380 452 c 1xa0
EndSplineSet
EndChar

StartChar: quotedblleft
Encoding: 8220 8220 244
Width: 600
GlyphClass: 2
Flags: MW
HStem: 394 130 592 20G<281 281 475 475>
VStem: 140 142<454 480 443 511.5> 334 142<454 480 443 511.5>
LayerCount: 2
Fore
SplineSet
281 612 m 1
 281 554 l 1
 259 549 239 540 223 524 c 1
 256 522 282 497 282 463 c 0
 282 423 253 394 213 394 c 0
 169 394 140 433 140 475 c 0
 140 548 216 598 281 612 c 1
475 612 m 1
 475 554 l 1
 453 549 433 540 417 524 c 1
 450 522 476 497 476 463 c 0
 476 423 447 394 407 394 c 0
 363 394 334 433 334 475 c 0
 334 548 410 598 475 612 c 1
EndSplineSet
EndChar

StartChar: quotedblright
Encoding: 8221 8221 245
Width: 600
GlyphClass: 2
Flags: MW
HStem: 482 130 592 20G<189 231 383 425>
VStem: 140 142<526 552 494.5 563> 334 142<526 552 494.5 563>
LayerCount: 2
Fore
SplineSet
141 394 m 1x70
 141 452 l 1
 163 457 183 466 199 482 c 1xb0
 166 484 140 509 140 543 c 0
 140 583 169 612 209 612 c 0
 253 612 282 573 282 531 c 0
 282 458 206 408 141 394 c 1x70
335 394 m 1
 335 452 l 1
 357 457 377 466 393 482 c 1
 360 484 334 509 334 543 c 0
 334 583 363 612 403 612 c 0
 447 612 476 573 476 531 c 0
 476 458 400 408 335 394 c 1
EndSplineSet
EndChar

StartChar: quotedblbase
Encoding: 8222 8222 246
Width: 600
GlyphClass: 2
Flags: MW
HStem: -10 21G -10 130
VStem: 140 142<34 60 2.5 71> 334 142<34 60 2.5 71>
LayerCount: 2
Fore
SplineSet
141 -98 m 1xb0
 141 -40 l 1
 163 -35 183 -26 199 -10 c 1
 166 -8 140 17 140 51 c 0
 140 91 169 120 209 120 c 0
 253 120 282 81 282 39 c 0x70
 282 -34 206 -84 141 -98 c 1xb0
335 -98 m 1
 335 -40 l 1
 357 -35 377 -26 393 -10 c 1
 360 -8 334 17 334 51 c 0
 334 91 363 120 403 120 c 0
 447 120 476 81 476 39 c 0
 476 -34 400 -84 335 -98 c 1
EndSplineSet
EndChar

StartChar: dagger
Encoding: 8224 8224 247
Width: 600
GlyphClass: 2
Flags: MW
HStem: 0 21G<281 319 281 281> 378 60 580 20G<263 337 337 337>
VStem: 266 68 272 55
LayerCount: 2
Fore
SplineSet
263 600 m 1xf0
 337 600 l 1
 331 435 l 1
 438 441 l 1
 438 375 l 1
 332 381 l 1xf0
 336 311 l 1
 319 0 l 1
 281 0 l 1xe8
 264 311 l 1
 268 381 l 1
 162 375 l 1
 162 441 l 1
 269 435 l 1
 263 600 l 1xf0
EndSplineSet
EndChar

StartChar: daggerdbl
Encoding: 8225 8225 248
Width: 600
GlyphClass: 2
Flags: MW
HStem: 0 21G<263 337 263 263> 148 60 392 60 580 20G<263 337 337 337>
VStem: 266 67 270 60<151 151 205 395>
LayerCount: 2
Fore
SplineSet
270 151 m 1xf8
 162 145 l 1
 162 211 l 1
 270 205 l 1
 270 395 l 1xf4
 162 389 l 1
 162 455 l 1
 270 449 l 1
 263 600 l 1
 337 600 l 1
 330 449 l 1xf8
 438 455 l 1
 438 389 l 1
 330 395 l 1
 330 205 l 1xf4
 438 211 l 1
 438 145 l 1
 330 151 l 1
 337 0 l 1
 263 0 l 1
 270 151 l 1xf8
EndSplineSet
EndChar

StartChar: bullet
Encoding: 8226 8226 249
Width: 600
GlyphClass: 2
Flags: MW
HStem: 287 194<273 327>
VStem: 200 200<356.5 411.5>
LayerCount: 2
Fore
SplineSet
200 384 m 0
 200 439 246 481 300 481 c 0
 354 481 400 439 400 384 c 0
 400 329 354 287 300 287 c 0
 246 287 200 329 200 384 c 0
EndSplineSet
EndChar

StartChar: ellipsis
Encoding: 8230 8230 250
Width: 600
GlyphClass: 2
Flags: MW
HStem: -12 114<96.5 127.5 96.5 128 284.5 315.5 472.5 503.5>
VStem: 53 118<29 61> 241 118<29 61> 429 118<29 61>
CounterMasks: 1 70
LayerCount: 2
Fore
SplineSet
53 45 m 0
 53 77 81 102 112 102 c 0
 143 102 171 77 171 45 c 0
 171 13 144 -12 112 -12 c 0
 80 -12 53 13 53 45 c 0
241 45 m 0
 241 77 269 102 300 102 c 0
 331 102 359 77 359 45 c 0
 359 13 332 -12 300 -12 c 0
 268 -12 241 13 241 45 c 0
429 45 m 0
 429 77 457 102 488 102 c 0
 519 102 547 77 547 45 c 0
 547 13 520 -12 488 -12 c 0
 456 -12 429 13 429 45 c 0
EndSplineSet
EndChar

StartChar: perthousand
Encoding: 8240 8240 251
Width: 600
GlyphClass: 3
Flags: MW
HStem: -12 28<265.5 314.5 265.5 326 481.5 530.5> -4 20 218 28<265.5 314.5 481.5 530.5> 354 28<69.5 118.5 69.5 130> 584 28<69.5 118.5>
VStem: 0 36<465 501 465 513> 152 36<465 501> 196 36<99 135 99 147> 348 36<99 135> 412 36<99 135 99 147> 564 36<99 135>
LayerCount: 2
Fore
SplineSet
290 16 m 0xa180
 339 16 348 81 348 117 c 0
 348 153 339 218 290 218 c 0
 241 218 232 153 232 117 c 0
 232 81 241 16 290 16 c 0xa180
311 633 m 1x4080
 345 613 l 1
 67 -25 l 1
 33 -4 l 1
 311 633 l 1x4080
290 -12 m 0xa180
 218 -12 196 57 196 117 c 0
 196 177 218 246 290 246 c 0
 362 246 384 177 384 117 c 0
 384 57 362 -12 290 -12 c 0xa180
94 354 m 0x1e
 22 354 0 423 0 483 c 0
 0 543 22 612 94 612 c 0
 166 612 188 543 188 483 c 0
 188 423 166 354 94 354 c 0x1e
94 382 m 0
 143 382 152 447 152 483 c 0
 152 519 143 584 94 584 c 0
 45 584 36 519 36 483 c 0
 36 447 45 382 94 382 c 0
506 -12 m 0xa060
 434 -12 412 57 412 117 c 0
 412 177 434 246 506 246 c 0
 578 246 600 177 600 117 c 0
 600 57 578 -12 506 -12 c 0xa060
506 16 m 0
 555 16 564 81 564 117 c 0
 564 153 555 218 506 218 c 0
 457 218 448 153 448 117 c 0
 448 81 457 16 506 16 c 0
EndSplineSet
Ligature2: "Ligature Substitution lookup 7 subtable" zero fraction zero zero
Ligature2: "Ligature Substitution lookup 7 subtable" zero slash zero zero
EndChar

StartChar: guilsinglleft
Encoding: 8249 8249 252
Width: 600
GlyphClass: 2
Flags: MW
HStem: 46 508<402 402>
VStem: 124 319<86 300>
LayerCount: 2
Fore
SplineSet
402 554 m 1
 443 514 l 1
 207 300 l 1
 443 86 l 1
 402 46 l 1
 124 300 l 1
 402 554 l 1
EndSplineSet
EndChar

StartChar: guilsinglright
Encoding: 8250 8250 253
Width: 600
GlyphClass: 2
Flags: MW
HStem: 46 508<198 198>
VStem: 157 319<86 300 300 514>
LayerCount: 2
Fore
SplineSet
157 514 m 1
 198 554 l 1
 476 300 l 1
 198 46 l 1
 157 86 l 1
 393 300 l 1
 157 514 l 1
EndSplineSet
EndChar

StartChar: exclamdbl
Encoding: 8252 8252 254
Width: 600
GlyphClass: 2
Flags: MW
HStem: -12 114<167.5 198.5 167.5 199 401.5 432.5> 592 20G<167.5 198.5 401.5 432.5>
VStem: 124 118<29 61> 358 118<29 61>
LayerCount: 2
Fore
SplineSet
124 45 m 0
 124 77 152 102 183 102 c 0
 214 102 242 77 242 45 c 0
 242 13 215 -12 183 -12 c 0
 151 -12 124 13 124 45 c 0
442 154 m 1
 392 154 l 1
 357 558 l 2
 354 590 386 612 417 612 c 0
 448 612 480 590 477 558 c 2
 442 154 l 1
358 45 m 0
 358 77 386 102 417 102 c 0
 448 102 476 77 476 45 c 0
 476 13 449 -12 417 -12 c 0
 385 -12 358 13 358 45 c 0
208 154 m 1
 158 154 l 1
 123 558 l 2
 120 590 152 612 183 612 c 0
 214 612 246 590 243 558 c 2
 208 154 l 1
EndSplineSet
EndChar

StartChar: uni203E
Encoding: 8254 8254 255
Width: 600
GlyphClass: 2
Flags: MW
HStem: -104 55<68 532 68 532>
VStem: 68 464<-104 -49 -104 -49>
LayerCount: 2
Fore
SplineSet
532 -104 m 1
 68 -104 l 1
 68 -49 l 1
 532 -49 l 1
 532 -104 l 1
EndSplineSet
EndChar

StartChar: fraction
Encoding: 8260 8260 256
Width: 600
GlyphClass: 2
Flags: MW
HStem: -4 21G<141 141> 590 20G<459 459>
VStem: 141 318
LayerCount: 2
Fore
SplineSet
419 633 m 1
 459 610 l 1
 181 -28 l 1
 141 -4 l 1
 419 633 l 1
EndSplineSet
EndChar

StartChar: nsuperior
Encoding: 8319 8319 257
Width: 600
GlyphClass: 2
Flags: MW
HStem: 354 36<141 184 227 278 141 184 332 380 423 469> 566 32 576 36<308 353.5> 579 20G<151 151>
VStem: 184 43<390 545 390 570 390 570> 380 43<390 486 486 503 390 512>
LayerCount: 2
Fore
SplineSet
227 545 m 1xac
 227 390 l 1
 278 390 l 1
 278 354 l 1
 141 354 l 1
 141 390 l 1
 184 390 l 1
 184 570 l 1
 139 563 l 1xcc
 132 596 l 1
 151 599 l 2
 166 601 179 602 189 613 c 0
 194 618 199 622 207 622 c 0x9c
 226 622 227 605 227 592 c 2
 227 583 l 1
 258 599 286 612 330 612 c 0
 390 612 423 569 423 503 c 2
 423 390 l 1
 469 390 l 1
 469 354 l 1
 332 354 l 1
 332 390 l 1
 380 390 l 1
 380 486 l 2
 380 538 382 576 325 576 c 0
 290 576 258 562 227 545 c 1xac
EndSplineSet
EndChar

StartChar: franc
Encoding: 8355 8355 258
Width: 600
GlyphClass: 2
Flags: MW
HStem: 0 56<10 56 112 211 10 56 327 379 435 543> 283 56<112 200 112 200> 370 56<499 522> 544 56<10 56 10 324 112 225 112 112>
VStem: 56 56<56 283 339 544> 200 46<211 283 283 283 339 402 211 402> 278 46<473 497 497 514.5> 379 56<56 283 351 357 357 357>
LayerCount: 2
Fore
SplineSet
10 600 m 1
 324 600 l 1
 324 473 l 1
 278 473 l 1
 278 497 l 2
 278 532 279 544 225 544 c 2
 112 544 l 1
 112 339 l 1
 200 339 l 1
 200 402 l 1
 246 402 l 1
 246 211 l 1
 200 211 l 1
 200 283 l 1
 112 283 l 1
 112 56 l 1
 211 56 l 1
 211 0 l 1
 10 0 l 1
 10 56 l 1
 56 56 l 1
 56 544 l 1
 10 544 l 1
 10 600 l 1
327 56 m 1
 379 56 l 1
 379 357 l 1
 337 347 l 1
 330 398 l 1
 348 400 367 404 382 425 c 0
 388 434 392 442 408 442 c 0
 435 442 435 414 435 392 c 2
 435 351 l 1
 437 351 l 1
 454 387 479 426 519 426 c 0
 554 426 577 391 590 360 c 1
 544 332 l 1
 536 352 533 370 511 370 c 0
 476 370 450 307 435 283 c 1
 435 56 l 1
 543 56 l 1
 543 0 l 1
 327 0 l 1
 327 56 l 1
EndSplineSet
EndChar

StartChar: uni20A7
Encoding: 8359 8359 259
Width: 600
GlyphClass: 2
Flags: MW
HStem: -12 56<465.5 491> 0 56<15 57 113 186 15 57> 258 56<113 148 148 149 113 148> 358 56<326 388 326 388 444 535> 544 56<15 180 15 57 113 172 113 113>
VStem: 57 56<56 258 314 544> 244 56<400 479.5> 388 56<132 158 158 358 414 525>
LayerCount: 2
Fore
SplineSet
15 544 m 1x7f
 15 600 l 1
 180 600 l 2
 245 600 300 555 300 443 c 0
 300 330 249 256 149 258 c 2
 113 258 l 1
 113 56 l 1
 186 56 l 1
 186 0 l 1
 15 0 l 1
 15 56 l 1
 57 56 l 1
 57 544 l 1
 15 544 l 1x7f
113 544 m 1
 113 314 l 1
 148 314 l 2
 221 314 244 358 244 442 c 0
 244 517 219 544 172 544 c 2
 113 544 l 1
444 525 m 1
 444 414 l 1
 535 414 l 1
 535 358 l 1
 444 358 l 1
 444 158 l 2
 444 106 443 44 488 44 c 0
 520 44 547 58 572 77 c 1
 585 24 l 1
 556 7 512 -12 470 -12 c 0xbf
 419 -12 388 32 388 130 c 2
 388 358 l 1
 326 358 l 1
 326 414 l 1
 388 414 l 1
 388 525 l 1
 444 525 l 1
EndSplineSet
EndChar

StartChar: Euro
Encoding: 8364 8364 260
Width: 600
GlyphClass: 2
Flags: MW
HStem: -12 56<308 385.5> 202 56<44 141 66 141 66 147 212 212 212 407> 340 56<69 141 48 146 211 461> 556 56<309.5 381>
VStem: 141 64<258 258> 463 50<443 530> 470 52<78 172>
LayerCount: 2
Fore
SplineSet
44 202 m 1xfa
 66 258 l 1
 141 258 l 1
 140 273 140 282 140 299 c 0
 140 311 141 329 141 340 c 1
 48 340 l 1
 69 396 l 1
 146 396 l 1
 171 556 265 612 351 612 c 0
 446 612 489 551 513 530 c 1
 513 443 l 1
 463 443 l 1xfc
 457 524 410 556 352 556 c 0
 267 556 224 488 211 396 c 1
 483 396 l 1
 461 340 l 1
 205 340 l 1
 204 327 204 314 204 301 c 0
 204 287 204 272 205 258 c 1
 429 258 l 1
 407 202 l 1
 212 202 l 1
 226 114 266 44 350 44 c 0
 436 44 467 92 470 172 c 1
 522 172 l 1
 522 78 l 1
 479 23 425 -12 346 -12 c 0
 261 -12 169 48 147 202 c 1
 44 202 l 1xfa
EndSplineSet
EndChar

StartChar: afii61289
Encoding: 8467 8467 261
Width: 600
GlyphClass: 2
Flags: MW
HStem: -7 44<309.5 368> 621 41<290 341>
VStem: 160 55<158.5 160 243 452 452 464> 393 47<468.5 544>
LayerCount: 2
Fore
SplineSet
491 137 m 1
 522 112 l 1
 475 31 408 -7 328 -7 c 0
 217 -7 167 72 161 150 c 0
 160 154 160 157 160 160 c 1
 141 147 119 129 98 115 c 1
 78 150 l 1
 107 171 135 189 160 210 c 1
 160 452 l 2
 160 616 241 662 312 662 c 0
 401 662 440 593 440 520 c 0
 440 406 349 302 215 190 c 1
 215 173 l 2
 215 79 279 37 340 37 c 0
 410 37 466 91 491 137 c 1
215 464 m 2
 215 243 l 1
 314 335 393 422 393 515 c 0
 393 573 372 621 310 621 c 0
 270 621 215 583 215 464 c 2
EndSplineSet
EndChar

StartChar: trademark
Encoding: 8482 8482 262
Width: 600
GlyphClass: 2
Flags: MW
HStem: 323 36<75 124 167 218 75 124 299 328 371 405 463 495 538 567> 564 36<84 96 96 124 167 195 167 167 299 328 538 567 538 538>
VStem: 33 36<500 535 500 600> 124 43<359 564 359 564> 223 36<500 535 535 547> 328 43<359 537 359 564 359 564> 495 43<359 537 537 537>
LayerCount: 2
Fore
SplineSet
33 600 m 1
 259 600 l 1
 259 500 l 1
 223 500 l 1
 223 535 l 2
 223 559 220 564 195 564 c 2
 167 564 l 1
 167 359 l 1
 218 359 l 1
 218 323 l 1
 75 323 l 1
 75 359 l 1
 124 359 l 1
 124 564 l 1
 96 564 l 2
 72 564 69 559 69 535 c 2
 69 500 l 1
 33 500 l 1
 33 600 l 1
538 564 m 1
 538 359 l 1
 567 359 l 1
 567 323 l 1
 463 323 l 1
 463 359 l 1
 495 359 l 1
 495 537 l 1
 493 537 l 1
 433 405 l 1
 372 537 l 1
 371 537 l 1
 371 359 l 1
 405 359 l 1
 405 323 l 1
 299 323 l 1
 299 359 l 1
 328 359 l 1
 328 564 l 1
 299 564 l 1
 299 600 l 1
 377 600 l 1
 433 478 l 1
 490 600 l 1
 567 600 l 1
 567 564 l 1
 538 564 l 1
EndSplineSet
EndChar

StartChar: Omega
Encoding: 8486 8486 263
Width: 600
GlyphClass: 2
Flags: MW
HStem: 0 56<47 207 47 265 47 207 393 553> 556 56<239.5 360.5>
VStem: 44 65<285.5 385.5 281.5 406.5> 207 58<56 92 92 92> 335 58<56 92 56 125 56 125> 491 65<285.5 385.5>
LayerCount: 2
Fore
SplineSet
553 0 m 1
 335 0 l 1
 335 125 l 1
 443 140 491 230 491 333 c 0
 491 438 421 556 300 556 c 0
 179 556 109 438 109 333 c 0
 109 230 157 140 265 125 c 1
 265 0 l 1
 47 0 l 1
 47 56 l 1
 207 56 l 1
 207 92 l 1
 100 117 44 235 44 336 c 0
 44 477 144 612 300 612 c 0
 456 612 556 477 556 336 c 0
 556 235 500 117 393 92 c 1
 393 56 l 1
 553 56 l 1
 553 0 l 1
EndSplineSet
EndChar

StartChar: estimated
Encoding: 8494 8494 264
Width: 600
GlyphClass: 2
Flags: MW
HStem: -10 15<264 339 264 347.5> 251 15<112.5 486 114 486 486 487 114 599> 512 17<264.5 335.5>
VStem: 0 110<185 249 270 333.5> 489 110<251 418>
LayerCount: 2
Fore
SplineSet
599 251 m 1
 114 251 l 2
 111 251 110 251 110 249 c 2
 110 102 l 2
 110 95 112 90 117 85 c 0
 163 36 228 5 300 5 c 0
 378 5 446 41 493 94 c 1
 536 94 l 1
 483 31 396 -10 299 -10 c 0
 134 -10 0 111 0 259 c 0
 0 408 134 529 299 529 c 0
 465 529 599 408 599 259 c 2
 599 251 l 1
489 270 m 1
 489 418 l 2
 489 425 486 431 482 435 c 0
 435 482 371 512 300 512 c 0
 229 512 164 481 118 434 c 0
 112 429 110 422 110 415 c 2
 110 270 l 1
 110 270 111 266 114 266 c 2
 486 266 l 2
 488 266 489 270 489 270 c 1
EndSplineSet
EndChar

StartChar: oneeighth
Encoding: 8539 8539 265
Width: 600
GlyphClass: 2
Flags: MW
HStem: -12 36<444.5 478 444.5 487.5> -4 21G<147 147> 285 36<55 124 167 230 55 124 447 475> 556 34<53 53> 590 20G 592 20G<140.5 157>
VStem: 124 43<321 560 560 560> 346 43<66 103.5 66 105> 358 43<224 258 224 270.5> 521 43<224.5 258.5> 533 43<66 103.5>
LayerCount: 2
Fore
SplineSet
513 164 m 1xa720
 550 145 576 128 576 82 c 0
 576 23 514 -12 461 -12 c 0
 408 -12 346 23 346 82 c 0xa720
 346 128 373 145 409 164 c 1
 380 186 358 203 358 243 c 0
 358 298 414 321 461 321 c 0
 508 321 564 298 564 243 c 0xa6c0
 564 203 542 186 513 164 c 1xa720
461 285 m 0xa6c0
 433 285 401 274 401 242 c 0
 401 206 431 192 461 180 c 1
 492 192 521 207 521 242 c 0
 521 275 489 285 461 285 c 0xa6c0
533 84 m 0xa720
 533 123 494 139 461 143 c 1
 428 139 389 123 389 84 c 0
 389 48 428 24 461 24 c 0
 495 24 533 48 533 84 c 0xa720
425 633 m 1
 465 610 l 1
 187 -28 l 1
 147 -4 l 1x6b20
 425 633 l 1
167 578 m 2xa720
 167 321 l 1
 230 321 l 1
 230 285 l 1
 55 285 l 1
 55 321 l 1
 124 321 l 1
 124 560 l 1
 107 556 90 554 74 555 c 2
 53 556 l 1
 47 590 l 1
 66 590 l 2xb320
 79 590 117 591 125 600 c 0
 132 607 135 612 146 612 c 0
 168 612 167 594 167 578 c 2xa720
EndSplineSet
EndChar

StartChar: threeeighths
Encoding: 8540 8540 266
Width: 600
GlyphClass: 2
Flags: MW
HStem: -12 36<444.5 478 444.5 487.5> -4 21G<141 141> 279 36<104.5 140 104.5 150.5> 285 36<447 475> 442 34<130 137 118 150> 576 36<123.5 145>
VStem: 180 43<508.5 535.5> 196 43<356 398.5> 346 43<66 103.5 66 105> 358 43<224 258 224 270.5> 521 43<224.5 258.5> 533 43<66 103.5>
LayerCount: 2
Fore
SplineSet
513 164 m 1xad90
 550 145 576 128 576 82 c 0
 576 23 514 -12 461 -12 c 0
 408 -12 346 23 346 82 c 0xad90
 346 128 373 145 409 164 c 1
 380 186 358 203 358 243 c 0
 358 298 414 321 461 321 c 0
 508 321 564 298 564 243 c 0x9d60
 564 203 542 186 513 164 c 1xad90
461 285 m 0x9d60
 433 285 401 274 401 242 c 0
 401 206 431 192 461 180 c 1
 492 192 521 207 521 242 c 0
 521 275 489 285 461 285 c 0x9d60
533 84 m 0xad90
 533 123 494 139 461 143 c 1
 428 139 389 123 389 84 c 0
 389 48 428 24 461 24 c 0
 495 24 533 48 533 84 c 0xad90
419 633 m 1
 459 610 l 1
 181 -28 l 1
 141 -4 l 1x6d90
 419 633 l 1
130 442 m 2
 97 439 l 1
 97 479 l 1xad90
 106 477 114 476 122 476 c 0
 152 476 180 486 180 521 c 0
 180 550 161 576 129 576 c 0
 118 576 101 575 93 565 c 1
 91 546 78 526 56 526 c 0
 45 526 36 535 36 546 c 0
 36 586 94 612 127 612 c 0
 181 612 223 578 223 523 c 0xae90
 223 494 211 479 191 461 c 1
 222 439 239 420 239 380 c 0
 239 312 181 279 120 279 c 0
 84 279 46 288 16 306 c 1
 33 339 l 1
 59 323 89 315 120 315 c 0
 160 315 196 334 196 378 c 0
 196 419 170 442 130 442 c 2
EndSplineSet
EndChar

StartChar: fiveeighths
Encoding: 8541 8541 267
Width: 600
GlyphClass: 2
Flags: MW
HStem: -12 36<444.5 478 444.5 487.5> -4 21G<135 135> 273 36<83.5 121 82 135.5> 285 36<447 475> 465 35 564 36<96 220 96 96> 590 20G<453 453>
VStem: 51 42 190 45<365.5 415.5> 346 43<66 103.5 66 105> 358 43<224 258 224 270.5> 521 43<224.5 258.5> 533 43<66 103.5>
LayerCount: 2
Fore
SplineSet
513 164 m 1xadc8
 550 145 576 128 576 82 c 0
 576 23 514 -12 461 -12 c 0
 408 -12 346 23 346 82 c 0xadc8
 346 128 373 145 409 164 c 1
 380 186 358 203 358 243 c 0
 358 298 414 321 461 321 c 0
 508 321 564 298 564 243 c 0x9db0
 564 203 542 186 513 164 c 1xadc8
461 285 m 0x9db0
 433 285 401 274 401 242 c 0
 401 206 431 192 461 180 c 1
 492 192 521 207 521 242 c 0
 521 275 489 285 461 285 c 0x9db0
533 84 m 0xadc8
 533 123 494 139 461 143 c 1
 428 139 389 123 389 84 c 0
 389 48 428 24 461 24 c 0
 495 24 533 48 533 84 c 0xadc8
220 600 m 1
 220 564 l 1
 96 564 l 1
 90 499 l 1
 116 501 l 2
 177 506 235 466 235 398 c 0
 235 319 173 273 98 273 c 0
 69 273 41 280 14 290 c 1
 24 324 l 1
 48 315 69 309 95 309 c 0
 147 309 190 338 190 393 c 0
 190 438 161 465 116 465 c 0
 92 465 68 461 45 454 c 1
 57 600 l 1
 220 600 l 1
413 633 m 1
 453 610 l 1
 175 -28 l 1
 135 -4 l 1x6bc8
 413 633 l 1
EndSplineSet
EndChar

StartChar: seveneighths
Encoding: 8542 8542 268
Width: 600
GlyphClass: 2
Flags: MW
HStem: -12 36<444.5 478 444.5 487.5> -4 21G<105 105> 285 36<447 475> 564 36<30 186 30 245> 590 20G<423 423>
VStem: 346 43<66 103.5 66 105> 358 43<224 258 224 270.5> 521 43<224.5 258.5> 533 43<66 103.5>
LayerCount: 2
Fore
SplineSet
513 164 m 1xb480
 550 145 576 128 576 82 c 0
 576 23 514 -12 461 -12 c 0
 408 -12 346 23 346 82 c 0xb480
 346 128 373 145 409 164 c 1
 380 186 358 203 358 243 c 0
 358 298 414 321 461 321 c 0
 508 321 564 298 564 243 c 0xb3
 564 203 542 186 513 164 c 1xb480
461 285 m 0xb3
 433 285 401 274 401 242 c 0
 401 206 431 192 461 180 c 1
 492 192 521 207 521 242 c 0
 521 275 489 285 461 285 c 0xb3
533 84 m 0xb480
 533 123 494 139 461 143 c 1
 428 139 389 123 389 84 c 0
 389 48 428 24 461 24 c 0
 495 24 533 48 533 84 c 0xb480
30 600 m 1
 245 600 l 1
 106 273 l 1
 60 273 l 1
 186 564 l 1
 30 564 l 1
 30 600 l 1
383 633 m 1
 423 610 l 1
 145 -28 l 1
 105 -4 l 1x6c80
 383 633 l 1
EndSplineSet
EndChar

StartChar: uni2190
Encoding: 8592 8592 269
Width: 600
GlyphClass: 2
Flags: MW
HStem: 338 44<136 596 136 596>
VStem: 4 592<356 364>
LayerCount: 2
Fore
SplineSet
136 382 m 1
 596 382 l 1
 596 338 l 1
 136 338 l 1
 151 315 185 240 185 215 c 0
 185 207 180 199 171 199 c 0
 162 199 154 213 150 219 c 0
 119 265 73 314 25 342 c 0
 19 345 4 352 4 360 c 0
 4 368 19 375 25 378 c 0
 73 406 119 455 150 501 c 0
 154 507 162 521 171 521 c 0
 180 521 185 513 185 505 c 0
 185 480 151 405 136 382 c 1
EndSplineSet
EndChar

StartChar: uni2191
Encoding: 8593 8593 270
Width: 600
GlyphClass: 2
Flags: MW
HStem: 636 20G<296 304>
VStem: 278 44<64 524 64 524>
LayerCount: 2
Fore
SplineSet
322 524 m 1
 322 64 l 1
 278 64 l 1
 278 524 l 1
 255 509 180 475 155 475 c 0
 147 475 139 480 139 489 c 0
 139 498 153 506 159 510 c 0
 205 541 254 587 282 635 c 0
 285 641 292 656 300 656 c 0
 308 656 315 641 318 635 c 0
 346 587 395 541 441 510 c 0
 447 506 461 498 461 489 c 0
 461 480 453 475 445 475 c 0
 420 475 345 509 322 524 c 1
EndSplineSet
EndChar

StartChar: uni2192
Encoding: 8594 8594 271
Width: 600
GlyphClass: 2
Flags: MW
HStem: 338 44<4 464 4 464>
VStem: 4 592<356 364 356 382 356 382>
LayerCount: 2
Fore
SplineSet
4 382 m 1
 464 382 l 1
 449 405 415 480 415 505 c 0
 415 513 420 521 429 521 c 0
 438 521 446 507 450 501 c 0
 481 455 527 406 575 378 c 0
 581 375 596 368 596 360 c 0
 596 352 581 345 575 342 c 0
 527 314 481 265 450 219 c 0
 446 213 438 199 429 199 c 0
 420 199 415 207 415 215 c 0
 415 240 449 315 464 338 c 1
 4 338 l 1
 4 382 l 1
EndSplineSet
EndChar

StartChar: uni2193
Encoding: 8595 8595 272
Width: 600
GlyphClass: 2
Flags: MW
HStem: 636 20G<278 322 322 322>
VStem: 278 44<196 656 196 656>
LayerCount: 2
Fore
SplineSet
322 656 m 1
 322 196 l 1
 345 211 420 245 445 245 c 0
 453 245 461 240 461 231 c 0
 461 222 447 214 441 210 c 0
 395 179 346 133 318 85 c 0
 315 79 308 64 300 64 c 0
 292 64 285 79 282 85 c 0
 254 133 205 179 159 210 c 0
 153 214 139 222 139 231 c 0
 139 240 147 245 155 245 c 0
 180 245 255 211 278 196 c 1
 278 656 l 1
 322 656 l 1
EndSplineSet
EndChar

StartChar: uni2194
Encoding: 8596 8596 273
Width: 600
GlyphClass: 2
Flags: MW
HStem: 338 44<136 464 136 464>
VStem: 4 592<356 364>
LayerCount: 2
Fore
SplineSet
464 338 m 1
 136 338 l 1
 151 315 185 240 185 215 c 0
 185 207 180 199 171 199 c 0
 162 199 154 213 150 219 c 0
 119 265 73 314 25 342 c 0
 19 345 4 352 4 360 c 0
 4 368 19 375 25 378 c 0
 73 406 119 455 150 501 c 0
 154 507 162 521 171 521 c 0
 180 521 185 513 185 505 c 0
 185 480 151 405 136 382 c 1
 464 382 l 1
 449 405 415 480 415 505 c 0
 415 513 420 521 429 521 c 0
 438 521 446 507 450 501 c 0
 481 455 527 406 575 378 c 0
 581 375 596 368 596 360 c 0
 596 352 581 345 575 342 c 0
 527 314 481 265 450 219 c 0
 446 213 438 199 429 199 c 0
 420 199 415 207 415 215 c 0
 415 240 449 315 464 338 c 1
EndSplineSet
EndChar

StartChar: uni2195
Encoding: 8597 8597 274
Width: 600
GlyphClass: 2
Flags: MW
HStem: 636 20G<296 304>
VStem: 278 44<196 524 196 524>
LayerCount: 2
Fore
SplineSet
278 196 m 1
 278 524 l 1
 255 509 180 475 155 475 c 0
 147 475 139 480 139 489 c 0
 139 498 153 506 159 510 c 0
 205 541 254 587 282 635 c 0
 285 641 292 656 300 656 c 0
 308 656 315 641 318 635 c 0
 346 587 395 541 441 510 c 0
 447 506 461 498 461 489 c 0
 461 480 453 475 445 475 c 0
 420 475 345 509 322 524 c 1
 322 196 l 1
 345 211 420 245 445 245 c 0
 453 245 461 240 461 231 c 0
 461 222 447 214 441 210 c 0
 395 179 346 133 318 85 c 0
 315 79 308 64 300 64 c 0
 292 64 285 79 282 85 c 0
 254 133 205 179 159 210 c 0
 153 214 139 222 139 231 c 0
 139 240 147 245 155 245 c 0
 180 245 255 211 278 196 c 1
EndSplineSet
EndChar

StartChar: uni21A8
Encoding: 8616 8616 275
Width: 600
GlyphClass: 2
Flags: MW
HStem: 0 44<139 461 139 461>
VStem: 278 44<261 589 261 589>
LayerCount: 2
Fore
SplineSet
278 261 m 1
 278 589 l 1
 255 574 180 540 155 540 c 0
 147 540 139 545 139 554 c 0
 139 563 153 571 159 575 c 0
 205 606 254 652 282 700 c 0
 285 706 292 721 300 721 c 0
 308 721 315 706 318 700 c 0
 346 652 395 606 441 575 c 0
 447 571 461 563 461 554 c 0
 461 545 453 540 445 540 c 0
 420 540 345 574 322 589 c 1
 322 261 l 1
 345 276 420 310 445 310 c 0
 453 310 461 305 461 296 c 0
 461 287 447 279 441 275 c 0
 395 244 346 198 318 150 c 0
 315 144 308 129 300 129 c 0
 292 129 285 144 282 150 c 0
 254 198 205 244 159 275 c 0
 153 279 139 287 139 296 c 0
 139 305 147 310 155 310 c 0
 180 310 255 276 278 261 c 1
461 44 m 1
 461 0 l 1
 139 0 l 1
 139 44 l 1
 461 44 l 1
EndSplineSet
EndChar

StartChar: partialdiff
Encoding: 8706 8706 276
Width: 600
GlyphClass: 2
Flags: MW
HStem: -9 44<225.5 324.5 225.5 357> 362 43<248.5 338 225.5 340> 625 44<237 325>
VStem: 65 58<152 242 152 257> 477 58<339.5 433.5>
LayerCount: 2
Fore
SplineSet
127 582 m 1
 102 618 l 1
 135 642 190 669 275 669 c 0
 410 669 535 550 535 340 c 0
 535 172 448 -9 266 -9 c 0
 126 -9 65 106 65 192 c 0
 65 322 167 405 284 405 c 0
 392 405 458 326 475 299 c 1
 477 312 477 333 477 346 c 0
 477 521 379 625 271 625 c 0
 203 625 155 601 127 582 c 1
270 35 m 0
 379 35 449 138 466 246 c 1
 450 287 386 362 294 362 c 0
 203 362 123 289 123 195 c 0
 123 109 181 35 270 35 c 0
EndSplineSet
EndChar

StartChar: Delta
Encoding: 8710 8710 277
Width: 600
GlyphClass: 2
Flags: MW
HStem: 0 46<78 517 78 583> 570 50<296 301 296 296>
VStem: 17 566<0 43 0 43>
LayerCount: 2
Fore
SplineSet
17 0 m 1
 17 43 l 1
 266 620 l 1
 336 620 l 1
 583 43 l 1
 583 0 l 1
 17 0 l 1
78 46 m 1
 517 46 l 1
 368 402 l 2
 350 446 315 533 301 570 c 1
 296 570 l 1
 286 544 255 465 236 420 c 2
 78 46 l 1
EndSplineSet
EndChar

StartChar: product
Encoding: 8719 8719 278
Width: 600
GlyphClass: 2
Flags: MW
HStem: 552 49<8 102 8 592 159 441 159 159 498 592 498 498>
VStem: 102 57<-82 552 -82 552> 441 57<-82 552 -82 552>
LayerCount: 2
Fore
SplineSet
592 552 m 1
 498 552 l 1
 498 -82 l 1
 441 -82 l 1
 441 552 l 1
 159 552 l 1
 159 -82 l 1
 102 -82 l 1
 102 552 l 1
 8 552 l 1
 8 601 l 1
 592 601 l 1
 592 552 l 1
EndSplineSet
EndChar

StartChar: summation
Encoding: 8721 8721 279
Width: 600
GlyphClass: 2
Flags: MW
HStem: 0 56<203 455 203 455> 544 56<209 452 209 209>
VStem: 145 58<56 56 56 60 56 60>
LayerCount: 2
Fore
SplineSet
145 600 m 1
 452 600 l 1
 452 544 l 1
 209 544 l 1
 375 316 l 1
 203 56 l 1
 455 56 l 1
 455 0 l 1
 145 0 l 1
 145 60 l 1
 311 318 l 1
 145 541 l 1
 145 600 l 1
EndSplineSet
EndChar

StartChar: minus
Encoding: 8722 8722 280
Width: 600
GlyphClass: 2
Flags: MW
HStem: 327 66<25 575 25 575>
VStem: 25 550<327 393 327 393>
LayerCount: 2
Fore
SplineSet
575 393 m 1
 575 327 l 1
 25 327 l 1
 25 393 l 1
 575 393 l 1
EndSplineSet
EndChar

StartChar: uni2215
Encoding: 8725 8725 281
Width: 600
GlyphClass: 2
Flags: MW
HStem: -4 21G<141 141> 590 20G<459 459>
VStem: 141 318
LayerCount: 2
Fore
SplineSet
419 633 m 1
 459 610 l 1
 181 -28 l 1
 141 -4 l 1
 419 633 l 1
EndSplineSet
EndChar

StartChar: uni2219
Encoding: 8729 8729 282
Width: 600
GlyphClass: 2
Flags: MW
HStem: 293 135<281.5 318.5>
VStem: 233 135<341.5 378.5>
LayerCount: 2
Fore
SplineSet
233 360 m 0
 233 397 263 428 300 428 c 0
 337 428 368 397 368 360 c 0
 368 323 337 293 300 293 c 0
 263 293 233 323 233 360 c 0
EndSplineSet
EndChar

StartChar: radical
Encoding: 8730 8730 283
Width: 600
GlyphClass: 2
Flags: MW
HStem: 377 66<2 109 2 159> 729 66<455 598 455 455>
VStem: 2 596<377 795 443 795>
LayerCount: 2
Fore
SplineSet
2 443 m 1
 159 443 l 1
 227 194 l 1
 405 795 l 1
 598 795 l 1
 598 729 l 1
 455 729 l 1
 225 -47 l 1
 109 377 l 1
 2 377 l 1
 2 443 l 1
EndSplineSet
EndChar

StartChar: infinity
Encoding: 8734 8734 284
Width: 600
GlyphClass: 2
Flags: MW
HStem: 203 66<122 171.5 122 179.5 428.5 478> 400 20G 451 66<122 171.5 428.5 478>
VStem: 13 70<340 380 340 399.5> 517 70<340 380>
LayerCount: 2
Fore
SplineSet
300 302 m 1
 265 251 212 203 147 203 c 0
 58 203 13 278 13 360 c 0
 13 439 61 517 147 517 c 0
 215 517 261 469 300 420 c 1
 339 473 384 517 454 517 c 0
 539 517 587 443 587 364 c 0
 587 285 546 203 457 203 c 0
 385 203 345 254 300 302 c 1
83 360 m 0
 83 320 98 269 146 269 c 0
 197 269 238 321 261 360 c 1
 238 399 197 451 146 451 c 0
 98 451 83 400 83 360 c 0
517 360 m 0
 517 400 502 451 454 451 c 0
 403 451 362 399 339 360 c 1
 362 321 403 269 454 269 c 0
 502 269 517 320 517 360 c 0
EndSplineSet
EndChar

StartChar: uni2229
Encoding: 8745 8745 285
Width: 600
GlyphClass: 2
Flags: MW
HStem: 0 21G<10 80 10 10 520 590 520 520> 668 66<244.5 355.5>
VStem: 10 70<0 432 0 433 0 517.5> 520 70<0 432 432 433>
LayerCount: 2
Fore
SplineSet
590 0 m 1
 520 0 l 1
 520 432 l 2
 520 569 411 668 300 668 c 0
 189 668 80 569 80 432 c 2
 80 0 l 1
 10 0 l 1
 10 433 l 2
 10 602 135 734 300 734 c 0
 465 734 590 602 590 433 c 2
 590 0 l 1
EndSplineSet
EndChar

StartChar: integral
Encoding: 8747 8747 286
Width: 600
GlyphClass: 2
Flags: MW
HStem: -135 42<189.5 206.5 187 219.5> 691 41<404 418.5>
VStem: 271 51<454.5 555 448.5 567> 286 50<33.5 146.5 31 148.5>
LayerCount: 2
Fore
SplineSet
464 717 m 1xd0
 452 679 l 1
 444 686 425 691 412 691 c 0
 396 691 373 687 359 672 c 0
 332 644 322 595 322 515 c 0xe0
 322 382 336 214 336 79 c 0
 336 -17 313 -67 292 -94 c 0
 271 -121 237 -135 202 -135 c 0
 177 -135 148 -125 136 -118 c 1
 148 -79 l 1
 157 -84 176 -93 198 -93 c 0
 215 -93 234 -85 246 -74 c 0
 268 -49 286 -13 286 80 c 0xd0
 286 217 271 388 271 521 c 0
 271 613 286 666 324 700 c 0xe0
 350 723 379 732 409 732 c 0
 430 732 453 723 464 717 c 1xd0
EndSplineSet
EndChar

StartChar: approxequal
Encoding: 8776 8776 287
Width: 600
GlyphClass: 2
Flags: MW
HStem: 222 66<416 453.5 416 466> 296 66<164.5 208> 366 66<395 432.5 395 445> 440 66<143.5 187>
VStem: 8 584<348 373>
LayerCount: 2
Fore
SplineSet
173 506 m 0
 210 506 257 488 300 469 c 0
 343 450 383 432 407 432 c 0
 458 432 500 489 519 530 c 1
 571 492 l 1
 540 431 482 366 408 366 c 0
 368 366 302 396 264 411 c 0
 238 422 201 440 173 440 c 0
 114 440 87 377 60 334 c 1
 8 373 l 1
 46 438 89 506 173 506 c 0
194 362 m 0
 231 362 278 344 321 325 c 0
 364 306 404 288 428 288 c 0
 479 288 521 345 540 386 c 1
 592 348 l 1
 561 287 503 222 429 222 c 0
 389 222 323 252 285 267 c 0
 259 278 222 296 194 296 c 0
 135 296 108 233 81 190 c 1
 29 229 l 1
 67 294 110 362 194 362 c 0
EndSplineSet
EndChar

StartChar: notequal
Encoding: 8800 8800 288
Width: 600
GlyphClass: 2
Flags: MW
HStem: 269 65<25 208 25 243 315 575 25 280> 386 65<25 273 25 311 25 346 383 575>
VStem: 25 550<269 334 269 334 386 451 269 451>
LayerCount: 2
Fore
SplineSet
280 269 m 1
 208 139 l 1
 149 171 l 1
 208 269 l 1
 25 269 l 1
 25 334 l 1
 243 334 l 1
 273 386 l 1
 25 386 l 1
 25 451 l 1
 311 451 l 1
 333 490 353 526 380 576 c 1
 405 564 416 559 438 546 c 1
 383 451 l 1
 575 451 l 1
 575 386 l 1
 346 386 l 1
 315 334 l 1
 575 334 l 1
 575 269 l 1
 280 269 l 1
EndSplineSet
EndChar

StartChar: uni2261
Encoding: 8801 8801 289
Width: 600
GlyphClass: 2
Flags: MW
HStem: 209 66<25 575 25 575> 327 66<25 575 25 575> 445 66<25 575 25 575>
VStem: 25 550<209 275 209 275 327 393 209 393 445 511 209 511>
LayerCount: 2
Fore
SplineSet
575 511 m 1
 575 445 l 1
 25 445 l 1
 25 511 l 1
 575 511 l 1
575 393 m 1
 575 327 l 1
 25 327 l 1
 25 393 l 1
 575 393 l 1
575 275 m 1
 575 209 l 1
 25 209 l 1
 25 275 l 1
 575 275 l 1
EndSplineSet
EndChar

StartChar: lessequal
Encoding: 8804 8804 290
Width: 600
GlyphClass: 2
Flags: MW
HStem: 0 66<88 512 88 512> 407 20G<80 80 194 194>
VStem: 80 439<188 427>
LayerCount: 2
Fore
SplineSet
476 720 m 1
 519 666 l 1
 194 427 l 1
 519 188 l 1
 476 134 l 1
 80 427 l 1
 476 720 l 1
88 0 m 1
 88 66 l 1
 512 66 l 1
 512 0 l 1
 88 0 l 1
EndSplineSet
EndChar

StartChar: greaterequal
Encoding: 8805 8805 291
Width: 600
GlyphClass: 2
Flags: MW
HStem: 0 66<88 512 88 512> 407 20G<405 405 519 519>
VStem: 80 439<188 427 427 666>
LayerCount: 2
Fore
SplineSet
80 666 m 1
 123 720 l 1
 519 427 l 1
 123 134 l 1
 80 188 l 1
 405 427 l 1
 80 666 l 1
88 0 m 1
 88 66 l 1
 512 66 l 1
 512 0 l 1
 88 0 l 1
EndSplineSet
EndChar

StartChar: uni22C5
Encoding: 8901 8901 292
Width: 600
GlyphClass: 2
Flags: MW
HStem: 324 72<276 296>
VStem: 250 72<350 370>
LayerCount: 2
Fore
SplineSet
250 360 m 0
 250 380 266 396 286 396 c 0
 306 396 322 380 322 360 c 0
 322 340 306 324 286 324 c 0
 266 324 250 340 250 360 c 0
EndSplineSet
EndChar

StartChar: uni2302
Encoding: 8962 8962 293
Width: 600
GlyphClass: 2
Flags: MW
HStem: 0 30<40 560 40 590>
VStem: 10 30<30 30 30 391> 560 30<30 391 391 391>
LayerCount: 2
Fore
SplineSet
590 0 m 1
 10 0 l 1
 10 406 l 1
 300 575 l 1
 590 406 l 1
 590 0 l 1
40 30 m 1
 560 30 l 1
 560 391 l 1
 300 543 l 1
 40 391 l 1
 40 30 l 1
EndSplineSet
EndChar

StartChar: uni2304
Encoding: 8964 8964 294
Width: 600
GlyphClass: 2
Flags: MW
HStem: 357 323<103 333 103 267>
VStem: 103 394<680 680>
LayerCount: 2
Fore
SplineSet
103 680 m 1
 177 680 l 1
 300 438 l 1
 423 680 l 1
 497 680 l 1
 333 357 l 1
 267 357 l 1
 103 680 l 1
EndSplineSet
EndChar

StartChar: uni2310
Encoding: 8976 8976 295
Width: 600
GlyphClass: 2
Flags: MW
HStem: 0 21G<30 74 30 30> 232 44<74 570 74 74>
VStem: 30 44<0 232>
LayerCount: 2
Fore
SplineSet
74 0 m 1
 30 0 l 1
 30 276 l 1
 570 276 l 1
 570 232 l 1
 74 232 l 1
 74 0 l 1
EndSplineSet
EndChar

StartChar: uni2319
Encoding: 8985 8985 296
Width: 600
GlyphClass: 2
Flags: MW
HStem: 0 44<74 570 74 570>
VStem: 30 44<44 276 44 276 44 276>
LayerCount: 2
Fore
SplineSet
30 276 m 1
 74 276 l 1
 74 44 l 1
 570 44 l 1
 570 0 l 1
 30 0 l 1
 30 276 l 1
EndSplineSet
EndChar

StartChar: uni2320
Encoding: 8992 8992 297
Width: 600
GlyphClass: 2
Flags: MW
HStem: -288 21G<279 279 279 323> 444 40<441.5 493.5>
VStem: 279 44<-288 -24 -24 44> 509 91
LayerCount: 2
Fore
SplineSet
279 -288 m 1
 279 -24 l 2
 279 112 267 484 464 484 c 0
 541 484 600 414 600 345 c 0
 600 319 591 287 559 287 c 0
 487 287 534 444 453 444 c 0
 430 444 398 438 371 377 c 0
 344 315 323 198 323 126 c 2
 323 -288 l 1
 279 -288 l 1
EndSplineSet
EndChar

StartChar: uni2321
Encoding: 8993 8993 298
Width: 600
GlyphClass: 2
Flags: MW
HStem: 20 40<108.5 160.5 108.5 236.5> 772 20G<279 323 323 323>
VStem: 2 91 279 44<460 528 528 792>
LayerCount: 2
Fore
SplineSet
323 792 m 1
 323 528 l 2
 323 392 335 20 138 20 c 0
 61 20 2 90 2 159 c 0
 2 185 11 217 43 217 c 0
 115 217 68 60 149 60 c 0
 172 60 204 66 231 127 c 0
 258 189 279 306 279 378 c 2
 279 792 l 1
 323 792 l 1
EndSplineSet
EndChar

StartChar: uni2500
Encoding: 9472 9472 299
Width: 600
GlyphClass: 2
Flags: MW
HStem: 216 72<-20 620 -20 620>
VStem: -20 640<216 288 216 288>
LayerCount: 2
Fore
SplineSet
-20 216 m 1
 -20 288 l 1
 620 288 l 1
 620 216 l 1
 -20 216 l 1
EndSplineSet
EndChar

StartChar: uni2502
Encoding: 9474 9474 300
Width: 600
GlyphClass: 2
Flags: MW
HStem: -288 21G<264 264 264 336> 772 20G<264 336 336 336>
VStem: 264 72<-288 792 -288 792>
LayerCount: 2
Fore
SplineSet
264 -288 m 1
 264 792 l 1
 336 792 l 1
 336 -288 l 1
 264 -288 l 1
EndSplineSet
EndChar

StartChar: uni250C
Encoding: 9484 9484 301
Width: 600
GlyphClass: 2
Flags: MW
HStem: -288 21G<264 264 264 336> 216 72<336 620 336 336>
VStem: 264 72<-288 216 -288 288>
LayerCount: 2
Fore
SplineSet
264 -288 m 1
 264 288 l 1
 620 288 l 1
 620 216 l 1
 336 216 l 1
 336 -288 l 1
 264 -288 l 1
EndSplineSet
EndChar

StartChar: uni2510
Encoding: 9488 9488 302
Width: 600
GlyphClass: 2
Flags: MW
HStem: -288 21G<264 336 264 264> 216 72<-20 264 -20 336>
VStem: 264 72<-288 216 216 216>
LayerCount: 2
Fore
SplineSet
336 288 m 1
 336 -288 l 1
 264 -288 l 1
 264 216 l 1
 -20 216 l 1
 -20 288 l 1
 336 288 l 1
EndSplineSet
EndChar

StartChar: uni2514
Encoding: 9492 9492 303
Width: 600
GlyphClass: 2
Flags: MW
HStem: 216 72<336 620 336 620> 772 20G<264 336 336 336>
VStem: 264 72<288 792 288 792 288 792>
LayerCount: 2
Fore
SplineSet
264 216 m 1
 264 792 l 1
 336 792 l 1
 336 288 l 1
 620 288 l 1
 620 216 l 1
 264 216 l 1
EndSplineSet
EndChar

StartChar: uni2518
Encoding: 9496 9496 304
Width: 600
GlyphClass: 2
Flags: MW
HStem: 216 72<-20 264 -20 336 -20 264> 772 20G<264 336 336 336>
VStem: 264 72<288 792 216 792>
LayerCount: 2
Fore
SplineSet
336 792 m 1
 336 216 l 1
 -20 216 l 1
 -20 288 l 1
 264 288 l 1
 264 792 l 1
 336 792 l 1
EndSplineSet
EndChar

StartChar: uni251C
Encoding: 9500 9500 305
Width: 600
GlyphClass: 2
Flags: MW
HStem: -288 21G<264 264 264 336> 216 72<336 620 336 620> 772 20G<264 336 336 336>
VStem: 264 72<-288 216 288 792>
LayerCount: 2
Fore
SplineSet
264 -288 m 1
 264 792 l 1
 336 792 l 1
 336 288 l 1
 620 288 l 1
 620 216 l 1
 336 216 l 1
 336 -288 l 1
 264 -288 l 1
EndSplineSet
EndChar

StartChar: uni2524
Encoding: 9508 9508 306
Width: 600
GlyphClass: 2
Flags: MW
HStem: -288 21G<264 336 264 264> 216 72<-20 264 -20 264> 772 20G<264 336 336 336>
VStem: 264 72<-288 216 216 216 288 792 -288 792>
LayerCount: 2
Fore
SplineSet
-20 216 m 1
 -20 288 l 1
 264 288 l 1
 264 792 l 1
 336 792 l 1
 336 -288 l 1
 264 -288 l 1
 264 216 l 1
 -20 216 l 1
EndSplineSet
EndChar

StartChar: uni252C
Encoding: 9516 9516 307
Width: 600
GlyphClass: 2
Flags: MW
HStem: -288 21G<264 336 264 264> 216 72<-20 620 -20 264 336 336 336 620>
VStem: 264 72<-288 216 -288 216>
LayerCount: 2
Fore
SplineSet
-20 216 m 1
 -20 288 l 1
 620 288 l 1
 620 216 l 1
 336 216 l 1
 336 -288 l 1
 264 -288 l 1
 264 216 l 1
 -20 216 l 1
EndSplineSet
EndChar

StartChar: uni2534
Encoding: 9524 9524 308
Width: 600
GlyphClass: 2
Flags: MW
HStem: 216 72<-20 264 -20 264 336 620> 772 20G<264 336 336 336>
VStem: 264 72<288 792 288 792>
LayerCount: 2
Fore
SplineSet
-20 216 m 1
 -20 288 l 1
 264 288 l 1
 264 792 l 1
 336 792 l 1
 336 288 l 1
 620 288 l 1
 620 216 l 1
 -20 216 l 1
EndSplineSet
EndChar

StartChar: uni253C
Encoding: 9532 9532 309
Width: 600
GlyphClass: 2
Flags: MW
HStem: -288 21G<264 336 264 264> 216 72<-20 264 -20 264 336 620> 772 20G<264 336 336 336>
VStem: 264 72<-288 216 -288 216 288 792>
LayerCount: 2
Fore
SplineSet
-20 216 m 1
 -20 288 l 1
 264 288 l 1
 264 792 l 1
 336 792 l 1
 336 288 l 1
 620 288 l 1
 620 216 l 1
 336 216 l 1
 336 -288 l 1
 264 -288 l 1
 264 216 l 1
 -20 216 l 1
EndSplineSet
EndChar

StartChar: uni2550
Encoding: 9552 9552 310
Width: 600
GlyphClass: 2
Flags: MW
HStem: 144 72<-20 620 -20 620> 288 72<-20 620 -20 620>
VStem: -20 640<144 216 144 216 288 360 144 360>
LayerCount: 2
Fore
SplineSet
-20 144 m 1
 -20 216 l 1
 620 216 l 1
 620 144 l 1
 -20 144 l 1
-20 288 m 1
 -20 360 l 1
 620 360 l 1
 620 288 l 1
 -20 288 l 1
EndSplineSet
EndChar

StartChar: uni2551
Encoding: 9553 9553 311
Width: 600
GlyphClass: 2
Flags: MW
HStem: -288 21G<192 192 192 264 336 408 336 336> 772 20G<192 264 264 264 336 408 408 408>
VStem: 192 72<-288 792 -288 792> 336 72<-288 792 -288 792>
LayerCount: 2
Fore
SplineSet
192 -288 m 1
 192 792 l 1
 264 792 l 1
 264 -288 l 1
 192 -288 l 1
336 -288 m 1
 336 792 l 1
 408 792 l 1
 408 -288 l 1
 336 -288 l 1
EndSplineSet
EndChar

StartChar: uni2552
Encoding: 9554 9554 312
Width: 600
GlyphClass: 2
Flags: MW
HStem: -288 21G<264 264 264 336> 144 72<336 620 336 620> 288 72<336 620 336 336>
VStem: 264 72<-288 144 216 288>
LayerCount: 2
Fore
SplineSet
264 -288 m 1
 264 360 l 1
 620 360 l 1
 620 288 l 1
 336 288 l 1
 336 216 l 1
 620 216 l 1
 620 144 l 1
 336 144 l 1
 336 -288 l 1
 264 -288 l 1
EndSplineSet
EndChar

StartChar: uni2553
Encoding: 9555 9555 313
Width: 600
GlyphClass: 2
Flags: MW
HStem: -288 21G<192 264 192 192 336 408 336 336> 216 72<264 336 264 264 408 620 408 408>
VStem: 192 72<-288 216 -288 288> 336 72<-288 216 -288 216>
LayerCount: 2
Fore
SplineSet
620 288 m 1
 620 216 l 1
 408 216 l 1
 408 -288 l 1
 336 -288 l 1
 336 216 l 1
 264 216 l 1
 264 -288 l 1
 192 -288 l 1
 192 288 l 1
 620 288 l 1
EndSplineSet
EndChar

StartChar: uni2554
Encoding: 9556 9556 314
Width: 600
GlyphClass: 2
Flags: MW
HStem: -288 21G<192 192 192 264 336 408 336 336> 144 72<408 620 408 408> 288 72<264 620 264 264>
VStem: 192 72<-288 288 -288 360> 336 72<-288 144 -288 216>
LayerCount: 2
Fore
SplineSet
192 -288 m 1
 192 360 l 1
 620 360 l 1
 620 288 l 1
 264 288 l 1
 264 -288 l 1
 192 -288 l 1
336 -288 m 1
 336 216 l 1
 620 216 l 1
 620 144 l 1
 408 144 l 1
 408 -288 l 1
 336 -288 l 1
EndSplineSet
EndChar

StartChar: uni2555
Encoding: 9557 9557 315
Width: 600
GlyphClass: 2
Flags: MW
HStem: -288 21G<264 336 264 264> 144 72<-20 264 -20 264> 288 72<-20 264 -20 336>
VStem: 264 72<-288 144 144 144 216 288 288 288>
LayerCount: 2
Fore
SplineSet
336 360 m 1
 336 -288 l 1
 264 -288 l 1
 264 144 l 1
 -20 144 l 1
 -20 216 l 1
 264 216 l 1
 264 288 l 1
 -20 288 l 1
 -20 360 l 1
 336 360 l 1
EndSplineSet
EndChar

StartChar: uni2556
Encoding: 9558 9558 316
Width: 600
GlyphClass: 2
Flags: MW
HStem: -288 21G<192 264 192 192 336 408 336 336> 216 72<-20 408 -20 192 264 264 264 336>
VStem: 192 72<-288 216 -288 216> 336 72<-288 216 216 216>
LayerCount: 2
Fore
SplineSet
-20 216 m 1
 -20 288 l 1
 408 288 l 1
 408 -288 l 1
 336 -288 l 1
 336 216 l 1
 264 216 l 1
 264 -288 l 1
 192 -288 l 1
 192 216 l 1
 -20 216 l 1
EndSplineSet
EndChar

StartChar: uni2557
Encoding: 9559 9559 317
Width: 600
GlyphClass: 2
Flags: MW
HStem: -288 21G<192 264 192 192 336 336 336 408> 144 72<-20 264 -20 192> 288 72<-20 408 -20 336>
VStem: 192 72<-288 144 144 144> 336 72<-288 288 288 288>
LayerCount: 2
Fore
SplineSet
-20 144 m 1
 -20 216 l 1
 264 216 l 1
 264 -288 l 1
 192 -288 l 1
 192 144 l 1
 -20 144 l 1
-20 288 m 1
 -20 360 l 1
 408 360 l 1
 408 -288 l 1
 336 -288 l 1
 336 288 l 1
 -20 288 l 1
EndSplineSet
EndChar

StartChar: uni2558
Encoding: 9560 9560 318
Width: 600
GlyphClass: 2
Flags: MW
HStem: 144 72<336 620 336 620> 288 72<336 620 336 620> 772 20G<264 336 336 336>
VStem: 264 72<216 288 360 792>
LayerCount: 2
Fore
SplineSet
264 144 m 1
 264 792 l 1
 336 792 l 1
 336 360 l 1
 620 360 l 1
 620 288 l 1
 336 288 l 1
 336 216 l 1
 620 216 l 1
 620 144 l 1
 264 144 l 1
EndSplineSet
EndChar

StartChar: uni2559
Encoding: 9561 9561 319
Width: 600
GlyphClass: 2
Flags: MW
HStem: 216 72<264 336 408 620> 772 20G<192 264 264 264 336 408 408 408>
VStem: 192 72<288 792 288 792 288 792> 336 72<288 792 288 792>
LayerCount: 2
Fore
SplineSet
192 216 m 1
 192 792 l 1
 264 792 l 1
 264 288 l 1
 336 288 l 1
 336 792 l 1
 408 792 l 1
 408 288 l 1
 620 288 l 1
 620 216 l 1
 192 216 l 1
EndSplineSet
EndChar

StartChar: uni255A
Encoding: 9562 9562 320
Width: 600
GlyphClass: 2
Flags: MW
HStem: 144 72<264 620 264 620> 288 72<408 620 408 620> 772 20G<192 264 264 264 336 408 408 408>
VStem: 192 72<216 792 216 792 216 792> 336 72<360 792 360 792 360 792>
LayerCount: 2
Fore
SplineSet
192 144 m 1
 192 792 l 1
 264 792 l 1
 264 216 l 1
 620 216 l 1
 620 144 l 1
 192 144 l 1
336 288 m 1
 336 792 l 1
 408 792 l 1
 408 360 l 1
 620 360 l 1
 620 288 l 1
 336 288 l 1
EndSplineSet
EndChar

StartChar: uni255B
Encoding: 9563 9563 321
Width: 600
GlyphClass: 2
Flags: MW
HStem: 144 72<-20 264 -20 336 -20 264> 288 72<-20 264 -20 264> 772 20G<264 336 336 336>
VStem: 264 72<216 288 288 288 360 792 144 792>
LayerCount: 2
Fore
SplineSet
336 792 m 1
 336 144 l 1
 -20 144 l 1
 -20 216 l 1
 264 216 l 1
 264 288 l 1
 -20 288 l 1
 -20 360 l 1
 264 360 l 1
 264 792 l 1
 336 792 l 1
EndSplineSet
EndChar

StartChar: uni255C
Encoding: 9564 9564 322
Width: 600
GlyphClass: 2
Flags: MW
HStem: 216 72<-20 192 264 336 -20 192> 772 20G<192 264 264 264 336 408 408 408>
VStem: 192 72<288 792 288 792> 336 72<288 792 216 792>
LayerCount: 2
Fore
SplineSet
408 792 m 1
 408 216 l 1
 -20 216 l 1
 -20 288 l 1
 192 288 l 1
 192 792 l 1
 264 792 l 1
 264 288 l 1
 336 288 l 1
 336 792 l 1
 408 792 l 1
EndSplineSet
EndChar

StartChar: uni255D
Encoding: 9565 9565 323
Width: 600
GlyphClass: 2
Flags: MW
HStem: 144 72<-20 336 -20 336 -20 408> 288 72<-20 192 -20 192 -20 264> 772 20G<192 264 264 264 336 408 408 408>
VStem: 192 72<360 792 288 792> 336 72<216 792 144 792>
LayerCount: 2
Fore
SplineSet
-20 144 m 1
 -20 216 l 1
 336 216 l 1
 336 792 l 1
 408 792 l 1
 408 144 l 1
 -20 144 l 1
-20 288 m 1
 -20 360 l 1
 192 360 l 1
 192 792 l 1
 264 792 l 1
 264 288 l 1
 -20 288 l 1
EndSplineSet
EndChar

StartChar: uni255E
Encoding: 9566 9566 324
Width: 600
GlyphClass: 2
Flags: MW
HStem: -288 21G<264 336 264 264> 144 72<336 620 336 620> 288 72<336 620 336 620> 772 20G<264 336 336 336>
VStem: 264 72<-288 144 216 288 360 792>
LayerCount: 2
Fore
SplineSet
620 216 m 1
 620 144 l 1
 336 144 l 1
 336 -288 l 1
 264 -288 l 1
 264 792 l 1
 336 792 l 1
 336 360 l 1
 620 360 l 1
 620 288 l 1
 336 288 l 1
 336 216 l 1
 620 216 l 1
EndSplineSet
EndChar

